<?xml version="1.0" standalone="no"?>
<!DOCTYPE svg PUBLIC "-//W3C//DTD SVG 1.1//EN" "http://www.w3.org/Graphics/SVG/1.1/DTD/svg11.dtd" >
<svg xmlns="http://www.w3.org/2000/svg" xmlns:xlink="http://www.w3.org/1999/xlink" version="1.1">
<metadata>
Created by FontForge 20170731 at Tue Nov 21 06:01:52 2023
 By Aleksey,,,
</metadata>
<defs>
<font id="Apostrof-Regular" horiz-adv-x="884" >
  <font-face 
    font-family="Apostrof"
    font-weight="400"
    font-stretch="normal"
    units-per-em="2048"
    panose-1="0 0 0 0 0 0 0 0 0 0"
    ascent="1638"
    descent="-410"
    x-height="1204"
    cap-height="1434"
    bbox="-287 -447.282 1614 1991"
    underline-thickness="102"
    underline-position="-358"
    unicode-range="U+000D-2212"
  />
<missing-glyph horiz-adv-x="512" 
 />
    <glyph glyph-name=".notdef" horiz-adv-x="512" 
 />
    <glyph glyph-name="uni0000" horiz-adv-x="0" 
 />
    <glyph glyph-name="uni0000" horiz-adv-x="0" 
 />
    <glyph glyph-name="uni000D" unicode="&#xd;" horiz-adv-x="512" 
 />
    <glyph glyph-name="space" unicode=" " horiz-adv-x="409" 
 />
    <glyph glyph-name="exclam" unicode="!" horiz-adv-x="411" 
d="M106 485l-40 949h280l-41 -949h-199zM360 154q0 -64 -45 -110t-108 -46q-65 0 -110.5 46t-45.5 110q0 63 46 108t110 45q63 0 108 -45t45 -108z" />
    <glyph glyph-name="quotedbl" unicode="&#x22;" horiz-adv-x="724" 
d="M43 950l45 484h254l-104 -484h-195zM385 950l45 484h254l-104 -484h-195z" />
    <glyph glyph-name="numbersign" unicode="#" horiz-adv-x="1028" 
d="M391 1434l-29 -396h353l28 396h150l-29 -396h121v-149h-131l-27 -344h123v-150h-133l-29 -395h-149l29 395h-353l-28 -395h-148l29 395h-125v150h135l25 344h-127v149h137l29 396h149zM328 545h352l25 344h-353z" />
    <glyph glyph-name="dollar" unicode="$" horiz-adv-x="864" 
d="M381 -141v133q-39 6 -77 19.5t-88 50t-86.5 90t-62.5 146t-26 210.5h262q-1 -5 -1.5 -13t0 -31t3.5 -44t11.5 -47t22 -44.5t38 -31t55.5 -12.5q122 0 119 162v6q-1 2 0.5 13t-2.5 32.5t-10.5 43t-23.5 44t-42 35.5l-229 124q-61 27 -104.5 73.5t-61.5 92.5t-27 88t-9 69
l1 26q0 69 17 126.5t54 107t105 80t162 36.5v131h102v-133q27 -3 54.5 -10.5t63.5 -24t66.5 -40.5t61 -63.5t51.5 -88.5t32.5 -120.5t8.5 -156.5l-260 2q0 5 0.5 13t-0.5 31t-5 44t-13 47t-23 44.5t-37.5 31t-54.5 12.5q-19 0 -36 -5t-39.5 -20.5t-36 -52t-13.5 -90.5
q1 -2 -0.5 -12t3 -30t11 -40t24 -41t42.5 -34l192 -105q69 -32 119 -78t72.5 -89.5t35.5 -82.5t14 -63l1 -23q0 -81 -19 -150t-57.5 -125.5t-104.5 -91.5t-153 -42v-129h-102z" />
    <glyph glyph-name="percent" unicode="%" horiz-adv-x="1019" 
d="M532 707l259 727h190l-369 -727h-80zM512 1147v-123q0 -146 -72 -223q-55 -58 -147 -58h-2q-46 0 -83.5 16t-59.5 38t-38.5 56t-23 58t-10.5 56.5t-4 39v17.5v123v17.5t4 38.5t10.5 55.5t23 57.5t38.5 55.5t59.5 37.5t83.5 16h2q46 0 83 -15t59 -37t38.5 -53.5
t23.5 -56.5t11 -55t4 -40.5v-19.5v-1zM293 911q35 1 51.5 23t15.5 44v21v170q0 4 0.5 10t-2 21.5t-8 27t-20.5 21.5t-37 11q-22 -1 -37 -10.5t-21 -22.5t-8.5 -26.5t-2.5 -22.5l1 -9v-170q0 -3 -0.5 -9t2 -21t8.5 -26.5t21 -21t37 -10.5zM492 727l-261 -727h-188l367 727h82
zM950 401v-122v-17.5t-4 -39t-10.5 -56.5t-23 -58t-38.5 -56t-59.5 -38t-83.5 -16h-2q-47 0 -84 16.5t-59.5 37.5t-38.5 56t-23 57.5t-10.5 57t-3.5 39v17.5v122v19t4 40.5t11 55t23 57t38.5 54t59.5 38t83 15.5h2q46 0 83.5 -16t59.5 -38t38.5 -56t23 -57.5t10.5 -56t4 -39
v-16.5zM729 166q22 0 37 9t21 22t8.5 26t2.5 22l-1 9v170q0 3 0.5 9t-2 21t-8.5 26.5t-21 21t-37 10.5q-35 -1 -51.5 -23t-15.5 -43v-22v-170q0 -4 -0.5 -9.5t2 -21t8 -27t20.5 -21t37 -9.5z" />
    <glyph glyph-name="ampersand" unicode="&#x26;" horiz-adv-x="983" 
d="M557 944h262v-145h121v-178h-121v-129q-2 -106 -24.5 -191.5t-57 -137t-76 -89t-82.5 -53.5t-75 -25t-55 -10h-21q-101 -1 -177.5 32t-120.5 92t-65.5 131t-21.5 156q2 3 -0.5 21t3.5 55.5t15.5 76t35.5 83.5t63 78q-37 33 -63 77t-36 84t-15 75t-4 56l1 21
q0 84 20.5 153.5t67 129t132.5 93.5t206 34h190v-279h-190q-45 0 -78 -16t-48 -35.5t-23.5 -47.5t-9.5 -41t-1 -28q0 -4 0.5 -10.5t2.5 -26.5t6 -37.5t13 -39t21 -37.5t32 -26.5t44 -10.5h129v145zM559 621h-131q-33 0 -57.5 -17.5t-36 -42t-18 -49t-6.5 -42.5l-1 -17
q0 -76 18 -112q29 -56 99 -56q36 0 62.5 16.5t40 39.5t21 53.5t9 52.5t0.5 42v132z" />
    <glyph glyph-name="quotesingle" unicode="'" horiz-adv-x="382" 
d="M43 950l45 484h254l-104 -484h-195z" />
    <glyph glyph-name="parenleft" unicode="(" horiz-adv-x="530" 
d="M41 221v991h2q0 217 115.5 330t324.5 113h6v-139q-33 0 -63.5 -4t-75 -22t-76 -49t-54.5 -91.5t-23 -143.5v-970q0 -60 12.5 -108t30.5 -78t46 -52t52 -32.5t57 -16.5t51 -7t43 -1v-162h-6q-211 0 -326.5 112t-115.5 330z" />
    <glyph glyph-name="parenright" unicode=")" horiz-adv-x="530" 
d="M489 221q0 -218 -115.5 -330t-326.5 -112h-6v162q25 0 42.5 1t50.5 7t56.5 16.5t52 32.5t46.5 52t30.5 78t12.5 108v970q0 60 -12 108.5t-31 80t-46 55.5t-52.5 36t-56 19.5t-51 9t-42.5 1.5v139h6q209 0 324.5 -113t115.5 -330h2v-991z" />
    <glyph glyph-name="asterisk" unicode="*" horiz-adv-x="765" 
d="M324 1163l-19 271h150l-19 -279l182 211l107 -106l-270 -236l270 -236l-107 -104l-182 209l19 -275h-150l19 267l-174 -201l-107 104l270 236l-270 236l107 106z" />
    <glyph glyph-name="plus" unicode="+" horiz-adv-x="905" 
d="M41 772h352v336h150v-336h321v-149h-321v-336h-150v336h-352v149z" />
    <glyph glyph-name="comma" unicode="," horiz-adv-x="382" 
d="M43 -213l45 483h254l-104 -483h-195z" />
    <glyph glyph-name="hyphen" unicode="-" horiz-adv-x="589" 
d="M41 791h508v-148h-508v148z" />
    <glyph glyph-name="period" unicode="." horiz-adv-x="391" 
d="M350 154q0 -63 -45.5 -108.5t-109.5 -45.5q-63 0 -108.5 45.5t-45.5 108.5q0 64 45.5 109.5t108.5 45.5q65 0 110 -45.5t45 -109.5z" />
    <glyph glyph-name="slash" unicode="/" horiz-adv-x="671" 
d="M631 1434l-441 -1434h-149l440 1434h150z" />
    <glyph glyph-name="zero" unicode="0" 
d="M843 940v-446q0 -79 -13.5 -151t-44 -138t-76.5 -114t-115 -76.5t-155 -28.5q-83 0 -150 27.5t-107.5 68t-70 98t-42.5 104t-20 100t-7 73.5v36v1v446q0 226 98 363q104 145 299 145h2h2q84 0 151 -28t107.5 -68t70.5 -97.5t43 -104.5t20 -100.5t7.5 -73t0.5 -35.5v-1z
M318 555l246 444q1 18 -1.5 38t-12.5 49t-38 48.5t-71 20.5q-39 -1 -66.5 -18t-38 -41t-15.5 -47t-4 -39l1 -17v-438zM441 279q39 1 66.5 18t38 40.5t15.5 47t4 39.5l-1 16v441l-246 -447q-1 -18 1.5 -38t12.5 -48.5t38 -48t71 -20.5z" />
    <glyph glyph-name="one" unicode="1" horiz-adv-x="552" 
d="M231 0v1237l-77 -147h-111l178 344h289v-1434h-279z" />
    <glyph glyph-name="two" unicode="2" horiz-adv-x="864" 
d="M289 731l192 105q39 20 59 59t20 67l1 29q0 54 -13.5 90.5t-36 52t-39.5 20.5t-36 5q-42 0 -71 -23t-40.5 -55.5t-17.5 -65.5t-5 -56l1 -23h-260q-3 85 8.5 156.5t33.5 120.5t51.5 88.5t62.5 63t66 40t63.5 23.5t54 10.5t37.5 3.5h14q109 0 187 -28.5t120 -79t61 -110
t19 -132.5q0 -5 0.5 -14.5t-2 -37.5t-8 -55.5t-20 -64t-35 -67.5t-55.5 -61.5t-80 -50.5l-230 -123q-39 -21 -58.5 -63t-19.5 -74v-32v-150q4 0 254 -1t254 -1v-297h-772l-2 393q0 5 0.5 13t5 34t12.5 51t26 59.5t42.5 64.5t65 61.5t90.5 54.5z" />
    <glyph glyph-name="three" unicode="3" horiz-adv-x="868" 
d="M43 512h264q-1 -9 -2 -24t3.5 -54t15.5 -68.5t40.5 -54t73.5 -24.5q122 0 119 165v5q0 4 -0.5 10t-2.5 23.5t-6 33.5t-13 35.5t-21 34t-32 24t-44 9.5h-110v180h110q33 0 57.5 17.5t36 42.5t18 50t6.5 43l1 17q0 77 -19 114q-31 55 -100 56q-44 0 -73.5 -23t-40.5 -56.5
t-15.5 -66.5t-2.5 -56l1 -23h-264q-2 111 18 200t55 143t77.5 92.5t85.5 55.5t78.5 26t58.5 9h22q101 1 177.5 -32.5t121 -93t66.5 -132t22 -156.5q0 -12 -0.5 -31.5t-7 -69t-20 -88t-43.5 -69.5t-72 -31q-3 0 -7 -1t-8.5 -6t-4.5 -13v-3v-3t0.5 -3.5t1 -3.5t2 -3t3.5 -3.5
t5.5 -2.5t7.5 -1q42 0 72 -31t43 -75t20.5 -88.5t7.5 -75.5v-31q0 -85 -22 -157.5t-66.5 -132t-121 -93t-177.5 -32.5q-9 0 -23.5 0.5t-57 9t-81 25.5t-85 55.5t-79 92.5t-53 143t-16.5 200z" />
    <glyph glyph-name="four" unicode="4" horiz-adv-x="1034" 
d="M809 1434v-959h162v-184h-162v-291h-279v291h-489v184l117 959h278l-114 -959h208v959h279z" />
    <glyph glyph-name="five" unicode="5" horiz-adv-x="864" 
d="M420 750q-11 0 -20.5 -0.5t-30 -6.5t-35 -16.5t-26 -33.5t-11.5 -54h-250l2 803h731v-260q-4 0 -233.5 -1t-233.5 -1l2 -303q0 -18 2 -21t17 2q87 47 155 47q74 0 132 -26t92 -67.5t58 -91.5t33.5 -100.5t14 -92t3.5 -67.5l-1 -26q0 -33 -3 -65.5t-13 -78t-26 -85
t-46 -80t-69 -69t-98.5 -46.5t-131.5 -18h-23.5t-56.5 8t-80 24t-84 53.5t-78 89t-52.5 137.5t-16.5 194h260q2 -2 -0.5 -23.5t4.5 -55.5t17.5 -66t40 -55.5t71.5 -23.5q16 0 28 2t31.5 15.5t32.5 36.5t23 70.5t10 113.5v26t-6.5 57t-19 72.5t-42.5 57t-73 25.5z" />
    <glyph glyph-name="six" unicode="6" horiz-adv-x="866" 
d="M41 477l4 524q0 76 12.5 139.5t41 120t72.5 95.5t110 61.5t151 22.5h21.5t52.5 -6.5t75 -19t80.5 -40.5t77.5 -67t57 -104t27 -146l-260 -39q0 6 -1 15.5t-9 33.5t-20.5 43t-39.5 34t-63 15q-117 0 -117 -225v-57q0 -17 3 -20.5t18 3.5q89 47 155 47q58 0 106 -16
t81 -43.5t58.5 -63t40.5 -75t25 -78.5t13.5 -74.5t5 -63t1.5 -43.5l-1 -16q0 -33 -3 -66t-13 -79t-26 -85.5t-46 -80t-69 -69t-98.5 -46.5t-131.5 -18h-22.5t-55.5 7.5t-78.5 23t-82.5 51t-77.5 85.5t-54 133t-20.5 187zM420 750q-8 0 -19 -3.5t-29 -17.5t-32.5 -36.5
t-25.5 -68t-11 -104.5v-25.5t2.5 -38.5t7 -49t14 -48t23 -44.5t35.5 -30t49 -12.5q16 0 28 2t32 15.5t33.5 37t23.5 71.5t10 114v26t-6.5 57t-19 72.5t-42.5 57t-73 25.5z" />
    <glyph glyph-name="seven" unicode="7" horiz-adv-x="788" 
d="M438 1182h-397v252h707l-322 -1434h-279l162 694q67 273 137 475q2 5 -1 9t-7 4z" />
    <glyph glyph-name="eight" unicode="8" horiz-adv-x="870" 
d="M430 -14q-101 -1 -177.5 32.5t-121 93t-66.5 132t-22 157.5v17t2 42t6.5 59.5t15 63.5t25.5 60t39 42t55 17q21 2 21 23q0 20 -21 20q-42 0 -72 30t-43 72.5t-20.5 84.5t-7.5 72v30q0 83 23.5 156.5t70 132.5t124.5 92.5t179 32.5q102 1 179 -32.5t121.5 -93t66.5 -132
t22 -156.5q0 -12 -0.5 -31.5t-7.5 -69t-20.5 -88t-44 -69.5t-72.5 -31q-3 0 -7 -1t-8.5 -6t-4.5 -13v-3v-3t0.5 -3.5t1 -3.5t2 -3t3.5 -3.5t5.5 -2.5t7.5 -1q42 0 72.5 -31t44 -75t20.5 -88.5t7 -75.5l1 -31q0 -84 -23.5 -157.5t-70.5 -132.5t-125.5 -92.5t-179.5 -32.5z
M430 807h10q33 0 57.5 17.5t36 42.5t18 50t6.5 43l1 17q0 77 -19 114q-31 55 -100 56q-36 0 -62.5 -16t-39 -35.5t-19 -48t-7.5 -42t-1 -28.5q0 -4 0.5 -10t2.5 -23.5t6 -33.5t13 -35.5t21 -34t32 -24t44 -9.5zM430 287q36 0 62.5 16t39 36t19 48.5t7.5 41.5t1 28
q0 4 -0.5 10t-2.5 23.5t-6 33.5t-13 35.5t-21 34t-32 24t-44 9.5h-10q-33 0 -57.5 -17.5t-36 -42.5t-18 -50t-6.5 -43l-1 -17v-5q-3 -165 119 -165z" />
    <glyph glyph-name="nine" unicode="9" horiz-adv-x="866" 
d="M823 866l-4 -321q-1 -95 -13.5 -175t-41 -151t-72 -120.5t-110 -78t-150.5 -28.5h-21.5t-52.5 6.5t-75 19t-80.5 40.5t-77.5 67t-57 104t-27 146l260 41q0 -6 1 -15.5t9 -34t20.5 -43t39.5 -34t63 -15.5q55 0 87 50.5t32 181.5v57q0 17 -3 21t-18 -2q-87 -47 -155 -47
q-74 0 -132 25.5t-92 66t-58 90t-33.5 99t-14 90t-3.5 66.5l1 25q0 33 3 65.5t13 78t26 85t46 80t69 69.5t98.5 47t131.5 18q8 1 22 0.5t55 -9.5t77.5 -27t82 -60t78 -100.5t54.5 -156.5t22 -221zM446 690q8 0 18.5 2.5t29.5 15t33 34t25 66t11 103.5q0 16 -1 30.5t-4 47
t-12 58.5t-22.5 53t-37.5 42t-56 15q-16 0 -28 -2t-31.5 -15t-32.5 -36.5t-23 -70.5t-10 -113v-24.5t6.5 -55.5t19 -70t42.5 -55t73 -25z" />
    <glyph glyph-name="colon" unicode=":" horiz-adv-x="391" 
d="M350 1024q0 -64 -45 -109t-110 -45q-63 0 -108.5 45t-45.5 109t45.5 109t108.5 45q65 0 110 -45t45 -109zM350 410q0 -64 -45 -109t-110 -45q-63 0 -108.5 45t-45.5 109t45.5 109.5t108.5 45.5q65 0 110 -45.5t45 -109.5z" />
    <glyph glyph-name="semicolon" unicode=";" horiz-adv-x="393" 
d="M350 1024q0 -64 -45 -109t-108 -45q-65 0 -110.5 45t-45.5 109t45.5 109t110.5 45q63 0 108 -45t45 -109zM47 82l45 483h254l-104 -483h-195z" />
    <glyph glyph-name="less" unicode="&#x3c;" horiz-adv-x="604" 
d="M43 836l520 301v-172l-424 -248l424 -246v-174l-520 301v238z" />
    <glyph glyph-name="equal" unicode="=" horiz-adv-x="712" 
d="M41 946h629v-147h-629v147zM41 637h629v-150h-629v150z" />
    <glyph glyph-name="greater" unicode="&#x3e;" horiz-adv-x="604" 
d="M43 1137l520 -301v-238l-520 -301v174l424 246l-424 248v172z" />
    <glyph glyph-name="question" unicode="?" horiz-adv-x="864" 
d="M47 674l404 149q33 12 56.5 34t33.5 44t15 43t5 34v13q0 54 -13.5 90.5t-36 52t-39.5 20.5t-36 5q-42 0 -71 -23t-40.5 -55.5t-17.5 -65.5t-5 -56l1 -23h-260q-3 85 8.5 156.5t33.5 120.5t51.5 88.5t62.5 63t66 40t63.5 23.5t54 10.5t37.5 3.5h14q109 0 187 -28.5
t120 -79t61 -110t19 -132.5q0 -5 0.5 -14.5t-2 -37.5t-8 -55.5t-20 -64t-35 -67.5t-55.5 -61.5t-80 -50.5l-308 -123v-133h-264zM360 154q0 -65 -45.5 -110.5t-109.5 -45.5q-63 0 -108.5 46t-45.5 110q0 63 45.5 108t108.5 45q64 0 109.5 -45t45.5 -108z" />
    <glyph glyph-name="at" unicode="@" horiz-adv-x="1382" 
d="M41 412q0 76 17.5 134.5t45 92t60.5 56t66.5 30.5t61 11t44.5 1l18 -2q53 -11 89.5 -39.5t50.5 -56t28 -58t25 -40.5q9 -9 14 -9q9 0 13 16t4 32v16v186q-1 6 -1 34.5t-3 46t-10 40.5t-25 35t-45 12h-12.5t-27.5 -6.5t-35 -20.5t-27.5 -45.5t-12.5 -76.5h-303
q0 90 24.5 161.5t63.5 113.5t86 71.5t94 41t86 17.5t64 5l24 -1q1 -4 19 0t48.5 -5.5t66.5 -20t72.5 -42t66 -73t48.5 -112.5t19 -160v-375v-12q-2 -281 109 -281q39 1 61.5 14t32 54t11 73t1.5 112v46v680q0 15 -1 28t-9.5 40.5t-23.5 47t-48 35t-78 15.5q-3 0 -317 1
t-317 1v158h634q123 0 207 -29t131.5 -86.5t67.5 -132t20 -176.5v-600q0 -84 -20.5 -153.5t-67 -129t-132.5 -93.5t-206 -34q-71 0 -127.5 12t-90.5 31.5t-59 43t-35.5 46.5t-16.5 42.5t-6 31.5v12q-1 70 -19 70q-2 0 -12 -10q-10 -15 -20 -53.5t-21 -76.5t-30 -76
t-56 -61.5t-90 -23.5q-154 0 -217.5 98.5t-71.5 325.5zM340 412v-11.5t5.5 -26.5t16 -33t35.5 -26t60 -12q67 0 94 33.5t27 71.5q-3 48 -37.5 80t-83.5 32h-13t-28 -5.5t-35.5 -15.5t-28 -32.5t-12.5 -54.5z" />
    <glyph glyph-name="A" unicode="A" horiz-adv-x="962" 
d="M231 1434h500l191 -1434h-291l-56 563h-188l-55 -563h-291zM481 1321l-84 -631h168z" />
    <glyph glyph-name="B" unicode="B" horiz-adv-x="905" 
d="M365 719q-1 -4 -0.5 -10.5t7.5 -17.5t23 -11h56q9 1 23.5 1.5t57.5 -3t82 -13t86.5 -34t82 -59.5t58 -96t23.5 -138q0 -50 -7.5 -92.5t-20.5 -73.5t-31 -57.5t-39.5 -43.5t-46.5 -30.5t-50.5 -20t-52 -12t-52 -6.5t-49.5 -2t-44 0h-20h-410v1434h354q9 1 23.5 1.5t57 -3
t81.5 -13t86 -33.5t81 -59.5t57.5 -95.5t23.5 -137q0 -65 -13 -116.5t-31 -85.5t-50 -59t-58 -38t-68.5 -22t-66 -11t-67 -4.5t-56.5 -3.5q-3 0 -8 -1t-13.5 -9.5t-8.5 -24.5zM342 1200h-4v-348h4l10 -1q9 -1 19 -1t25.5 1t30 5.5t30.5 11.5t29 21t23.5 31.5t16.5 45t6 60.5
q0 53 -19.5 90.5t-47.5 53t-56 23.5t-47 7h-20zM324 250h65q191 0 191 174q0 45 -19.5 77.5t-48 47.5t-56.5 23t-48 9l-19 1h-65v-332z" />
    <glyph glyph-name="C" unicode="C" 
d="M42 494v446q0 226 98 363q104 145 299 145q5 0 13.5 0.5t34.5 -2t52 -8.5t61 -21t65.5 -36.5t62 -59t55 -84.5t39.5 -116.5t19 -151.5v-115l-269 -6q2 130 2 153q-1 25 -6.5 48t-18.5 49t-40 41.5t-64 15.5q-30 0 -53 -9t-36 -23t-22 -31.5t-12 -35t-4 -31.5t-1 -23l1 -9
v-553q0 -3 -0.5 -9t0.5 -22.5t4 -31.5t12 -33.5t22 -31.5t36 -22t53 -9q123 0 129 159l-2 146l269 -6v-105q-2 -84 -17.5 -154.5t-39 -118.5t-54 -86.5t-63 -60.5t-65.5 -37.5t-62 -21.5t-51.5 -8.5t-35.5 -1.5h-14q-83 0 -150 27.5t-107.5 68t-70 98t-42.5 104t-20 100
t-7 73.5v36v1z" />
    <glyph glyph-name="D" unicode="D" horiz-adv-x="874" 
d="M571 436v572q-11 149 -127 149h-125v-878h125q121 0 127 157zM831 965v-480v-4q-2 -82 -17 -151.5t-38.5 -116.5t-53 -84.5t-61.5 -59t-64 -37t-60.5 -21t-50.5 -8t-35 -1.5h-13l-397 -2v1434h278h119q5 0 13 0.5t34 -2t51 -8.5t59 -20.5t64 -36t61 -58t53.5 -82.5
t38.5 -113.5t19 -148.5z" />
    <glyph glyph-name="E" unicode="E" horiz-adv-x="854" 
d="M41 1434h772v-275h-494v-373h412v-139h-412v-373h494v-274h-772v1434z" />
    <glyph glyph-name="F" unicode="F" horiz-adv-x="854" 
d="M41 1434h772v-275h-494v-373h412v-137h-412v-649h-278v1434z" />
    <glyph glyph-name="G" unicode="G" horiz-adv-x="909" 
d="M577 590l-123 -2v137l381 2v-344l32 -383h-127l-30 309q-1 27 -15 29q-8 1 -12.5 -5.5t-5.5 -12.5v-7q0 -72 -16 -129.5t-41 -91t-55.5 -57.5t-61.5 -33.5t-56 -14t-41 -3.5h-16q-73 0 -131 25.5t-93.5 61.5t-61.5 92.5t-38 100t-18.5 103.5t-7 83.5t-0.5 59.5v444v8
q0 31 0.5 54.5t8 77.5t21 95t42.5 92t69.5 84.5t106 57t147.5 23.5q5 0 13.5 0.5t34.5 -2t51.5 -8t60.5 -20.5t65.5 -36t62 -57t54.5 -81.5t39 -112t19 -146.5v-113l-258 -4v148q-1 31 -12.5 62.5t-44 59t-79.5 27.5q-41 0 -70 -16t-40.5 -39.5t-17.5 -46.5t-6 -39l1 -16
v-547q0 -6 0.5 -16.5t7 -37.5t18.5 -47.5t40 -37.5t67 -17q136 0 136 156v131z" />
    <glyph glyph-name="H" unicode="H" horiz-adv-x="874" 
d="M41 1434h278v-646h234v646h281v-1434h-281v647h-234v-647h-278v1434z" />
    <glyph glyph-name="I" unicode="I" horiz-adv-x="362" 
d="M41 0v1434h278v-1434h-278z" />
    <glyph glyph-name="J" unicode="J" horiz-adv-x="530" 
d="M432 1434h57v-947q0 -31 -3 -67t-19 -103.5t-43 -122.5t-83 -107t-132 -73q-58 -14 -162 -14h-6v305q34 0 58.5 4.5t52 19t42.5 47t15 81.5v835h-113v142h336z" />
    <glyph glyph-name="K" unicode="K" horiz-adv-x="999" 
d="M430 823q41 0 70 23.5t41.5 57t19 67t6.5 57.5v23v383h283v-353q0 -306 -375 -299q-14 2 -15.5 -1t5.5 -13l493 -766h-335l-320 578v-580h-262v1434h262v-390q0 -43 4.5 -77t16.5 -69.5t39 -55t67 -19.5z" />
    <glyph glyph-name="L" unicode="L" horiz-adv-x="612" 
d="M41 1434h278v-1176h252v-258h-530v1434z" />
    <glyph glyph-name="M" unicode="M" horiz-adv-x="1067" 
d="M684 1434h340v-1434h-279v985l-135 -985h-172l-123 985l4 -985h-278v1434h334l149 -1170z" />
    <glyph glyph-name="N" unicode="N" horiz-adv-x="864" 
d="M567 522l-22 912h278v-1434h-303l-176 954q-4 11 -12 11q-13 0 -13 -11v-954h-278v1434h324l178 -914q0 -10 12 -10t12 12z" />
    <glyph glyph-name="O" unicode="O" 
d="M441 279q39 1 66.5 18t38 40.5t15.5 47t4 39.5l-1 16v553q1 6 1 17t-4.5 38.5t-15 48.5t-38 39t-66.5 19q-39 -1 -66.5 -18t-38 -41t-15.5 -47t-4 -39l1 -17v-553q0 -3 -0.5 -9t0.5 -22t4 -31t11.5 -33.5t21.5 -32t35 -23t51 -10.5zM841 940v-446q0 -218 -93 -355
q-104 -153 -305 -153h-2h-2q-97 0 -171 34.5t-114.5 93.5t-67 116t-35 123.5t-10 93t-1.5 46.5v1v446q0 210 89 347q104 161 310 161h2h2q84 0 150.5 -28t107.5 -68t70.5 -97.5t42.5 -104t19.5 -100t7 -73.5t0.5 -36v-1z" />
    <glyph glyph-name="P" unicode="P" horiz-adv-x="847" 
d="M41 1434h354q9 0 23.5 -0.5t57 -8t81.5 -21t86 -43t81 -69.5t57.5 -106t23.5 -148q0 -92 -20 -167t-50 -123t-72 -83.5t-79.5 -53.5t-80 -29t-65.5 -13t-43 -2h-71v-567h-283v1434zM338 831h4l10 -1q9 -1 19 -1t25.5 1t30 6t30.5 12t28.5 20.5t23.5 31.5t17 45.5t6 60.5
q0 53 -19.5 90.5t-47.5 53t-56 23.5t-47 7h-20h-4v-349z" />
    <glyph glyph-name="Q" unicode="Q" horiz-adv-x="860" 
d="M819 952v-463q0 -96 -21.5 -181.5t-66 -156.5t-121.5 -113t-178 -42h-4q-59 0 -115 16q28 -24 74.5 -37t79.5 -13l33 -1h219v-280h-189q-303 0 -297 366q-183 121 -190 416l-2 489q0 186 76 318q101 176 313 176q247 0 342 -233q48 -118 47 -261zM430 281q38 1 64.5 16.5
t37.5 40t15 44.5t4 40v582q0 6 -1 16.5t-8 37t-18.5 47t-36 37t-57.5 17.5q-36 0 -61.5 -16t-36.5 -38.5t-16.5 -45.5t-5.5 -39l1 -16l-2 -582q7 -139 121 -141z" />
    <glyph glyph-name="R" unicode="R" horiz-adv-x="849" 
d="M326 653v-653h-285l2 1434h354q9 0 23.5 -0.5t57 -8t81.5 -21t86 -43t81 -69.5t57.5 -106t23.5 -148t-16 -147t-39 -102t-53 -63t-51.5 -35t-41.5 -13q-10 -3 -10 -12q0 -15 2 -21l209 -645h-315l-142 653q-4 11 -14 11t-10 -11zM344 1180h-4v-349h4l10 -1q9 -1 19 -1
t25 1t29.5 6t30 12t28.5 20.5t23.5 31.5t16.5 45.5t6 60.5q0 53 -19.5 90.5t-47 53t-55 23.5t-46.5 7h-20z" />
    <glyph glyph-name="S" unicode="S" horiz-adv-x="882" 
d="M580 733q68 -32 118 -78t72 -89.5t34.5 -82.5t13.5 -63l1 -23q0 -87 -21.5 -159.5t-66 -130.5t-120 -90t-175.5 -31q-8 0 -22 0.5t-55 9.5t-77.5 26t-82 55.5t-78 91.5t-54.5 141t-22 198h260q-1 -9 -1.5 -24t4 -53.5t15.5 -68t40.5 -53.5t72.5 -24q120 0 117 162v6
q0 5 0.5 13.5t-2 32t-9.5 43.5t-23.5 43t-41.5 36l-229 124q-61 27 -104.5 73.5t-62 92.5t-28 88t-9.5 69l1 26q0 73 19 133t61.5 111t120.5 79.5t186 28.5h23.5t56.5 -8.5t80 -24.5t84 -53t78 -89t52.5 -138.5t16.5 -194.5l-260 2q1 9 1.5 24t-4.5 53.5t-17 68t-41 53.5
t-72 24q-18 0 -35 -5t-39.5 -20.5t-36.5 -52t-14 -90.5q1 -2 -0.5 -12t3 -30t11 -40t24 -41t42.5 -34z" />
    <glyph glyph-name="T" unicode="T" horiz-adv-x="837" 
d="M41 1434h754v-293h-238v-1141h-278v1141h-238v293z" />
    <glyph glyph-name="U" unicode="U" horiz-adv-x="868" 
d="M825 1434v-951q0 -225 -100 -360q-102 -137 -291 -137h-2q-248 0 -344 234q-47 116 -47 263v951h272v-1002q0 -3 -0.5 -8.5t0.5 -22t4 -31.5t11.5 -33t21 -31t34.5 -22.5t50 -9.5q38 1 65 17.5t37.5 39.5t15.5 46t4 39l-1 16v1002h270z" />
    <glyph glyph-name="V" unicode="V" horiz-adv-x="868" 
d="M453 457l94 977h278l-176 -1434h-438l-170 1434h278l95 -977q3 -17 20 -17q16 0 19 17z" />
    <glyph glyph-name="W" unicode="W" horiz-adv-x="1386" 
d="M682 514l-72 -514h-358l-211 1434h281l94 -975q3 -17 20 -17q16 0 19 17l94 975h287l96 -975q0 -17 18 -17q16 0 19 17l94 975h280l-219 -1434h-358l-64 514q-4 8 -10 8t-10 -8z" />
    <glyph glyph-name="X" unicode="X" horiz-adv-x="880" 
d="M655 723l183 -723h-285l-100 608q-3 10 -13 10q-11 0 -14 -10l-100 -608h-285l180 723l-176 711h285l96 -549q4 -11 12 -11q15 0 15 11l96 549h285z" />
    <glyph glyph-name="Y" unicode="Y" horiz-adv-x="868" 
d="M295 471l-254 963h278l97 -490q0 -16 18 -16q19 0 19 16l94 490h280l-254 -963v-471h-278v471z" />
    <glyph glyph-name="Z" unicode="Z" horiz-adv-x="915" 
d="M858 0h-817l2 449q0 80 22.5 139t60.5 94.5t97 57t121.5 29t144.5 7.5q39 0 68 20t42.5 49t21 57.5t7.5 48.5l1 20v170l-563 -2v295h808v-412v2q-2 -89 -27 -155t-64 -104.5t-98.5 -62t-119.5 -31t-137 -7.5q-3 0 -7.5 0.5t-17.5 -1.5t-24.5 -6.5t-26 -16t-25 -28.5
t-17.5 -46t-7 -66v-203h555v-297z" />
    <glyph glyph-name="bracketleft" unicode="[" horiz-adv-x="530" 
d="M41 1653l448 2v-150h-299v-1577h299v-147h-448v1872z" />
    <glyph glyph-name="backslash" unicode="\" horiz-adv-x="671" 
d="M481 0l-440 1434h149l441 -1434h-150z" />
    <glyph glyph-name="bracketright" unicode="]" horiz-adv-x="530" 
d="M41 1655l448 -2l-2 -148v-1724h-446v147h299v1577h-299v150z" />
    <glyph glyph-name="asciicircum" unicode="^" horiz-adv-x="923" 
d="M41 911l303 523h236l303 -523h-174l-248 426l-246 -426h-174z" />
    <glyph glyph-name="underscore" unicode="_" horiz-adv-x="710" 
d="M41 0h629v-150h-629v150z" />
    <glyph glyph-name="a" unicode="a" horiz-adv-x="1036" 
d="M41 412q0 76 17.5 134.5t45 92t60.5 56t66.5 30.5t61 11t44.5 1l18 -2q53 -11 89.5 -39.5t50.5 -56t28 -58t25 -40.5q9 -9 14 -9q9 0 13 15.5t4 30.5v16v188q-1 7 -1.5 28.5t-1 36.5t-5.5 36t-13 34.5t-24.5 23t-38.5 9.5h-12.5t-27.5 -6.5t-35 -20.5t-27.5 -45.5
t-12.5 -76.5h-303q0 90 24.5 161.5t63.5 113.5t86 71.5t94 41t86 17.5t64 5l24 -1q1 -4 19 0t48.5 -5.5t66.5 -20t72.5 -42t66 -73t48.5 -112.5t19 -160v-439q0 -15 3 -36t10.5 -48t24.5 -45t40 -18q25 0 57 25q0 -7 -0.5 -18t-7 -42t-19 -57.5t-41 -55t-67.5 -43.5
q-56 -22 -106 -22q-49 0 -84.5 23t-52 55.5t-26 64.5t-10.5 55l-1 23q-1 70 -19 70q-2 0 -12 -10q-10 -15 -20 -53.5t-21 -76.5t-30 -76t-56 -61.5t-90 -23.5q-154 0 -217.5 98.5t-71.5 325.5zM340 412v-11.5t5.5 -26.5t16 -33t35.5 -26t60 -12q67 0 94 33.5t27 71.5
q-3 48 -37.5 80t-83.5 32h-13t-28 -5.5t-35.5 -15.5t-28 -32.5t-12.5 -54.5z" />
    <glyph glyph-name="b" unicode="b" horiz-adv-x="905" 
d="M571 1202q88 0 144 -27t89 -90.5t45.5 -154t12.5 -232.5v-194q0 -142 -12.5 -232.5t-45.5 -154t-89 -90.5t-144 -27q-61 0 -100.5 31.5t-52 69t-26 85.5t-23.5 64q-22 35 -33 35q-8 0 -11.5 -14t-2.5 -28v-14v-229h-281v1434h281v-461q-1 -45 24 -45q12 0 29 14
q16 13 27.5 46t21 68t24.5 69t46 55.5t77 21.5zM565 442v318q0 47 -35 94q-40 43 -86 43q-51 0 -86.5 -35.5t-35.5 -85.5v-350q0 -50 35.5 -85.5t86.5 -35.5q46 0 86 43q35 47 35 94z" />
    <glyph glyph-name="c" unicode="c" horiz-adv-x="862" 
d="M43 485v226q0 201 85 334q101 159 302 159q5 0 13.5 0.5t35 -2t52.5 -9t61 -22.5t65 -39t61 -62.5t52.5 -89.5t35 -122.5t13.5 -159.5l-260 -4q2 48 2 58q0 18 -1.5 35t-9 43t-20 44.5t-37.5 32t-59 13.5q-39 0 -66 -16.5t-37.5 -39.5t-16 -46t-4.5 -40l1 -16v-328
q2 -1 -0.5 -16.5t4 -39.5t16.5 -46.5t37 -39t66 -16.5q34 0 59 13.5t37.5 32t20 44.5t9 43t1.5 35l-2 58l260 -4q0 -87 -13.5 -159.5t-36 -122.5t-51.5 -89.5t-61.5 -62.5t-64.5 -39t-61 -22t-51.5 -9t-35.5 -2h-14q-246 0 -340 233q-47 116 -47 260z" />
    <glyph glyph-name="d" unicode="d" horiz-adv-x="1044" 
d="M461 305q28 0 49.5 7t34 17.5t21 23.5t11.5 26.5t4.5 24t0.5 17.5v7v348q0 50 -35 85.5t-86 35.5q-46 0 -86 -43q-35 -41 -35 -94v-318q0 -53 35 -94q32 -36 69 -41q6 -2 17 -2zM862 0q-57 -6 -103.5 3t-75 29t-49.5 45t-30.5 52t-15 49t-6.5 36v15l-4 36q-8 32 -25 7
l-2 -2q-10 -16 -23 -54.5t-26.5 -74t-34 -71.5t-54.5 -58t-79 -22q-88 0 -145 28.5t-90 94t-45.5 157.5t-12.5 234v194q0 142 12.5 232.5t45.5 154t89.5 90.5t145.5 27q40 0 82 -10q39 -10 62.5 -48.5t30 -80.5t15.5 -87t21 -61q28 -38 35 31l2 27v461h280v-1094
q0 -28 3 -53.5t12.5 -51t24 -38t40.5 -9t59 28.5q1 -8 1.5 -21.5t-4.5 -49t-17.5 -63.5t-43 -53t-75.5 -30z" />
    <glyph glyph-name="e" unicode="e" horiz-adv-x="876" 
d="M440 973q-24 0 -43 -9t-31 -21.5t-21 -35t-13 -39t-6 -44t-2.5 -41t0 -38.5t0.5 -28h237v61q0 36 -5.5 68t-18.5 62t-38 47.5t-59 17.5zM834 694v-119h-512v-135q0 -25 1 -42.5t6.5 -43t16 -42t30.5 -28.5t48 -12q5 -1 13 -0.5t28 9.5t35.5 28t28 62.5t12.5 105.5h282
q0 -105 -22.5 -189t-58.5 -133.5t-80 -85t-87.5 -49.5t-79.5 -21.5t-59 -6.5h-22h-21.5t-52 6t-74 19t-78.5 43.5t-74 72.5t-52 113t-21 160v335q0 79 14 145.5t38 111.5t54.5 81.5t64.5 57.5t68 36t64.5 20.5t54.5 8.5t38 2h14q69 0 126 -19.5t95.5 -51t68.5 -76t47 -90
t28 -97.5t14.5 -93.5t3.5 -82.5z" />
    <glyph glyph-name="f" unicode="f" horiz-adv-x="808" 
d="M309 1153h459v-145h-199q-18 0 -30.5 -12.5t-12.5 -30.5v-965h-299v965q0 17 -13 30t-30 13h-143v145h197v14q0 63 29 111.5t75.5 75.5t103 46t113.5 25t103.5 8t75.5 1l30 -2v-244q-111 43 -231 43q-94 0 -161 -24t-67 -54z" />
    <glyph glyph-name="g" unicode="g" horiz-adv-x="1013" 
d="M565 993q0 4 1 11.5t5.5 29.5t11.5 41.5t21 44t32 41.5t46.5 29t62.5 12q46 0 93 -16q39 -13 67 -39.5t40 -54.5t19 -54.5t7 -43.5v-17q-34 24 -58 24q-21 0 -36.5 -17.5t-23.5 -44.5t-11 -45.5t-4 -35.5v-795q0 -6 0.5 -16.5t-2 -42t-9 -62.5t-22 -73t-38.5 -78
t-62.5 -73t-89.5 -62.5t-123 -42t-160 -16.5q-8 0 -21.5 1t-51.5 7t-70.5 15t-69.5 26.5t-58 40.5l5 299q3 -4 9.5 -9.5t31 -20.5t54 -26t81.5 -19.5t112 -6.5q46 1 82.5 15.5t58 36t37 47.5t21.5 52t9.5 47.5t3.5 34.5l-1 13v69q-1 6 -2 14.5t-5 30.5t-10 25.5t-16 -0.5
q-8 -8 -8.5 -36t-1 -62t-7.5 -70t-34 -67.5t-75 -47.5q-25 -8 -80 -8q-69 0 -117 17.5t-80.5 52t-51 94.5t-26.5 136.5t-8 186.5v187q0 110 7.5 190.5t26.5 147.5t51 107.5t81 62.5t117 22q54 0 90.5 -21.5t54.5 -57t28.5 -71t20 -73t19.5 -53.5q8 -8 10 -8q6 0 10 19t5 37z
M565 410v338q0 45 -12 78t-29 47.5t-34 22.5t-29 8l-12 1q-117 0 -117 -172v-309q0 -63 32 -97t85 -34q49 0 82.5 34.5t33.5 82.5z" />
    <glyph glyph-name="h" unicode="h" horiz-adv-x="905" 
d="M571 1202q88 0 144 -27t89 -90.5t45.5 -154.5t12.5 -234v-696h-297v760q0 47 -35 94q-40 43 -86 43q-51 0 -86.5 -35.5t-35.5 -85.5v-776h-281v1434h281v-461q-1 -45 24 -45q12 0 29 14q19 15 34 60.5t26 88t45.5 77t90.5 34.5z" />
    <glyph glyph-name="i" unicode="i" horiz-adv-x="391" 
d="M55 0v1204h281v-1204h-281zM350 1430q0 -65 -45.5 -110.5t-109.5 -45.5q-63 0 -108.5 46t-45.5 110q0 63 45.5 108t108.5 45q64 0 109.5 -45t45.5 -108z" />
    <glyph glyph-name="j" unicode="j" horiz-adv-x="526" 
d="M334 1278q-63 0 -107.5 44.5t-44.5 107.5t44.5 107t107.5 44t107 -44t44 -107t-44 -107.5t-107 -44.5zM43 -227q23 -41 63 -41q31 0 54 23.5t22 60.5v1388h283v-1358v-18t-4.5 -43.5t-13 -61.5t-29.5 -63.5t-50 -58t-77 -38t-109 -9.5q-45 3 -76 26.5t-43 55t-17.5 63
t-3.5 53.5z" />
    <glyph glyph-name="k" unicode="k" horiz-adv-x="989" 
d="M430 645q41 0 70 23.5t41.5 56.5t19 66.5t6.5 56.5v24v332h283v-301q0 -61 -15.5 -109.5t-38.5 -79.5t-58 -53t-66.5 -33t-72.5 -17t-66.5 -7t-57.5 0q-14 0 -15.5 -2.5t5.5 -11.5l483 -590h-336l-309 399v-399h-262v1434h262v-568q0 -44 4.5 -78t16.5 -69t39 -54.5
t67 -19.5z" />
    <glyph glyph-name="l" unicode="l" horiz-adv-x="505" 
d="M463 221q0 -4 0.5 -11.5t0 -29.5t-4 -42t-13 -44.5t-24 -43t-40 -32.5t-58.5 -16q-60 -4 -108 10t-77 40t-50 58t-30 65t-13.5 60t-4.5 45v17v1137h283v-1088v-82q0 -39 26 -63t59.5 -19.5t53.5 39.5z" />
    <glyph glyph-name="m" unicode="m" horiz-adv-x="1427" 
d="M1094 1202q70 0 120 -18t83.5 -54.5t53 -98.5t27.5 -141t8 -192v-698h-299v762q0 52 -34.5 93.5t-85.5 41.5t-86 -35.5t-35 -85.5v-776h-283v786q-8 44 -42 77.5t-77 33.5q-49 0 -84.5 -35.5t-35.5 -85.5v-776h-281v1204h281v-231q-1 -45 24 -45q10 0 27 14q19 15 34 60
t26 87t43.5 76.5t84.5 36.5q129 0 194.5 -54t88.5 -181q0 -14 6 -26.5t18 -12.5q10 0 27 14q16 13 28 46t22 68t25 69t46 55.5t76 21.5z" />
    <glyph glyph-name="n" unicode="n" horiz-adv-x="907" 
d="M573 1204q171 0 232 -112t61 -394v-698h-299v762q0 47 -35 94q-38 41 -86 41q-51 0 -86.5 -35t-35.5 -86v-776h-281v1204h281v-231q0 -3 0.5 -7.5t3 -15t7.5 -16.5t16 -5t26 13q18 16 33 62t26.5 88.5t46 77t90.5 34.5z" />
    <glyph glyph-name="o" unicode="o" horiz-adv-x="862" 
d="M437 293q38 1 65 17.5t37.5 39.5t15.5 46t4 39l-1 16v305q-2 1 0.5 16t-3.5 38.5t-16 46t-37 39t-65 17.5q-39 -1 -66 -17t-37.5 -39t-16 -46t-4.5 -39l1 -16v-305q2 -1 -0.5 -16t4 -39t16.5 -46.5t37 -39t66 -17.5zM830 713v-219q0 -209 -89 -344q-102 -156 -304 -156
h-2q-82 0 -148 27.5t-106 67t-69 95.5t-41.5 102t-19.5 99t-7 72.5v35.5v1v219q0 225 100 361q101 138 291 138h2q65 0 119.5 -17t92.5 -43t69 -64.5t49.5 -75.5t31.5 -82t19 -77t9 -68t3 -48v-23v-1z" />
    <glyph glyph-name="p" unicode="p" horiz-adv-x="907" 
d="M43 -236v1442h281v-237q-4 -54 12 -54q14 0 35 35q9 15 18.5 49.5t19.5 67t27.5 65t52 52.5t84.5 20q70 0 119.5 -18.5t83.5 -55t53 -99.5t27 -143t8 -194v-192q0 -143 -12.5 -234t-45.5 -154t-89 -89.5t-144 -26.5q-46 0 -77 21.5t-46 55.5t-24.5 69t-21 68t-27.5 46
q-17 14 -29 14q-11 0 -17 -11t-7 -23v-11v-463h-281zM567 438v320q0 52 -35 93.5t-86 41.5t-86.5 -35t-35.5 -86v-348q0 -51 35.5 -86t86.5 -35t86 41.5t35 93.5z" />
    <glyph glyph-name="q" unicode="q" horiz-adv-x="907" 
d="M43 502v192q0 114 8 194t27.5 143t53.5 100t84 56t120 19q50 0 84.5 -20t51.5 -53t27.5 -66t19.5 -67.5t18 -49.5q21 -35 34 -35q7 0 10.5 13.5t2.5 27.5v13v237h280v-1442h-280v463q0 45 -25 45q-10 0 -27 -14q-16 -13 -27.5 -46t-21.5 -68t-25 -69t-46 -55.5t-76 -21.5
q-171 0 -232 111.5t-61 392.5zM342 438q0 -52 35 -93.5t86 -41.5t86 35t35 86v348q0 51 -35 86t-86 35t-86 -41.5t-35 -93.5v-320z" />
    <glyph glyph-name="r" unicode="r" horiz-adv-x="890" 
d="M850 940l-285 -207v29q0 52 -35 93.5t-86 41.5t-85.5 -35.5t-34.5 -85.5v-776h-283v1204h283v-231q-1 -45 24 -45q10 0 27 14q16 13 27.5 46t21.5 68t25 69t46 55.5t76 21.5q130 0 193.5 -60.5t85.5 -201.5z" />
    <glyph glyph-name="s" unicode="s" horiz-adv-x="874" 
d="M567 621q79 -37 135 -82t79.5 -83t35 -70.5t11.5 -51.5l-1 -19q0 -329 -389 -323q-8 0 -22.5 0.5t-55.5 9.5t-78 26.5t-83 56.5t-78.5 92.5t-55 142.5t-22.5 200h262q-1 -11 -1.5 -28.5t4 -63t16 -80.5t41 -63.5t73.5 -28.5q32 0 56 11t35.5 25t18.5 33t8 30t1 22
q0 4 -0.5 10t-4.5 23.5t-11 33t-23.5 33.5t-38.5 29l-231 127q-62 27 -106 69.5t-62 83t-28 77t-10 59.5l1 22q0 31 11 64t39.5 70t71.5 65.5t112.5 47.5t156.5 19h23.5t57.5 -8.5t81.5 -24.5t85 -53.5t79 -90t53.5 -140t17 -197.5l-264 2q1 11 1.5 28.5t-4.5 63t-17 80
t-41 63t-72 28.5q-18 0 -36.5 -3.5t-42 -13.5t-38 -33t-14.5 -57q0 -4 -0.5 -10t1.5 -24t8 -33.5t21.5 -33t37.5 -28.5z" />
    <glyph glyph-name="t" unicode="t" horiz-adv-x="743" 
d="M700 1063h-237v-623q-1 -7 -0.5 -18t11.5 -39.5t32.5 -50.5t72 -40t121.5 -18v-272q-7 -1 -18.5 -1t-48 1t-71.5 6t-82.5 17t-88.5 30.5t-83 51t-71.5 73.5t-48 102t-18.5 134v647h-129v141h72q28 0 49.5 4.5t35.5 11t23.5 21t14 25t6.5 34t1.5 38.5t-1 46.5t-0.5 49.5
h219v-189q0 -17 12 -29t29 -12h198v-141z" />
    <glyph glyph-name="u" unicode="u" horiz-adv-x="907" 
d="M334 0q-171 0 -232 112t-61 394v698h299v-762q0 -47 35 -94q38 -41 86 -41q51 0 87 35t36 86v776h280v-1204h-280v231q0 3 -0.5 7.5t-3.5 15t-8 16.5t-16 5t-26 -13q-19 -16 -34 -62t-26 -88.5t-45.5 -77t-90.5 -34.5z" />
    <glyph glyph-name="v" unicode="v" horiz-adv-x="880" 
d="M461 463l94 741h285l-219 -1204h-369l-209 1204h283l96 -741q3 -17 18 -17q18 0 21 17z" />
    <glyph glyph-name="w" unicode="w" horiz-adv-x="1400" 
d="M979 463l96 741h283l-217 -1204h-369l-57 412q-3 12 -15 12q-14 0 -14 -12l-65 -412h-369l-209 1204h283l96 -741q0 -17 18 -17q8 0 13.5 5t5.5 12l96 741h289l96 -741q3 -17 21 -17q15 0 18 17z" />
    <glyph glyph-name="x" unicode="x" horiz-adv-x="899" 
d="M670 586l186 -586h-291l-102 469q-3 10 -14 10q-13 0 -13 -10l-104 -469h-291l186 586l-182 618h291l100 -452q0 -9 13 -13q10 0 14 13l98 452h291z" />
    <glyph glyph-name="y" unicode="y" horiz-adv-x="890" 
d="M567 1204h283v-1202q0 -29 -4 -59t-17.5 -71.5t-35 -77.5t-61.5 -73.5t-92.5 -64t-132 -43t-175.5 -16.5q-8 0 -21.5 1t-51.5 7t-71 15t-70 26.5t-59 40.5l7 299q3 -4 9.5 -9.5t31 -20.5t54 -26t81.5 -19.5t112 -6.5q46 2 83 14t58.5 31t37 41t21.5 43.5t9 39.5t3 29
l-1 11h2v112q0 3 -0.5 7.5t-3 14.5t-7.5 15.5t-15.5 4.5t-24.5 -13q-15 -13 -26.5 -44.5t-21 -65.5t-24 -67t-44.5 -54t-74 -21q-166 0 -224.5 108t-58.5 382v712h289v-774q0 -49 33 -90q37 -43 84 -43q49 0 83.5 34.5t34.5 84.5v788z" />
    <glyph glyph-name="z" unicode="z" horiz-adv-x="929" 
d="M870 0h-829l2 362q0 81 23 140t61.5 94.5t98.5 56.5t123 28t147 7q41 0 70.5 13.5t42.5 32t20 37.5t7 33l1 13v111l-571 -2v278h821v-213q-2 -90 -27 -162t-66.5 -119.5t-99 -79.5t-122 -45.5t-138.5 -13.5q-5 1 -13.5 0.5t-30 -9t-38 -25.5t-30 -56.5t-13.5 -95.5v-104
h561v-281z" />
    <glyph glyph-name="bar" unicode="|" horiz-adv-x="233" 
d="M190 1573v-1712h-149v1712h149z" />
    <glyph glyph-name="exclamdown" unicode="&#xa1;" horiz-adv-x="391" 
d="M350 1030q0 -64 -45 -110t-108 -46q-65 0 -110.5 46t-45.5 110q0 63 46 108.5t110 45.5q63 0 108 -45.5t45 -108.5zM55 -252l41 948h199l41 -948h-281z" />
    <glyph glyph-name="cent" unicode="&#xa2;" horiz-adv-x="862" 
d="M43 485v226q0 213 92 346q87 126 244 143l-17 195h150l-18 -195q39 -6 77 -19.5t85 -49t81 -87.5t58 -142t24 -204l-260 -4q2 48 2 58q0 18 -1.5 35t-9 43t-20 44.5t-37.5 32t-59 13.5q-39 0 -66 -16t-37.5 -39t-16 -46t-4.5 -39l1 -16v-330q2 -1 -0.5 -16.5t4 -39.5
t16.5 -46.5t37 -39t66 -16.5q34 0 59 13.5t37.5 32t20 44.5t9 43t1.5 35l-2 58l260 -4q0 -114 -23.5 -204t-57.5 -142t-81 -87.5t-84.5 -49t-76.5 -19.5l16 -184h-150l15 184q-216 24 -297 252q-37 107 -37 237z" />
    <glyph glyph-name="sterling" unicode="&#xa3;" horiz-adv-x="978" 
d="M135 690v250q0 202 84 338q104 170 316 170q5 0 13.5 0.5t34.5 -2t51.5 -8.5t60.5 -21t65.5 -36.5t62.5 -59t55 -84.5t39 -116.5t19 -151.5v-115l-268 -6q2 130 2 153q-1 25 -6.5 48t-18.5 49t-40 41.5t-64 15.5q-30 0 -53 -9t-36 -23t-22 -31.5t-12 -35t-4 -31.5t0 -23
v-9v-303h176v-108h-176v-303h522v-279h-799l-2 582h-94v108h94z" />
    <glyph glyph-name="yen" unicode="&#xa5;" horiz-adv-x="868" 
d="M231 707l-190 727h281l94 -490q0 -16 18 -16q19 0 19 16l94 490h280l-192 -727l192 10v-150l-225 13l-24 -91l249 13v-150l-254 13v-365h-278v365l-242 -13v150l236 -13l-23 91l-213 -13v150z" />
    <glyph glyph-name="section" unicode="&#xa7;" horiz-adv-x="894" 
d="M580 1022q68 -32 125 -82.5t94 -108t49 -120t-3.5 -118.5t-70 -103.5t-143.5 -73.5q62 -36 106.5 -77.5t62.5 -76t27.5 -63.5t8.5 -45v-17q0 -327 -390 -321q-8 0 -22.5 0.5t-55.5 9.5t-78 26t-83 55.5t-78.5 92t-55 142.5t-22.5 200h262q0 -5 -0.5 -14.5t0 -37t3.5 -52
t12 -55t23 -52t38.5 -36.5t56.5 -15q40 0 66.5 15t36.5 38t13 37.5t3 28.5q0 4 -0.5 10t-4.5 23.5t-11 33t-23.5 34t-38.5 30.5l-249 133q-68 34 -114.5 84.5t-66 104.5t-14.5 111t33.5 106t84.5 88.5t132 58.5l-35 18q-62 27 -105.5 69.5t-61.5 83t-27.5 77.5t-9.5 60l1 22
q0 31 11 64t39.5 70t71.5 65.5t112.5 47.5t156.5 19h23.5t57.5 -8.5t81.5 -24.5t84.5 -53.5t79 -90t53.5 -140t16.5 -197.5l-262 2q-2 2 0.5 27t-4.5 65t-18.5 78t-41 65t-72.5 27q-18 0 -36.5 -3.5t-42 -13.5t-38 -33t-14.5 -57q0 -4 -0.5 -10t2 -24t8.5 -33.5t21.5 -33
t38.5 -28.5zM336 748q0 -52 44.5 -82.5t96.5 -20t72 59.5q-4 30 -28.5 53.5t-56.5 33t-68 -1t-60 -42.5z" />
    <glyph glyph-name="copyright" unicode="&#xa9;" 
d="M442 199q56 0 102 15t74 39t49.5 53t31 58t15 53t6.5 39l1 15v438q0 7 -0.5 18t-6.5 43.5t-15.5 62t-31 65.5t-49.5 61.5t-74 43.5t-102 18q-59 0 -105.5 -17t-74 -44.5t-46.5 -61t-26.5 -67t-11 -61t-2.5 -44.5v-17v-438v-15.5t5 -38t13.5 -54t28 -57t46.5 -54t72 -38
t101 -15.5zM844 891v-399q0 -167 -90 -275q-105 -127 -312 -127q-83 0 -150 21.5t-107.5 53t-70.5 76.5t-43 82t-20 79.5t-7.5 58.5t-0.5 30v1v399v1q2 5 -0.5 22t2.5 45t8.5 61t18 70t32.5 73t49.5 68.5t70 57.5t95 39.5t123.5 14.5q259 0 356 -219q46 -105 46 -233z
M250 596v217q0 137 70 204q48 46 124 46q1 -2 10.5 0t27 -3t37.5 -10.5t41 -23.5t38.5 -42t29 -65t13.5 -92q2 -6 2 -55l-131 -4v76q-6 76 -63 76q-32 0 -48 -20t-16 -40v-20v-183v-14v-74q1 -1 -0.5 -8.5t2 -19.5t9 -23.5t19.5 -20t34 -8.5q57 0 63 80v70l131 -2
q0 -45 -2 -51q-1 -52 -12.5 -93.5t-29 -66t-38.5 -42t-41.5 -24.5t-37.5 -11t-28 -3h-10q-47 0 -83 17t-56 45.5t-32.5 56.5t-16.5 61t-5 46t-1 23v1z" />
    <glyph glyph-name="registered" unicode="&#xae;" 
d="M409 952h-2v-174h2h5q5 -1 10 -1t12.5 0.5t15 3t15.5 6t14.5 10.5t12 16t8.5 22.5t3 30.5q0 26 -10 44.5t-24 26.5t-28 12t-24 3h-10zM400 690v-325h-10h-133l2 716h176q8 0 22 -1t49.5 -11.5t62.5 -29t49 -59.5t22 -97q0 -50 -11.5 -87t-29 -55.5t-31.5 -27t-28 -11.5
q-4 0 -4 -6q0 -8 2 -10l102 -321h-158l-69 325q-3 6 -8 6t-5 -6zM441 199q56 0 102 15t74 39t49.5 53t31 58t15 53t6.5 39l1 15v438q0 7 -0.5 18t-6.5 43.5t-15.5 62t-31 65.5t-49.5 61.5t-74 43.5t-102 18q-58 0 -104 -17t-73.5 -44.5t-47 -61t-27 -67t-11.5 -61t-3 -44.5
v-17v-438v-15.5t5 -38t13.5 -54t28 -57t46.5 -54t72 -38t101 -15.5zM843 891v-399q0 -167 -90 -275q-105 -127 -312 -127q-83 0 -150 21.5t-107.5 53t-70.5 76.5t-43 82t-20 79.5t-7.5 58.5t-0.5 30v1v399q0 188 89 310q105 142 310 142q259 0 356 -219q46 -105 46 -233z
" />
    <glyph glyph-name="macron" unicode="&#xaf;" horiz-adv-x="671" 
d="M41 1434h590v-150h-590v150z" />
    <glyph glyph-name="plusminus" unicode="&#xb1;" horiz-adv-x="905" 
d="M43 901h350v336h150v-336h321v-149h-321v-338h-150v338h-350v149zM43 346h821v-149h-821v149z" />
    <glyph glyph-name="paragraph" unicode="&#xb6;" horiz-adv-x="1034" 
d="M451 1434h251v-1434h-180v567h-71q-19 0 -42 2t-65.5 13t-80 29t-80 53.5t-72.5 83.5t-50 123t-20 167q0 64 14 119t38 93t54.5 69t64.5 49.5t68 32t64.5 20t54.5 10t38 3.5h14zM991 0h-172v1434h172v-1434z" />
    <glyph glyph-name="periodcentered" unicode="&#xb7;" horiz-adv-x="524" 
d="M481 778v-123q0 -145 -72 -220q-56 -58 -147 -58h-2q-46 0 -83.5 16t-59.5 37.5t-38.5 55.5t-23 57.5t-10.5 55.5t-4 38.5v17.5v123v17.5t4 39t10.5 56.5t23 58t38.5 56t59.5 38t83.5 16h2q47 0 84 -16.5t59.5 -37.5t38.5 -56t23 -57.5t10.5 -57t3.5 -39v-17.5z" />
    <glyph glyph-name="questiondown" unicode="&#xbf;" horiz-adv-x="864" 
d="M817 520l-405 -149q-33 -12 -56.5 -34t-33.5 -44t-15.5 -43t-5.5 -34v-13q0 -54 14 -90.5t36.5 -52t40 -20.5t36.5 -5q42 0 71 23t41 55.5t17.5 65.5t4.5 56l-1 23l260 2q3 -85 -8.5 -157t-33.5 -121t-51.5 -89t-62.5 -63.5t-66 -40t-63.5 -23.5t-54 -10.5t-37.5 -3.5
h-14q-109 0 -187 28.5t-120 79t-61 110t-19 132.5q2 2 -0.5 14.5t2 38t9 55t19.5 64.5t35.5 66.5t55.5 62t80 50.5l307 122v134h264zM504 1042q0 63 45 108.5t108 45.5q64 0 110 -45.5t46 -108.5q0 -64 -45.5 -109.5t-110.5 -45.5q-63 0 -108 45.5t-45 109.5z" />
    <glyph glyph-name="Agrave" unicode="&#xc0;" horiz-adv-x="962" 
d="M600 1536h-158l-80 238h216zM231 1434h500l191 -1434h-291l-56 563h-188l-55 -563h-291zM481 1321l-84 -631h168z" />
    <glyph glyph-name="Aacute" unicode="&#xc1;" horiz-adv-x="962" 
d="M362 1536l23 238h215l-80 -238h-158zM231 1434h500l191 -1434h-291l-56 563h-188l-55 -563h-291zM481 1321l-84 -631h168z" />
    <glyph glyph-name="Acircumflex" unicode="&#xc2;" horiz-adv-x="962" 
d="M193 1536l165 197h236l176 -197h-174l-121 137l-108 -137h-174zM231 1434h500l191 -1434h-291l-56 563h-188l-55 -563h-291zM481 1321l-84 -631h168z" />
    <glyph glyph-name="Atilde" unicode="&#xc3;" horiz-adv-x="962" 
d="M231 1434h500l191 -1434h-291l-56 563h-188l-55 -563h-291zM481 1321l-84 -631h168zM475 1722q21 44 48 67.5t44 24.5l17 1q117 0 114 -138q0 -6 -0.5 -15.5t-10 -33.5t-26.5 -43t-56 -34t-93 -15v94q3 2 24 0t45.5 10.5t24.5 36.5q0 18 -10.5 29t-18 12.5t-14.5 1.5
q-33 1 -47 -28l-45 -82q-10 -22 -25 -38t-29.5 -22.5t-27.5 -10t-21 -3.5h-8q-33 0 -63.5 34t-30.5 105q0 6 0.5 16t9.5 35t26 44t55.5 34t91.5 13v-95q-1 -1 -10 0t-23.5 -1.5t-28 -6t-23.5 -14t-10 -25.5q0 -9 2 -18t11.5 -19t25.5 -10q31 -4 45 25z" />
    <glyph glyph-name="Adieresis" unicode="&#xc4;" horiz-adv-x="962" 
d="M322 1628q0 -63 -45.5 -108t-108.5 -45q-64 0 -110 45t-46 108q0 64 46 110t110 46q63 0 108.5 -46t45.5 -110zM950 1628q0 -63 -45 -108t-108 -45q-64 0 -110 45t-46 108q0 64 45.5 110t110.5 46q63 0 108 -46t45 -110zM231 1434h500l191 -1434h-291l-56 563h-188
l-55 -563h-291zM481 1321l-84 -631h168z" />
    <glyph glyph-name="Aring" unicode="&#xc5;" horiz-adv-x="962" 
d="M231 1434h138l-9 61v68q0 9 0.5 17.5t6.5 36t17 47t36.5 36t60.5 16.5t60.5 -16.5t36.5 -36t17 -47t6.5 -36t0.5 -17.5v-68q0 -28 -8 -61h137l191 -1434h-291l-56 563h-188l-55 -563h-291zM481 1434q19 0 28.5 12t8.5 24v13v92q0 2 0.5 5.5t-1 11.5t-5 14.5t-11.5 12
t-20 5.5q-19 0 -28.5 -12t-8.5 -24v-13v-92q0 -2 -0.5 -5.5t1 -11.5t5 -14.5t11.5 -12t20 -5.5zM481 1321l-84 -631h168z" />
    <glyph glyph-name="AE" unicode="&#xc6;" horiz-adv-x="1536" 
d="M231 1434h1262v-275h-492v-373h410v-139h-410v-373h492v-274h-862l-56 563h-188l-55 -563h-291zM481 1321l-84 -631h168z" />
    <glyph glyph-name="Ccedilla" unicode="&#xc7;" 
d="M42 494v446q0 226 98 363q104 145 299 145q5 0 13.5 0.5t34.5 -2t52 -8.5t61 -21t65.5 -36.5t62 -59t55 -84.5t39.5 -116.5t19 -151.5v-115l-269 -6q2 130 2 153q-1 25 -6.5 48t-18.5 49t-40 41.5t-64 15.5q-30 0 -53 -9t-36 -23t-22 -31.5t-12 -35t-4 -31.5t-1 -23l1 -9
v-553q0 -3 -0.5 -9t0.5 -22.5t4 -31.5t12 -33.5t22 -31.5t36 -22t53 -9q39 0 66 16.5t39.5 44t17.5 50.5t6 48l-2 146l269 -6q0 -61 -2 -105t-8.5 -103t-21 -104t-37.5 -91.5t-60 -84t-86 -63.5q0 -346 -295 -346h-189v278h219q86 -2 152 29q-19 -3 -37.5 -4t-27.5 0h-9
q-83 0 -150 27.5t-107.5 68t-70 98t-42.5 104t-20 100t-7 73.5v36v1z" />
    <glyph glyph-name="Egrave" unicode="&#xc8;" horiz-adv-x="854" 
d="M41 1434h772v-275h-494v-373h412v-139h-412v-373h494v-274h-772v1434zM524 1774l23 -238h-158l-82 238h217z" />
    <glyph glyph-name="Eacute" unicode="&#xc9;" horiz-adv-x="854" 
d="M41 1434h772v-275h-494v-373h412v-139h-412v-373h494v-274h-772v1434zM307 1536l23 238h217l-82 -238h-158z" />
    <glyph glyph-name="Ecircumflex" unicode="&#xca;" horiz-adv-x="854" 
d="M41 1434h772v-275h-494v-373h412v-139h-412v-373h494v-274h-772v1434zM139 1536l164 197h236l176 -197h-174l-119 137l-109 -137h-174z" />
    <glyph glyph-name="Edieresis" unicode="&#xcb;" horiz-adv-x="854" 
d="M41 1434h772v-275h-494v-373h412v-139h-412v-373h494v-274h-772v1434zM266 1628q0 -63 -44.5 -108t-108.5 -45t-109 45t-45 108q0 65 45 110.5t109 45.5t108.5 -45.5t44.5 -110.5zM895 1628q0 -63 -45 -108t-109 -45t-108.5 45t-44.5 108q0 65 44.5 110.5t108.5 45.5
t109 -45.5t45 -110.5z" />
    <glyph glyph-name="Igrave" unicode="&#xcc;" horiz-adv-x="362" 
d="M279 1774l22 -238h-158l-82 238h218zM41 0v1434h278v-1434h-278z" />
    <glyph glyph-name="Iacute" unicode="&#xcd;" horiz-adv-x="362" 
d="M61 1536l23 238h217l-82 -238h-158zM41 0v1434h278v-1434h-278z" />
    <glyph glyph-name="Icircumflex" unicode="&#xce;" horiz-adv-x="362" 
d="M-106 1536l163 197h236l176 -197h-174l-119 137l-108 -137h-174zM41 0v1434h278v-1434h-278z" />
    <glyph glyph-name="Idieresis" unicode="&#xcf;" horiz-adv-x="362" 
d="M20 1628q0 -63 -44.5 -108t-108.5 -45t-109 45t-45 108q0 65 45 110.5t109 45.5t108.5 -45.5t44.5 -110.5zM649 1628q0 -63 -44.5 -108t-108.5 -45t-109 45t-45 108q0 65 45 110.5t109 45.5t108.5 -45.5t44.5 -110.5zM41 0v1434h278v-1434h-278z" />
    <glyph glyph-name="Eth" unicode="&#xd0;" horiz-adv-x="874" 
d="M831 965v-480v-4q-2 -82 -17 -151.5t-38.5 -116.5t-53 -84.5t-61.5 -59t-64 -37t-60.5 -21t-50.5 -8t-35 -1.5h-13l-397 -2v745h-102v148h102v541h278h119q5 0 13 0.5t34 -2t51 -8.5t59 -20.5t64 -36t61 -58t53.5 -82.5t38.5 -113.5t19 -148.5zM571 436v572
q-11 149 -127 149h-125v-264h125v-148h-125v-466h125q121 0 127 157z" />
    <glyph glyph-name="Ntilde" unicode="&#xd1;" horiz-adv-x="864" 
d="M567 522l-22 912h278v-1434h-303l-176 954q-4 11 -14 11q-11 0 -11 -11v-954h-278v1434h324l176 -914q3 -10 14 -10q12 0 12 12zM426 1722q21 44 48 67.5t44 24.5l17 1q117 0 114 -138q0 -6 -0.5 -15.5t-10 -33.5t-26.5 -43t-56 -34t-93 -15v94q3 2 24 0t45.5 10.5
t24.5 36.5q0 18 -10 29t-17.5 12.5t-15.5 1.5q-33 1 -47 -28l-45 -82q-10 -22 -25 -38t-29.5 -22.5t-27.5 -10t-21 -3.5h-8q-33 0 -63.5 34t-30.5 105q0 6 0.5 16t9.5 35t25.5 44t55 34t91.5 13v-95q-1 -1 -10 0t-23 -1.5t-27.5 -6t-23.5 -14t-10 -25.5q0 -9 2 -18t11.5 -19
t25.5 -10q31 -4 45 25z" />
    <glyph glyph-name="Ograve" unicode="&#xd2;" 
d="M441 279q39 1 66.5 18t38 40.5t15.5 47t4 39.5l-1 16v553q1 6 1 17t-4.5 38.5t-15 48.5t-38 39t-66.5 19q-39 -1 -66.5 -18t-38 -41t-15.5 -47t-4 -39l1 -17v-553q0 -3 -0.5 -9t0.5 -22t4 -31t11.5 -33.5t21.5 -32t35 -23t51 -10.5zM841 940v-446q0 -218 -93 -355
q-104 -153 -305 -153h-2h-2q-97 0 -171 34.5t-114.5 93.5t-67 116t-35 123.5t-10 93t-1.5 46.5v1v446q0 210 89 347q104 161 310 161h2h2q84 0 150.5 -28t107.5 -68t70.5 -97.5t42.5 -104t19.5 -100t7 -73.5t0.5 -36v-1zM538 1774l22 -238h-158l-79 238h215z" />
    <glyph glyph-name="Oacute" unicode="&#xd3;" 
d="M441 279q39 1 66.5 18t38 40.5t15.5 47t4 39.5l-1 16v553q1 6 1 17t-4.5 38.5t-15 48.5t-38 39t-66.5 19q-39 -1 -66.5 -18t-38 -41t-15.5 -47t-4 -39l1 -17v-553q0 -3 -0.5 -9t0.5 -22t4 -31t11.5 -33.5t21.5 -32t35 -23t51 -10.5zM841 940v-446q0 -218 -93 -355
q-104 -153 -305 -153h-2h-2q-97 0 -171 34.5t-114.5 93.5t-67 116t-35 123.5t-10 93t-1.5 46.5v1v446q0 210 89 347q104 161 310 161h2h2q84 0 150.5 -28t107.5 -68t70.5 -97.5t42.5 -104t19.5 -100t7 -73.5t0.5 -36v-1zM323 1536l22 238h215l-80 -238h-157z" />
    <glyph glyph-name="Ocircumflex" unicode="&#xd4;" 
d="M441 279q39 1 66.5 18t38 40.5t15.5 47t4 39.5l-1 16v553q1 6 1 17t-4.5 38.5t-15 48.5t-38 39t-66.5 19q-39 -1 -66.5 -18t-38 -41t-15.5 -47t-4 -39l1 -17v-553q0 -3 -0.5 -9t0.5 -22t4 -31t11.5 -33.5t21.5 -32t35 -23t51 -10.5zM841 940v-446q0 -218 -93 -355
q-104 -153 -305 -153h-2h-2q-97 0 -171 34.5t-114.5 93.5t-67 116t-35 123.5t-10 93t-1.5 46.5v1v446q0 210 89 347q104 161 310 161h2h2q84 0 150.5 -28t107.5 -68t70.5 -97.5t42.5 -104t19.5 -100t7 -73.5t0.5 -36v-1zM153 1536l165 197h236l176 -197h-174l-121 137
l-108 -137h-174z" />
    <glyph glyph-name="Otilde" unicode="&#xd5;" 
d="M441 279q39 1 66.5 18t38 40.5t15.5 47t4 39.5l-1 16v553q1 6 1 17t-4.5 38.5t-15 48.5t-38 39t-66.5 19q-39 -1 -66.5 -18t-38 -41t-15.5 -47t-4 -39l1 -17v-553q0 -3 -0.5 -9t0.5 -22t4 -31t11.5 -33.5t21.5 -32t35 -23t51 -10.5zM841 940v-446q0 -218 -93 -355
q-104 -153 -305 -153h-2h-2q-97 0 -171 34.5t-114.5 93.5t-67 116t-35 123.5t-10 93t-1.5 46.5v1v446q0 210 89 347q104 161 310 161h2h2q84 0 150.5 -28t107.5 -68t70.5 -97.5t42.5 -104t19.5 -100t7 -73.5t0.5 -36v-1zM435 1722q21 44 48 67.5t44 24.5l17 1
q117 0 114 -138q0 -6 -0.5 -15.5t-10 -33.5t-26.5 -43t-56 -34t-93 -15v94q3 2 24 0t45.5 10.5t24.5 36.5q0 18 -10 29t-17.5 12.5t-15.5 1.5q-33 1 -47 -28l-45 -82q-16 -36 -43.5 -54.5t-46.5 -19.5h-20q-33 0 -64 34t-31 105q0 6 0.5 16t9.5 35t26 44t55.5 34t91.5 13
v-95q-1 -1 -10 0t-23.5 -1.5t-28 -6t-23.5 -14t-10 -25.5q0 -9 2 -18t11.5 -19t25.5 -10q31 -4 45 25z" />
    <glyph glyph-name="Odieresis" unicode="&#xd6;" 
d="M442 279q39 1 66.5 18t38 40.5t15.5 47t4 39.5l-1 16v553q1 6 1 17t-4.5 38.5t-15 48.5t-38 39t-66.5 19q-39 -1 -66.5 -18t-38 -41t-15.5 -47t-4 -39l1 -17v-553q0 -3 -0.5 -9t0.5 -22t4 -31t11.5 -33.5t21.5 -32t35 -23t51 -10.5zM842 940v-446q0 -218 -93 -355
q-104 -153 -305 -153h-2h-2q-97 0 -171 34.5t-114.5 93.5t-67 116t-35 123.5t-10 93t-1.5 46.5v1v446q0 210 89 347q104 161 310 161h2h2q84 0 150.5 -28t107.5 -68t70.5 -97.5t42.5 -104t19.5 -100t7 -73.5t0.5 -36v-1zM283 1628q0 -63 -46 -108t-110 -45q-63 0 -108.5 45
t-45.5 108q0 64 45.5 110t108.5 46q65 0 110.5 -46t45.5 -110zM911 1628q0 -63 -45.5 -108t-109.5 -45q-63 0 -108.5 45t-45.5 108q0 64 45.5 110t108.5 46q64 0 109.5 -45.5t45.5 -110.5z" />
    <glyph glyph-name="multiply" unicode="&#xd7;" horiz-adv-x="782" 
d="M147 1061l250 -250l238 240l104 -107l-237 -237l227 -228l-104 -106l-228 227l-239 -238l-105 107l238 238l-248 247z" />
    <glyph glyph-name="Oslash" unicode="&#xd8;" 
d="M841 940v-446q0 -218 -93 -355q-104 -153 -305 -153q-81 0 -145 22l-27 -80h-149l53 162q-39 40 -67.5 96.5t-41 102.5t-19 98.5t-7 71.5t-0.5 34v1v446q0 210 89 347q104 161 310 161q79 0 146 -23l22 68h150l-49 -150q48 -49 79 -117.5t40.5 -135t12 -97t1.5 -52.5v-1z
M318 557l179 586q-21 9 -56 12q-39 -1 -66.5 -18t-38 -41t-15.5 -47t-4 -39l1 -17v-436zM441 279q39 1 66.5 18t38 40.5t15.5 47t4 39.5l-1 16v434l-178 -583q21 -9 55 -12z" />
    <glyph glyph-name="Ugrave" unicode="&#xd9;" horiz-adv-x="868" 
d="M530 1774l23 -238h-158l-80 238h215zM825 1434v-951q0 -225 -100 -360q-102 -137 -291 -137h-2q-248 0 -344 234q-47 116 -47 263v951h272v-1002q0 -3 -0.5 -8.5t0.5 -22t4 -31.5t11.5 -33t21 -31t34.5 -22.5t50 -9.5q38 1 65 17.5t37.5 39.5t15.5 46t4 39l-1 16v1002
h270z" />
    <glyph glyph-name="Uacute" unicode="&#xda;" horiz-adv-x="868" 
d="M315 1536l23 238h215l-80 -238h-158zM825 1434v-951q0 -225 -100 -360q-102 -137 -291 -137h-2q-248 0 -344 234q-47 116 -47 263v951h272v-1002q0 -3 -0.5 -8.5t0.5 -22t4 -31.5t11.5 -33t21 -31t34.5 -22.5t50 -9.5q38 1 65 17.5t37.5 39.5t15.5 46t4 39l-1 16v1002
h270z" />
    <glyph glyph-name="Ucircumflex" unicode="&#xdb;" horiz-adv-x="868" 
d="M145 1536l166 197h236l176 -197h-174l-121 137l-109 -137h-174zM825 1434v-951q0 -225 -100 -360q-102 -137 -291 -137h-2q-248 0 -344 234q-47 116 -47 263v951h272v-1002q0 -3 -0.5 -8.5t0.5 -22t4 -31.5t11.5 -33t21 -31t34.5 -22.5t50 -9.5q38 1 65 17.5t37.5 39.5
t15.5 46t4 39l-1 16v1002h270z" />
    <glyph glyph-name="Udieresis" unicode="&#xdc;" horiz-adv-x="868" 
d="M274 1628q0 -63 -45 -108t-108 -45q-64 0 -110 45t-46 108q0 64 45.5 110t110.5 46q63 0 108 -46t45 -110zM903 1628q0 -63 -45 -108t-108 -45q-64 0 -110 45t-46 108q0 64 46 110t110 46q63 0 108 -46t45 -110zM825 1434v-951q0 -225 -100 -360q-102 -137 -291 -137h-2
q-248 0 -344 234q-47 116 -47 263v951h272v-1002q0 -3 -0.5 -8.5t0.5 -22t4 -31.5t11.5 -33t21 -31t34.5 -22.5t50 -9.5q38 1 65 17.5t37.5 39.5t15.5 46t4 39l-1 16v1002h270z" />
    <glyph glyph-name="Yacute" unicode="&#xdd;" horiz-adv-x="868" 
d="M295 471l-254 963h278l97 -490q0 -16 18 -16q19 0 19 16l94 490h280l-254 -963v-471h-278v471zM315 1536l23 238h215l-80 -238h-158z" />
    <glyph glyph-name="agrave" unicode="&#xe0;" horiz-adv-x="1036" 
d="M340 412v-11.5t5.5 -26.5t16 -33t35.5 -26t60 -12q67 0 94 33.5t27 71.5q-3 48 -37.5 80t-83.5 32h-13t-28 -5.5t-35.5 -15.5t-28 -32.5t-12.5 -54.5zM41 412q0 76 17.5 134.5t45 92t60.5 56t66.5 30.5t61 11t44.5 1l18 -2q53 -11 89.5 -39.5t50.5 -56t28 -58t25 -40.5
q29 -29 31 30v23v188q-1 7 -1.5 28.5t-1 36.5t-5.5 36t-13 34.5t-24.5 23t-38.5 9.5h-12.5t-27.5 -6.5t-35 -20.5t-27.5 -45.5t-12.5 -76.5h-303q0 90 24.5 161.5t63.5 113.5t86 71.5t94 41t86 17.5t64 5l24 -1q1 -4 19 0t48.5 -5.5t66.5 -20t72.5 -42t66 -73t48.5 -112.5
t19 -160v-441q0 -11 2 -27t7 -39t15 -40.5t24 -29.5t36.5 -8.5t50.5 24.5q0 -7 -0.5 -18t-7 -42t-19 -57.5t-41 -55t-67.5 -43.5q-83 -29 -137 -20t-83 44.5t-42.5 74t-15.5 69.5l-2 31l-4 45q-8 41 -27 15q-12 -17 -26.5 -71t-28.5 -99.5t-55.5 -83t-106.5 -37.5
q-156 0 -218.5 98t-70.5 326zM614 1538l23 -238h-158l-80 238h215z" />
    <glyph glyph-name="aacute" unicode="&#xe1;" horiz-adv-x="1036" 
d="M340 412v-11.5t5.5 -26.5t16 -33t35.5 -26t60 -12q67 0 94 33.5t27 71.5q-3 48 -37.5 80t-83.5 32h-13t-28 -5.5t-35.5 -15.5t-28 -32.5t-12.5 -54.5zM41 412q0 76 17.5 134.5t45 92t60.5 56t66.5 30.5t61 11t44.5 1l18 -2q53 -11 89.5 -39.5t50.5 -56t28 -58t25 -40.5
q29 -29 31 30v23v188q-1 7 -1.5 28.5t-1 36.5t-5.5 36t-13 34.5t-24.5 23t-38.5 9.5h-12.5t-27.5 -6.5t-35 -20.5t-27.5 -45.5t-12.5 -76.5h-303q0 90 24.5 161.5t63.5 113.5t86 71.5t94 41t86 17.5t64 5l24 -1q1 -4 19 0t48.5 -5.5t66.5 -20t72.5 -42t66 -73t48.5 -112.5
t19 -160v-441q0 -11 2 -27t7 -39t15 -40.5t24 -29.5t36.5 -8.5t50.5 24.5q0 -7 -0.5 -18t-7 -42t-19 -57.5t-41 -55t-67.5 -43.5q-83 -29 -137 -20t-83 44.5t-42.5 74t-15.5 69.5l-2 31l-4 45q-8 41 -27 15q-12 -17 -26.5 -71t-28.5 -99.5t-55.5 -83t-106.5 -37.5
q-156 0 -218.5 98t-70.5 326zM399 1300l23 238h215l-80 -238h-158z" />
    <glyph glyph-name="acircumflex" unicode="&#xe2;" horiz-adv-x="1036" 
d="M340 412v-11.5t5.5 -26.5t16 -33t35.5 -26t60 -12q67 0 94 33.5t27 71.5q-3 48 -37.5 80t-83.5 32h-13t-28 -5.5t-35.5 -15.5t-28 -32.5t-12.5 -54.5zM41 412q0 76 17.5 134.5t45 92t60.5 56t66.5 30.5t61 11t44.5 1l18 -2q53 -11 89.5 -39.5t50.5 -56t28 -58t25 -40.5
q29 -29 31 30v23v188q-1 7 -1.5 28.5t-1 36.5t-5.5 36t-13 34.5t-24.5 23t-38.5 9.5h-12.5t-27.5 -6.5t-35 -20.5t-27.5 -45.5t-12.5 -76.5h-303q0 90 24.5 161.5t63.5 113.5t86 71.5t94 41t86 17.5t64 5l24 -1q1 -4 19 0t48.5 -5.5t66.5 -20t72.5 -42t66 -73t48.5 -112.5
t19 -160v-441q0 -11 2 -27t7 -39t15 -40.5t24 -29.5t36.5 -8.5t50.5 24.5q0 -7 -0.5 -18t-7 -42t-19 -57.5t-41 -55t-67.5 -43.5q-83 -29 -137 -20t-83 44.5t-42.5 74t-15.5 69.5l-2 31l-4 45q-8 41 -27 15q-12 -17 -26.5 -71t-28.5 -99.5t-55.5 -83t-106.5 -37.5
q-156 0 -218.5 98t-70.5 326zM229 1303l166 194h236l176 -194h-174l-121 137l-109 -137h-174z" />
    <glyph glyph-name="atilde" unicode="&#xe3;" horiz-adv-x="1036" 
d="M340 412v-11.5t5.5 -26.5t16 -33t35.5 -26t60 -12q67 0 94 33.5t27 71.5q-3 48 -37.5 80t-83.5 32h-13t-28 -5.5t-35.5 -15.5t-28 -32.5t-12.5 -54.5zM41 412q0 76 17.5 134.5t45 92t60.5 56t66.5 30.5t61 11t44.5 1l18 -2q53 -11 89.5 -39.5t50.5 -56t28 -58t25 -40.5
q29 -29 31 30v23v188q-1 7 -1.5 28.5t-1 36.5t-5.5 36t-13 34.5t-24.5 23t-38.5 9.5h-12.5t-27.5 -6.5t-35 -20.5t-27.5 -45.5t-12.5 -76.5h-303q0 90 24.5 161.5t63.5 113.5t86 71.5t94 41t86 17.5t64 5l24 -1q1 -4 19 0t48.5 -5.5t66.5 -20t72.5 -42t66 -73t48.5 -112.5
t19 -160v-441q0 -11 2 -27t7 -39t15 -40.5t24 -29.5t36.5 -8.5t50.5 24.5q0 -7 -0.5 -18t-7 -42t-19 -57.5t-41 -55t-67.5 -43.5q-83 -29 -137 -20t-83 44.5t-42.5 74t-15.5 69.5l-2 31l-4 45q-8 41 -27 15q-12 -17 -26.5 -71t-28.5 -99.5t-55.5 -83t-106.5 -37.5
q-156 0 -218.5 98t-70.5 326zM512 1489q21 44 48 67t44 24l17 1q117 0 114 -139q0 -6 -0.5 -15.5t-10 -34t-26.5 -43t-56 -34t-93 -15.5v95q3 2 24 0t45.5 10.5t24.5 36.5q0 18 -10 29t-17.5 12.5t-15.5 1.5q-33 0 -47 -27l-45 -84q-16 -35 -43.5 -52.5t-47.5 -17.5l-20 -1
q-33 0 -63.5 33t-30.5 106q0 6 0.5 16t9.5 35t25.5 43.5t55 33.5t91.5 13v-94q-1 -1 -10 0t-23 -1.5t-27.5 -6.5t-23.5 -15t-10 -26q0 -45 39 -45q31 -5 45 24z" />
    <glyph glyph-name="adieresis" unicode="&#xe4;" horiz-adv-x="1036" 
d="M426 1456q0 -64 -45.5 -108.5t-108.5 -44.5q-65 0 -110 44.5t-45 108.5t45 109t110 45q63 0 108.5 -45t45.5 -109zM920 1456q0 -64 -45.5 -108.5t-110.5 -44.5q-63 0 -108.5 44.5t-45.5 108.5t45.5 109t108.5 45q65 0 110.5 -45t45.5 -109zM41 412q0 76 17.5 134.5t45 92
t60.5 56t66.5 30.5t61 11t44.5 1l18 -2q53 -11 89.5 -39.5t50.5 -56t28 -58t25 -40.5q9 -9 14 -9q9 0 13 15.5t4 30.5v16v188q-1 7 -1.5 28.5t-1 36.5t-5.5 36t-13 34.5t-24.5 23t-38.5 9.5h-12.5t-27.5 -6.5t-35 -20.5t-27.5 -45.5t-12.5 -76.5h-303q0 90 24.5 161.5
t63.5 113.5t86 71.5t94 41t86 17.5t64 5l24 -1q1 -4 19 0t48.5 -5.5t66.5 -20t72.5 -42t66 -73t48.5 -112.5t19 -160v-439q0 -15 3 -36t10.5 -48t24.5 -45t40 -18q25 0 57 25q0 -7 -0.5 -18t-7 -42t-19 -57.5t-41 -55t-67.5 -43.5q-56 -22 -106 -22q-49 0 -84.5 23t-52 55.5
t-26 64.5t-10.5 55l-1 23q-1 70 -19 70q-2 0 -12 -10q-10 -15 -20 -53.5t-21 -76.5t-30 -76t-56 -61.5t-90 -23.5q-154 0 -217.5 98.5t-71.5 325.5zM340 412v-11.5t5.5 -26.5t16 -33t35.5 -26t60 -12q67 0 94 33.5t27 71.5q-3 48 -37.5 80t-83.5 32h-13t-28 -5.5
t-35.5 -15.5t-28 -32.5t-12.5 -54.5z" />
    <glyph glyph-name="aring" unicode="&#xe5;" horiz-adv-x="1036" 
d="M41 412q0 76 17.5 134.5t45 92t60.5 56t66.5 30.5t61 11t44.5 1l18 -2q53 -11 89.5 -39.5t50.5 -56t28 -58t25 -40.5q29 -29 31 30v23v188q-1 7 -1.5 28.5t-1 36.5t-5.5 36t-13 34.5t-24.5 23t-38.5 9.5h-12.5t-27.5 -6.5t-35 -20.5t-27.5 -45.5t-12.5 -76.5h-303
q0 81 20 146.5t50.5 107t73 72.5t81.5 46.5t82 24.5q-5 16 -8 34.5t-3 29.5l-1 10v14q0 9 0.5 17.5t6.5 36.5t17 47.5t36.5 36t60.5 16.5t60.5 -16t37 -35.5t17.5 -46t6.5 -37t0.5 -19.5v-14q0 -35 -12 -72q34 -9 65.5 -23.5t67.5 -45.5t62 -72.5t43.5 -109.5t17.5 -152
v-439q0 -15 3 -35.5t11.5 -49t23.5 -43.5t39 -18.5t58 24.5q0 -7 -0.5 -18t-7 -42t-19 -57.5t-41 -55t-67.5 -43.5q-83 -29 -137 -20t-83 44.5t-42.5 74t-15.5 69.5l-2 31l-4 45q-8 41 -27 15q-12 -17 -26.5 -71t-28.5 -99.5t-55.5 -83t-106.5 -37.5q-154 0 -217.5 98.5
t-71.5 325.5zM494 1210q18 0 27 12.5t9 25.5v12v38q-1 0 0 5t-1 12t-5 14.5t-11 12.5t-19 6q-19 -1 -29 -13.5t-10 -24.5v-12v-38q1 0 0 -5t1 -12.5t5.5 -15t12 -12.5t20.5 -5zM340 412v-11.5t5.5 -26.5t16 -33t35.5 -26t60 -12q67 0 94 33.5t27 71.5q-3 48 -37.5 80
t-83.5 32h-13t-28 -5.5t-35.5 -15.5t-28 -32.5t-12.5 -54.5z" />
    <glyph glyph-name="ae" unicode="&#xe6;" horiz-adv-x="1656" 
d="M41 412q0 76 17.5 134.5t45 92t60.5 56t66.5 30.5t61 11t44.5 1l18 -2q53 -11 89.5 -39.5t50.5 -56t28 -58t25 -40.5q9 -9 14 -9q9 0 13 15.5t4 30.5v16v188q-1 7 -1.5 28.5t-1 36.5t-5.5 36t-13 34.5t-24.5 23t-38.5 9.5h-12.5t-27.5 -6.5t-35 -20.5t-27.5 -45.5
t-12.5 -76.5h-303q0 90 24.5 161.5t63.5 113.5t86 71.5t94 41t86 17.5t64 5l24 -1q1 -2 9.5 0t24.5 -1t36.5 -5.5t45 -12t49 -21.5t49 -33.5t46 -48.5t39 -66t27.5 -86q17 63 47.5 112.5t66 79t74 50.5t73.5 29t63.5 12.5t45.5 4.5l17 -1q68 0 125 -19.5t95.5 -51t68.5 -76
t47.5 -89.5t28.5 -97t14.5 -94t3.5 -83v-119h-512v-135q0 -25 1 -42.5t6.5 -43t16 -42t30.5 -28.5t48 -12q5 -1 13 -0.5t28 10t35.5 28t28 62.5t12.5 105h283q0 -83 -14 -152.5t-38 -117t-54.5 -85.5t-64.5 -60t-68 -38t-64.5 -22t-54.5 -9t-38 -2h-14q-3 1 -15 -0.5
t-39.5 3t-56.5 11.5t-65.5 25t-67.5 43q-33 -45 -87 -69.5t-111 -24.5q-49 0 -84.5 23t-52 55.5t-26 64.5t-10.5 55l-1 23q-1 70 -19 70q-2 0 -12 -10q-12 -17 -26.5 -71t-28.5 -99.5t-55.5 -83t-106.5 -37.5q-154 0 -217.5 98.5t-71.5 325.5zM1221 991q-24 0 -43 -9
t-31.5 -21.5t-21 -35t-13 -38.5t-6.5 -44t-2.5 -40.5t0 -38.5t0.5 -27l237 -2v62q0 81 -27.5 137.5t-92.5 56.5zM340 412v-11.5t5.5 -26.5t16 -33t35.5 -26t60 -12q67 0 94 33.5t27 71.5q-3 48 -37.5 80t-83.5 32h-13t-28 -5.5t-35.5 -15.5t-28 -32.5t-12.5 -54.5z" />
    <glyph glyph-name="ccedilla" unicode="&#xe7;" horiz-adv-x="862" 
d="M43 485v226q0 201 85 334q101 159 302 159q5 0 13.5 0.5t35 -2t52.5 -9t61 -22.5t65 -39t61 -62.5t52.5 -89.5t35 -122.5t13.5 -159.5l-260 -4q2 48 2 58q0 18 -1.5 35t-9 43t-20 44.5t-37.5 32t-59 13.5q-39 0 -66 -16.5t-37.5 -39.5t-16 -46t-4.5 -40l1 -16v-330
q2 -1 -0.5 -16t4 -39t16.5 -46.5t37 -38.5t66 -16q34 0 59 13.5t37.5 32t20 44.5t9 43t1.5 35l-2 58l260 -4q0 -337 -192 -455q-1 -46 -6.5 -87t-24 -93.5t-48.5 -90t-86 -63.5t-130 -26h-189v278h217q99 0 150 37q-13 -2 -26 -3.5t-22.5 -2t-17 -0.5h-10.5h-4
q-246 0 -340 233q-47 116 -47 260z" />
    <glyph glyph-name="egrave" unicode="&#xe8;" horiz-adv-x="876" 
d="M440 973q-24 0 -43 -9t-31 -21.5t-21 -35t-13 -39t-6 -44t-2.5 -41t0 -38.5t0.5 -28h237v61q0 36 -5.5 68t-18.5 62t-38 47.5t-59 17.5zM834 694v-119h-512v-135q0 -25 1 -42.5t6.5 -43t16 -42t30.5 -28.5t48 -12q5 -1 13 -0.5t28 9.5t35.5 28t28 62.5t12.5 105.5h282
q0 -105 -22.5 -189t-58.5 -133.5t-80 -85t-87.5 -49.5t-79.5 -21.5t-59 -6.5h-22h-21.5t-52 6t-74 19t-78.5 43.5t-74 72.5t-52 113t-21 160v335q0 79 14 145.5t38 111.5t54.5 81.5t64.5 57.5t68 36t64.5 20.5t54.5 8.5t38 2h14q69 0 126 -19.5t95.5 -51t68.5 -76t47 -90
t28 -97.5t14.5 -93.5t3.5 -82.5zM535 1538l22 -238h-158l-80 238h216z" />
    <glyph glyph-name="eacute" unicode="&#xe9;" horiz-adv-x="876" 
d="M440 973q-24 0 -43 -9t-31 -21.5t-21 -35t-13 -39t-6 -44t-2.5 -41t0 -38.5t0.5 -28h237v61q0 36 -5.5 68t-18.5 62t-38 47.5t-59 17.5zM834 694v-119h-512v-135q0 -25 1 -42.5t6.5 -43t16 -42t30.5 -28.5t48 -12q5 -1 13 -0.5t28 9.5t35.5 28t28 62.5t12.5 105.5h282
q0 -105 -22.5 -189t-58.5 -133.5t-80 -85t-87.5 -49.5t-79.5 -21.5t-59 -6.5h-22h-21.5t-52 6t-74 19t-78.5 43.5t-74 72.5t-52 113t-21 160v335q0 79 14 145.5t38 111.5t54.5 81.5t64.5 57.5t68 36t64.5 20.5t54.5 8.5t38 2h14q69 0 126 -19.5t95.5 -51t68.5 -76t47 -90
t28 -97.5t14.5 -93.5t3.5 -82.5zM319 1300l23 238h215l-80 -238h-158z" />
    <glyph glyph-name="ecircumflex" unicode="&#xea;" horiz-adv-x="876" 
d="M440 973q-24 0 -43 -9t-31 -21.5t-21 -35t-13 -39t-6 -44t-2.5 -41t0 -38.5t0.5 -28h237v61q0 36 -5.5 68t-18.5 62t-38 47.5t-59 17.5zM834 694v-119h-512v-135q0 -25 1 -42.5t6.5 -43t16 -42t30.5 -28.5t48 -12q5 -1 13 -0.5t28 9.5t35.5 28t28 62.5t12.5 105.5h282
q0 -105 -22.5 -189t-58.5 -133.5t-80 -85t-87.5 -49.5t-79.5 -21.5t-59 -6.5h-22h-21.5t-52 6t-74 19t-78.5 43.5t-74 72.5t-52 113t-21 160v335q0 79 14 145.5t38 111.5t54.5 81.5t64.5 57.5t68 36t64.5 20.5t54.5 8.5t38 2h14q69 0 126 -19.5t95.5 -51t68.5 -76t47 -90
t28 -97.5t14.5 -93.5t3.5 -82.5zM150 1303l165 194h236l176 -194h-174l-121 137l-108 -137h-174z" />
    <glyph glyph-name="edieresis" unicode="&#xeb;" horiz-adv-x="876" 
d="M440 973q-24 0 -43 -9t-31 -21.5t-21 -35t-13 -39t-6 -44t-2.5 -41t0 -38.5t0.5 -28h237v61q0 36 -5.5 68t-18.5 62t-38 47.5t-59 17.5zM834 694v-119h-512v-135q0 -25 1 -42.5t6.5 -43t16 -42t30.5 -28.5t48 -12q5 -1 13 -0.5t28 9.5t35.5 28t28 62.5t12.5 105.5h282
q0 -105 -22.5 -189t-58.5 -133.5t-80 -85t-87.5 -49.5t-79.5 -21.5t-59 -6.5h-22h-21.5t-52 6t-74 19t-78.5 43.5t-74 72.5t-52 113t-21 160v335q0 79 14 145.5t38 111.5t54.5 81.5t64.5 57.5t68 36t64.5 20.5t54.5 8.5t38 2h14q69 0 126 -19.5t95.5 -51t68.5 -76t47 -90
t28 -97.5t14.5 -93.5t3.5 -82.5zM346 1456q0 -64 -45 -108.5t-108 -44.5q-65 0 -110.5 44.5t-45.5 108.5t45.5 109t110.5 45q63 0 108 -45t45 -109zM840 1456q0 -64 -45.5 -108.5t-110.5 -44.5q-63 0 -108.5 44.5t-45.5 108.5t45.5 109t108.5 45q65 0 110.5 -45t45.5 -109z
" />
    <glyph glyph-name="igrave" unicode="&#xec;" horiz-adv-x="391" 
d="M289 1298h-158l-82 238h217zM55 0v1204h281v-1204h-281z" />
    <glyph glyph-name="iacute" unicode="&#xed;" horiz-adv-x="364" 
d="M43 0v1204h281v-1204h-281zM63 1300l23 238h215l-80 -238h-158z" />
    <glyph glyph-name="icircumflex" unicode="&#xee;" horiz-adv-x="364" 
d="M41 0v1204h281v-1204h-281zM-106 1303l165 194h236l176 -194h-174l-121 137l-108 -137h-174z" />
    <glyph glyph-name="idieresis" unicode="&#xef;" horiz-adv-x="364" 
d="M41 0v1204h281v-1204h-281zM336 1456q0 -64 -44.5 -108.5t-109.5 -44.5q-64 0 -108.5 44.5t-44.5 108.5q0 65 44.5 109.5t108.5 44.5t109 -45t45 -109zM336 1837q0 -65 -45 -110.5t-109 -45.5t-108.5 45.5t-44.5 110.5q0 63 44.5 108.5t108.5 45.5t109 -45.5t45 -108.5z
" />
    <glyph glyph-name="ntilde" unicode="&#xf1;" horiz-adv-x="907" 
d="M573 1204q171 0 232 -112t61 -394v-698h-299v762q0 47 -35 94q-38 41 -86 41q-51 0 -86.5 -35t-35.5 -86v-776h-281v1204h281v-231q0 -3 0.5 -7.5t3 -15t7.5 -16.5t16 -5t26 13q18 16 33 62t26.5 88.5t46 77t90.5 34.5zM449 1489q21 44 48 67t43 24l17 1q118 0 115 -139
q0 -6 -0.5 -15.5t-10 -34t-27 -43t-57 -34t-94.5 -15.5v95q4 2 25 0t45.5 10.5t24.5 36.5q0 18 -10 29t-17.5 12.5t-15.5 1.5q-32 0 -46 -27l-45 -84q-16 -35 -43.5 -52.5t-46.5 -17.5l-20 -1q-35 0 -65.5 33t-30.5 106q0 6 0.5 16t9 35t25.5 43.5t56 33.5t93 13l-2 -94
q-1 -1 -9.5 0t-22.5 -1.5t-27.5 -6.5t-23 -15t-9.5 -26q0 -45 37 -45q33 -5 47 24z" />
    <glyph glyph-name="ograve" unicode="&#xf2;" horiz-adv-x="862" 
d="M437 293q38 1 65 17.5t37.5 39.5t15.5 46t4 39l-1 16v305q-2 1 0.5 16t-3.5 38.5t-16 46t-37 39t-65 17.5q-39 -1 -66 -17t-37.5 -39t-16 -46t-4.5 -39l1 -16v-305q2 -1 -0.5 -16t4 -39t16.5 -46.5t37 -39t66 -17.5zM830 713v-219q0 -209 -89 -344q-102 -156 -304 -156
h-2q-82 0 -148 27.5t-106 67t-69 95.5t-41.5 102t-19.5 99t-7 72.5v35.5v1v219q0 225 100 361q101 138 291 138h2q65 0 119.5 -17t92.5 -43t69 -64.5t49.5 -75.5t31.5 -82t19 -77t9 -68t3 -48v-23v-1zM527 1538l23 -238h-158l-82 238h217z" />
    <glyph glyph-name="oacute" unicode="&#xf3;" horiz-adv-x="862" 
d="M437 293q38 1 65 17.5t37.5 39.5t15.5 46t4 39l-1 16v305q-2 1 0.5 16t-3.5 38.5t-16 46t-37 39t-65 17.5q-39 -1 -66 -17t-37.5 -39t-16 -46t-4.5 -39l1 -16v-305q2 -1 -0.5 -16t4 -39t16.5 -46.5t37 -39t66 -17.5zM830 713v-219q0 -209 -89 -344q-102 -156 -304 -156
h-2q-82 0 -148 27.5t-106 67t-69 95.5t-41.5 102t-19.5 99t-7 72.5v35.5v1v219q0 225 100 361q101 138 291 138h2q65 0 119.5 -17t92.5 -43t69 -64.5t49.5 -75.5t31.5 -82t19 -77t9 -68t3 -48v-23v-1zM310 1300l23 238h217l-82 -238h-158z" />
    <glyph glyph-name="ocircumflex" unicode="&#xf4;" horiz-adv-x="862" 
d="M437 293q38 1 65 17.5t37.5 39.5t15.5 46t4 39l-1 16v305q-2 1 0.5 16t-3.5 38.5t-16 46t-37 39t-65 17.5q-39 -1 -66 -17t-37.5 -39t-16 -46t-4.5 -39l1 -16v-305q2 -1 -0.5 -16t4 -39t16.5 -46.5t37 -39t66 -17.5zM830 713v-219q0 -209 -89 -344q-102 -156 -304 -156
h-2q-82 0 -148 27.5t-106 67t-69 95.5t-41.5 102t-19.5 99t-7 72.5v35.5v1v219q0 225 100 361q101 138 291 138h2q65 0 119.5 -17t92.5 -43t69 -64.5t49.5 -75.5t31.5 -82t19 -77t9 -68t3 -48v-23v-1zM142 1303l164 194h236l176 -194h-174l-119 137l-109 -137h-174z" />
    <glyph glyph-name="otilde" unicode="&#xf5;" horiz-adv-x="862" 
d="M437 293q38 1 65 17.5t37.5 39.5t15.5 46t4 39l-1 16v305q-2 1 0.5 16t-3.5 38.5t-16 46t-37 39t-65 17.5q-39 -1 -66 -17t-37.5 -39t-16 -46t-4.5 -39l1 -16v-305q2 -1 -0.5 -16t4 -39t16.5 -46.5t37 -39t66 -17.5zM830 713v-219q0 -209 -89 -344q-102 -156 -304 -156
h-2q-82 0 -148 27.5t-106 67t-69 95.5t-41.5 102t-19.5 99t-7 72.5v35.5v1v219q0 225 100 361q101 138 291 138h2q65 0 119.5 -17t92.5 -43t69 -64.5t49.5 -75.5t31.5 -82t19 -77t9 -68t3 -48v-23v-1zM425 1489q21 44 48 67t44 24l17 1q117 0 114 -139q0 -6 -0.5 -15.5
t-10 -34t-27 -43t-56.5 -34t-94 -15.5v95q3 2 24 0t45.5 10.5t24.5 36.5q0 18 -10 29t-17.5 12.5t-15.5 1.5q-31 0 -45 -27l-45 -84q-16 -35 -43.5 -52.5t-47.5 -17.5l-20 -1q-35 0 -65.5 33t-30.5 106q0 6 0.5 16t9 35t25.5 43.5t56 33.5t93 13l-2 -94q-1 -1 -9.5 0
t-22.5 -1.5t-27.5 -6.5t-23 -15t-9.5 -26q0 -45 37 -45q33 -5 47 24z" />
    <glyph glyph-name="odieresis" unicode="&#xf6;" horiz-adv-x="862" 
d="M438 293q38 1 65 17.5t37.5 39.5t15.5 46t4 39l-1 16v305q-2 1 0.5 16t-3.5 38.5t-16 46t-37 39t-65 17.5q-39 -1 -66 -17t-37.5 -39t-16 -46t-4.5 -39l1 -16v-305q2 -1 -0.5 -16t4 -39t16.5 -46.5t37 -39t66 -17.5zM831 713v-219q0 -209 -89 -344q-102 -156 -304 -156
h-2q-82 0 -148 27.5t-106 67t-69 95.5t-41.5 102t-19.5 99t-7 72.5v35.5v1v219q0 225 100 361q101 138 291 138h2q65 0 119.5 -17t92.5 -43t69 -64.5t49.5 -75.5t31.5 -82t19 -77t9 -68t3 -48v-23v-1zM340 1456q0 -64 -45.5 -108.5t-110.5 -44.5q-63 0 -108 44.5t-45 108.5
t45 109t108 45q65 0 110.5 -45t45.5 -109zM831 1456q0 -64 -45 -108.5t-108 -44.5q-65 0 -110.5 44.5t-45.5 108.5t45.5 109t110.5 45q63 0 108 -45t45 -109z" />
    <glyph glyph-name="divide" unicode="&#xf7;" horiz-adv-x="735" 
d="M522 1024q0 -64 -45 -109t-110 -45q-63 0 -108.5 45t-45.5 109t45.5 109t108.5 45q65 0 110 -45t45 -109zM41 791h653v-148h-653v148zM522 410q0 -63 -45.5 -108.5t-109.5 -45.5q-63 0 -108.5 45.5t-45.5 108.5q0 64 45.5 109.5t108.5 45.5q65 0 110 -45.5t45 -109.5z
" />
    <glyph glyph-name="oslash" unicode="&#xf8;" horiz-adv-x="862" 
d="M830 713v-219q0 -209 -89 -344q-102 -156 -304 -156h-2q-56 0 -106 12l-33 -104h-147l51 170q-45 38 -78 95t-47.5 105t-22 104t-8 77.5t-0.5 39.5v1v219q0 225 100 361q101 138 291 138h2q66 0 109 -14l31 96h147l-49 -161q46 -39 79 -98.5t47 -105.5t21.5 -107.5
t7.5 -73.5v-35zM314 444l144 467q-6 2 -21 2q-39 -1 -66 -17t-37.5 -39t-16 -46t-4.5 -39l1 -16v-305v-7zM437 293q38 1 65 17.5t37.5 39.5t15.5 46t4 39l-1 16v299l-141 -455q6 -2 20 -2z" />
    <glyph glyph-name="ugrave" unicode="&#xf9;" horiz-adv-x="907" 
d="M334 0q-171 0 -232 112t-61 394v698h299v-762q0 -47 35 -94q38 -41 86 -41q51 0 87 35t36 86v776h280v-1204h-280v231q0 3 -0.5 7.5t-3.5 15t-8 16.5t-16 5t-26 -13q-19 -16 -34 -62t-26 -88.5t-45.5 -77t-90.5 -34.5zM551 1538l22 -238h-157l-82 238h217z" />
    <glyph glyph-name="uacute" unicode="&#xfa;" horiz-adv-x="907" 
d="M334 0q-171 0 -232 112t-61 394v698h299v-762q0 -47 35 -94q38 -41 86 -41q51 0 87 35t36 86v776h280v-1204h-280v231q0 3 -0.5 7.5t-3.5 15t-8 16.5t-16 5t-26 -13q-19 -16 -34 -62t-26 -88.5t-45.5 -77t-90.5 -34.5zM334 1300l22 238h217l-81 -238h-158z" />
    <glyph glyph-name="ucircumflex" unicode="&#xfb;" horiz-adv-x="907" 
d="M334 0q-171 0 -232 112t-61 394v698h299v-762q0 -47 35 -94q38 -41 86 -41q51 0 87 35t36 86v776h280v-1204h-280v231q0 3 -0.5 7.5t-3.5 15t-8 16.5t-16 5t-26 -13q-19 -16 -34 -62t-26 -88.5t-45.5 -77t-90.5 -34.5zM166 1303l164 194h235l176 -194h-174l-118 137
l-109 -137h-174z" />
    <glyph glyph-name="udieresis" unicode="&#xfc;" horiz-adv-x="907" 
d="M334 0q-171 0 -232 112t-61 394v698h299v-762q0 -47 35 -94q38 -41 86 -41q51 0 87 35t36 86v776h280v-1204h-280v231q0 3 -0.5 7.5t-3.5 15t-8 16.5t-16 5t-26 -13q-19 -16 -34 -62t-26 -88.5t-45.5 -77t-90.5 -34.5zM362 1456q0 -64 -45 -108.5t-110 -44.5
q-63 0 -108.5 44.5t-45.5 108.5t45.5 109t108.5 45q65 0 110 -45t45 -109zM854 1456q0 -64 -45.5 -108.5t-108.5 -44.5q-65 0 -110 44.5t-45 108.5t45 109t110 45q63 0 108.5 -45t45.5 -109z" />
    <glyph glyph-name="yacute" unicode="&#xfd;" horiz-adv-x="890" 
d="M567 1204h283v-1202q0 -29 -4 -59t-17.5 -71.5t-35 -77.5t-61.5 -73.5t-92.5 -64t-132 -43t-175.5 -16.5q-8 0 -21.5 1t-51.5 7t-71 15t-70 26.5t-59 40.5l7 299q3 -4 9.5 -9.5t31 -20.5t54 -26t81.5 -19.5t112 -6.5q46 2 83 14t58.5 31t37 41t21.5 43.5t9 39.5t3 29
l-1 11h2v112q0 3 -0.5 7.5t-3 14.5t-7.5 15.5t-15.5 4.5t-24.5 -13q-15 -13 -26.5 -44.5t-21 -65.5t-24 -67t-44.5 -54t-74 -21q-166 0 -224.5 108t-58.5 382v712h289v-774q0 -49 33 -90q37 -43 84 -43q49 0 83.5 34.5t34.5 84.5v788zM326 1300l22 238h217l-82 -238h-157z
" />
    <glyph glyph-name="ydieresis" unicode="&#xff;" horiz-adv-x="890" 
d="M567 1204h283v-1202q0 -29 -4 -59t-17.5 -71.5t-35 -77.5t-61.5 -73.5t-92.5 -64t-132 -43t-175.5 -16.5q-8 0 -21.5 1t-51.5 7t-71 15t-70 26.5t-59 40.5l7 299q3 -4 9.5 -9.5t31 -20.5t54 -26t81.5 -19.5t112 -6.5q46 2 83 14t58.5 31t37 41t21.5 43.5t9 39.5t3 29
l-1 11h2v112q0 3 -0.5 7.5t-3 14.5t-7.5 15.5t-15.5 4.5t-24.5 -13q-15 -13 -26.5 -44.5t-21 -65.5t-24 -67t-44.5 -54t-74 -21q-166 0 -224.5 108t-58.5 382v712h289v-774q0 -49 33 -90q37 -43 84 -43q49 0 83.5 34.5t34.5 84.5v788zM354 1456q0 -64 -45 -108.5t-110 -44.5
q-63 0 -108.5 44.5t-45.5 108.5t45.5 109t108.5 45q65 0 110 -45t45 -109zM846 1456q0 -64 -45.5 -108.5t-108.5 -44.5q-65 0 -110 44.5t-45 108.5t45 109t110 45q63 0 108.5 -45t45.5 -109z" />
    <glyph glyph-name="Dcroat" unicode="&#x110;" horiz-adv-x="874" 
d="M831 965v-480v-4q-2 -82 -17 -151.5t-38.5 -116.5t-53 -84.5t-61.5 -59t-64 -37t-60.5 -21t-50.5 -8t-35 -1.5h-13l-397 -2v745h-102v148h102v541h278h119q5 0 13 0.5t34 -2t51 -8.5t59 -20.5t64 -36t61 -58t53.5 -82.5t38.5 -113.5t19 -148.5zM571 436v572
q-11 149 -127 149h-125v-264h125v-148h-125v-466h125q121 0 127 157z" />
    <glyph glyph-name="dcroat" unicode="&#x111;" horiz-adv-x="1044" 
d="M862 0q-57 -6 -103.5 3t-75 29t-49.5 45t-30.5 52t-15 49t-6.5 36v15l-4 36q-8 32 -25 7l-2 -2q-10 -16 -23 -54.5t-26.5 -74t-34 -71.5t-54.5 -58t-79 -22q-88 0 -145 28.5t-90 94t-45.5 157.5t-12.5 234v194q0 142 12.5 232.5t45.5 154t89.5 90.5t145.5 27q40 0 82 -10
q39 -10 62.5 -48.5t30 -80.5t15.5 -87t21 -61q28 -38 35 31l2 27v313h-84v150h448v-150h-84v-946q0 -28 3 -53.5t12.5 -51t24 -38t40.5 -9t59 28.5q1 -8 1.5 -21.5t-4.5 -49t-17.5 -63.5t-43 -53t-75.5 -30zM461 305q28 0 49.5 7t34 17.5t21 23.5t11.5 26.5t4.5 24t0.5 17.5
v7v348q0 50 -35 85.5t-86 35.5t-86 -42.5t-35 -94.5v-318q0 -48 30 -88.5t74 -46.5q6 -2 17 -2z" />
    <glyph glyph-name="Lslash" unicode="&#x141;" horiz-adv-x="612" 
d="M41 1434h278v-643h252v-148h-252v-385h252v-258h-530v643h-100v148h100v643z" />
    <glyph glyph-name="lslash" unicode="&#x142;" horiz-adv-x="505" 
d="M463 221q0 -4 0.5 -11.5t0 -29.5t-4 -42t-13 -44.5t-24 -43t-40 -32.5t-58.5 -16q-60 -4 -108 10t-77 40t-50 58t-30 65t-13.5 60t-4.5 45v17v346h-154v148h154v643h283v-643h139v-148h-139v-297v-82q0 -39 26 -63t59.5 -19.5t53.5 39.5z" />
    <glyph glyph-name="OE" unicode="&#x152;" horiz-adv-x="1376" 
d="M842 940v-154h411v-139h-411v-153q2 -7 0 -17v-203h493v-274h-895q-253 0 -351 233q-48 116 -48 261v446q0 188 79 320q104 174 322 174h893v-275h-493v-203v-16zM442 279q59 1 87 34.5t34 77.5v653q-6 43 -34 76.5t-87 34.5q-39 -1 -66.5 -18t-38 -41t-15.5 -47t-4 -39
l1 -17v-553q0 -3 -0.5 -9t0.5 -22t4 -31t11.5 -33.5t21.5 -32t35 -23t51 -10.5z" />
    <glyph glyph-name="oe" unicode="&#x153;" horiz-adv-x="1595" 
d="M1551 694v-119h-512v-135q0 -24 1 -42t7 -43.5t16.5 -42t30.5 -28.5t48 -12q5 -1 13 -0.5t28 10t35.5 28t28 62.5t12.5 105h282q0 -105 -22.5 -189t-58.5 -133.5t-80 -85t-87.5 -49.5t-79.5 -21.5t-58 -6.5h-23q-1 2 -15 0t-40 3t-56.5 11t-65.5 25t-66.5 43t-60 66.5
t-45.5 95.5q-96 -242 -348 -242h-2q-82 0 -148 27.5t-106 67t-69 95.5t-41.5 102t-19.5 99t-7 72.5v35.5v1v219q0 225 100 361q101 138 291 138h2q265 0 357 -264q26 77 74.5 131.5t99 77.5t97 35t76.5 12h29q94 0 166 -37.5t112 -92t65 -127.5t32.5 -133t7.5 -120z
M1158 973q-24 0 -43 -9t-31.5 -21.5t-21 -35t-13 -39t-6.5 -44.5t-2.5 -40.5t0 -38.5t0.5 -28h238v61q0 36 -5.5 68t-18.5 62t-38 47.5t-59 17.5zM435 293q28 1 50 10t34 23t21 31t12 33.5t4 30t1 21.5l-1 9v305q-2 1 0.5 16t-3.5 38.5t-16 46t-37 39t-65 17.5
q-39 -1 -65.5 -17t-37 -39t-15.5 -46t-4 -39l1 -16v-305q-1 -6 -1 -16.5t4 -37.5t15 -47.5t37.5 -38t65.5 -18.5z" />
    <glyph glyph-name="Scaron" unicode="&#x160;" horiz-adv-x="882" 
d="M580 733q68 -32 118 -78t72 -89.5t34.5 -82.5t13.5 -63l1 -23q0 -87 -21.5 -159.5t-66 -130.5t-120 -90t-175.5 -31q-8 0 -22 0.5t-55 9.5t-77.5 26t-82 55.5t-78 91.5t-54.5 141t-22 198h260q-1 -9 -1.5 -24t4 -53.5t15.5 -68t40.5 -53.5t72.5 -24q120 0 117 162v6
q0 5 0.5 13.5t-2 32t-9.5 43.5t-23.5 43t-41.5 36l-229 124q-61 27 -104.5 73.5t-62 92.5t-28 88t-9.5 69l1 26q0 73 19 133t61.5 111t120.5 79.5t186 28.5h23.5t56.5 -8.5t80 -24.5t84 -53t78 -89t52.5 -138.5t16.5 -194.5l-260 2q1 9 1.5 24t-4.5 53.5t-17 68t-41 53.5
t-72 24q-18 0 -35 -5t-39.5 -20.5t-36.5 -52t-14 -90.5q1 -2 -0.5 -12t3 -30t11 -40t24 -41t42.5 -34zM317 1536l-163 197h174l108 -140l119 140h174l-176 -197h-236z" />
    <glyph glyph-name="scaron" unicode="&#x161;" horiz-adv-x="874" 
d="M567 621q79 -37 135 -82t79.5 -83t35 -70.5t11.5 -51.5l-1 -19q0 -329 -389 -323q-8 0 -22.5 0.5t-55.5 9.5t-78 26.5t-83 56.5t-78.5 92.5t-55 142.5t-22.5 200h262q-1 -11 -1.5 -28.5t4 -63t16 -80.5t41 -63.5t73.5 -28.5q32 0 56 11t35.5 25t18.5 33t8 30t1 22
q0 4 -0.5 10t-4.5 23.5t-11 33t-23.5 33.5t-38.5 29l-231 127q-62 27 -106 69.5t-62 83t-28 77t-10 59.5l1 22q0 31 11 64t39.5 70t71.5 65.5t112.5 47.5t156.5 19h23.5t57.5 -8.5t81.5 -24.5t85 -53.5t79 -90t53.5 -140t17 -197.5l-264 2q1 11 1.5 28.5t-4.5 63t-17 80
t-41 63t-72 28.5q-18 0 -36.5 -3.5t-42 -13.5t-38 -33t-14.5 -57q0 -4 -0.5 -10t1.5 -24t8 -33.5t21.5 -33t37.5 -28.5zM313 1303l-163 194h174l108 -137l119 137h174l-176 -194h-236z" />
    <glyph glyph-name="Ydieresis" unicode="&#x178;" horiz-adv-x="868" 
d="M295 471l-254 963h278l97 -490q0 -16 18 -16q19 0 19 16l94 490h280l-254 -963v-471h-278v471zM274 1628q0 -63 -45.5 -108t-109.5 -45q-63 0 -108.5 45t-45.5 108q0 64 45.5 110t108.5 46q64 0 109.5 -45.5t45.5 -110.5zM903 1628q0 -63 -45.5 -108t-109.5 -45
q-63 0 -108.5 45t-45.5 108q0 64 45.5 110t108.5 46q64 0 109.5 -45.5t45.5 -110.5z" />
    <glyph glyph-name="Zcaron" unicode="&#x17d;" horiz-adv-x="915" 
d="M334 1536l-164 197h174l109 -140l118 140h174l-176 -197h-235zM858 0h-817l2 449q0 80 22.5 139t60.5 94.5t97 57t121.5 29t144.5 7.5q39 0 68 20t42.5 49t21 57.5t7.5 48.5l1 20v170l-563 -2v295h808v-412v2q-2 -89 -27 -155t-64 -104.5t-98.5 -62t-119.5 -31t-137 -7.5
q-3 0 -7.5 0.5t-17.5 -1.5t-24.5 -6.5t-26 -16t-25 -28.5t-17.5 -46t-7 -66v-203h555v-297z" />
    <glyph glyph-name="zcaron" unicode="&#x17e;" horiz-adv-x="929" 
d="M870 0h-829l2 362q0 81 23 140t61.5 94.5t98.5 56.5t123 28t147 7q41 0 70.5 13.5t42.5 32t20 37.5t7 33l1 13v111l-571 -2v278h821v-213q-2 -90 -27 -162t-66.5 -119.5t-99 -79.5t-122 -45.5t-138.5 -13.5q-5 1 -13.5 0.5t-30 -9t-38 -25.5t-30 -56.5t-13.5 -95.5v-104
h561v-281zM342 1303l-166 194h174l109 -137l121 137h174l-176 -194h-236z" />
    <glyph glyph-name="tilde" unicode="&#x2dc;" horiz-adv-x="800" 
d="M389 1280q22 46 48.5 79t49 47t41.5 21t30 7h11q194 0 191 -230q0 -5 -0.5 -13.5t-6 -32.5t-15.5 -46t-33 -49t-54.5 -46t-84 -32.5t-117.5 -13.5v155q6 -1 16.5 -1t37.5 2.5t47 9t37 24t17 43.5q0 31 -16.5 48t-29.5 19.5t-26 2.5q-6 0 -15 -1t-29 -12t-31 -32l-74 -137
q-17 -37 -42 -63t-48.5 -36.5t-45.5 -16t-35 -5.5h-13q-23 0 -48.5 11.5t-51 36.5t-42 72.5t-16.5 110.5v14t5 34t14.5 47.5t32 50t53.5 47t82.5 31.5t115.5 10v-156q-1 -1 -16 0.5t-39 -2.5t-46.5 -10.5t-38.5 -23.5t-16 -42q0 -16 3.5 -31t19 -31t41.5 -16h6t14 1.5
t19.5 5t20 12.5t16.5 22z" />
    <glyph glyph-name="endash" unicode="&#x2013;" horiz-adv-x="813" 
d="M41 791h731v-148h-731v148z" />
    <glyph glyph-name="emdash" unicode="&#x2014;" horiz-adv-x="1292" 
d="M43 791h1208v-148h-1208v148z" />
    <glyph glyph-name="quoteleft" unicode="&#x2018;" horiz-adv-x="382" 
d="M295 1434l47 -484h-197l-102 484h252z" />
    <glyph glyph-name="quoteright" unicode="&#x2019;" horiz-adv-x="382" 
d="M43 950l45 484h254l-104 -484h-195z" />
    <glyph glyph-name="quotesinglbase" unicode="&#x201a;" horiz-adv-x="382" 
d="M43 -213l45 483h254l-104 -483h-195z" />
    <glyph glyph-name="quotedblleft" unicode="&#x201c;" horiz-adv-x="724" 
d="M637 1434l47 -484h-197l-102 484h252zM295 1434l47 -484h-197l-102 484h252z" />
    <glyph glyph-name="quotedblright" unicode="&#x201d;" horiz-adv-x="724" 
d="M43 950l45 484h254l-104 -484h-195zM385 950l45 484h254l-104 -484h-195z" />
    <glyph glyph-name="quotedblbase" unicode="&#x201e;" horiz-adv-x="724" 
d="M41 -213l47 483h252l-104 -483h-195zM383 -213l47 483h252l-104 -483h-195z" />
    <glyph glyph-name="dagger" unicode="&#x2020;" horiz-adv-x="815" 
d="M338 0l4 705v241l-299 -6v141l297 -4l-2 357h141l-4 -357l299 4v-141l-301 6l-2 -239l8 -707h-141z" />
    <glyph glyph-name="daggerdbl" unicode="&#x2021;" horiz-adv-x="409" 
d="M43 940l299 -4l-4 498h141l-6 -498l301 4v-141l-301 6v-174l301 4v-139l-301 4l6 -500h-141l4 500l-299 -4v139l299 -4v172l-299 -4v141z" />
    <glyph glyph-name="bullet" unicode="&#x2022;" horiz-adv-x="524" 
d="M481 778v-123q0 -145 -72 -220q-56 -58 -147 -58h-2q-46 0 -83.5 16t-59.5 37.5t-38.5 55.5t-23 57.5t-10.5 55.5t-4 38.5v17.5v123v17.5t4 39t10.5 56.5t23 58t38.5 56t59.5 38t83.5 16h2q47 0 84 -16.5t59.5 -37.5t38.5 -56t23 -57.5t10.5 -57t3.5 -39v-17.5z" />
    <glyph glyph-name="Euro" unicode="&#x20ac;" horiz-adv-x="978" 
d="M43 852h92v88q0 202 84 338q104 170 316 170q5 0 13.5 0.5t34.5 -2t51.5 -8.5t60.5 -21t65.5 -36.5t62.5 -59t55 -84.5t39 -116.5t19 -151.5v-115l-268 -6q2 130 2 153q-1 25 -6.5 48t-18.5 48t-40 40.5t-64 15.5q-41 0 -69 -16.5t-39 -40t-16 -47t-4 -39.5l1 -17v-141
h176v-109h-176v-53h176v-108h-176v-142q0 -3 -0.5 -9t0.5 -22.5t4 -32t12 -34t22 -32t36 -22.5t53 -9q39 0 66 17t39.5 44.5t17.5 51t6 48.5l-2 146l268 -6v-105q-2 -84 -17.5 -154.5t-39 -118.5t-53.5 -86.5t-63 -60.5t-65.5 -37.5t-61.5 -21.5t-51.5 -8.5t-36.5 -1.5h-13
q-253 0 -351 238q-49 120 -49 270v88h-92v108h92v53h-92v109z" />
    <glyph glyph-name="trademark" unicode="&#x2122;" horiz-adv-x="1011" 
d="M43 1434h569l84 -643l86 643h189v-789h-154v543l-74 -543h-96l-67 543l4 -543h-154v629h-104v-629h-154v629h-129v160z" />
    <glyph glyph-name="minus" unicode="&#x2212;" horiz-adv-x="735" 
d="M41 791h653v-148h-653v148z" />
    </font>
</defs>
</svg>
