<svg xmlns="http://www.w3.org/2000/svg" xmlns:xlink="http://www.w3.org/1999/xlink" version="1.1"><metadata>Created by FontForge 20170731 at Tue Nov 21 06:01:52 2023 By Aleksey,,, Copyright (c) 2021 by Vultype Co. All rights reserved.</metadata><defs><font id="TheLaker" horiz-adv-x="874"><font-face x-height="1434" ascent="1638" bbox="-49 -459 6828 1853" cap-height="1434" descent="-410" font-family="The Laker" font-stretch="normal" font-weight="400" panose-1="0 0 0 0 0 0 0 0 0 0" underline-position="-358" underline-thickness="102" unicode-range="U+000A-F014" units-per-em="2048"/><glyph d="M1358 1432l295 -1432h-107l-254 1231q-79 -295 -258 -950h-106q265 968 311 1151h119zM207 639v-528h921v-105h-1026v1426h52v2h569v-103h-516v-588h516v-104h-516z" glyph-name="EA.liga" horiz-adv-x="1755" unicode="EA"/><glyph d="M1522 1432h104v-1432h-104v635h-463v-359h-105v1156h105v-693h463v693zM207 639v-528h1069v-105h-1174v1426h52v2h569v-103h-516v-588h516v-104h-516z" glyph-name="EH.liga" horiz-adv-x="1728" unicode="EH"/><glyph d="M995 328h-104v1104h104v-1104zM207 111h794v-105h-899v1426h52v2h569v-103h-516v-588h516v-104h-516v-528z" glyph-name="EI.liga" horiz-adv-x="1105" unicode="EI"/><glyph d="M985 330h-104v1102h104v-1102zM1679 1432l-534 -727l489 -705h-127l-481 694l-10 8l2 5h2l530 725h129zM207 639v-528h794v-105h-899v1426h52v2h569v-103h-516v-588h516v-104h-516z" glyph-name="EK.liga" horiz-adv-x="1781" unicode="EK"/><glyph d="M1055 358h446v-102h-551v1176h105v-1074zM207 639v-528h1294v-105h-1399v1426h52v2h569v-103h-516v-588h516v-104h-516z" glyph-name="EL.liga" horiz-adv-x="1603" unicode="EL"/><glyph d="M1698 1432h90v-1432h-105v1061l-305 -920l-323 934v-768h-105v1125h90l336 -967zM207 639v-528h844v-105h-949v1426h52v2h569v-103h-516v-588h516v-104h-516z" glyph-name="EM.liga" horiz-adv-x="1890" unicode="EM"/><glyph d="M1542 1432h105v-1432h-86l-527 1143v-842h-102v1131h84l526 -1143v1143zM207 639v-528h835v-105h-940v1426h52v2h569v-103h-516v-588h516v-104h-516z" glyph-name="EN.liga" horiz-adv-x="1748" unicode="EN"/><glyph d="M1235 651l416 -651h-123l-414 649h-96v-321h-103v321v785h293q21 0 31 -2q103 -11 173.5 -89.5t70.5 -183.5v-217q0 -108 -71.5 -191t-176.5 -100zM1018 752h170q79 0 135.5 56t56.5 134v217q0 70 -50.5 120t-121.5 50h-190v-577zM207 639v-528h819v-105h-924v1426h52v2 h569v-103h-516v-588h516v-104h-516z" glyph-name="ER.liga" horiz-adv-x="1753" unicode="ER"/><glyph d="M207 639v-528h991v-105h-1096v1426h52v2h346v-103h-293v-588h516v-104h-516zM727 1434h819v-105h-344v-1067h-104v1067h-371v105z" glyph-name="ET.liga" horiz-adv-x="1648" unicode="ET"/><glyph d="M969 1432l295 -1432h-107l-252 1231q-82 -306 -260 -955l-106 5q265 968 311 1151h119zM207 1432v-1321h446v-105h-551v1426h105z" glyph-name="LA.liga" horiz-adv-x="1366" unicode="LA"/><glyph d="M1141 1432h102v-1432h-102v635h-465v-359h-105v1156h105v-693h465v693zM207 1432v-1321h446v-105h-551v1426h105z" glyph-name="LH.liga" horiz-adv-x="1345" unicode="LH"/><glyph d="M655 328h-104v1104h104v-1104zM207 1432v-1321h446v-105h-551v1426h105z" glyph-name="LI.liga" horiz-adv-x="757" unicode="LI"/><glyph d="M657 330h-104v1102h104v-1102zM1352 1432l-535 -727l490 -705h-127l-482 694l-10 8l2 5h2l531 725h129zM207 1432v-1321h446v-105h-551v1426h105z" glyph-name="LK.liga" horiz-adv-x="1454" unicode="LK"/><glyph d="M618 358h447v-102h-551v1176h104v-1074zM207 1432v-1321h858v-105h-963v1426h105z" glyph-name="LL.liga" horiz-adv-x="1167" unicode="LL"/><glyph d="M1300 1432h91v-1432h-105v1061l-305 -920l-324 934v-768h-104v1125h90l336 -967zM207 1432v-1321h446v-105h-551v1426h105z" glyph-name="LM.liga" horiz-adv-x="1492" unicode="LM"/><glyph d="M1153 1432h104v-1432h-86l-524 1143v-842h-104v1131h84l526 -1143v1143zM207 1432v-1321h446v-105h-551v1426h105z" glyph-name="LN.liga" horiz-adv-x="1359" unicode="LN"/><glyph d="M860 651l418 -651h-123l-416 649h-94v-321h-104v321v785h295q20 0 30 -2q103 -11 173.5 -89.5t70.5 -183.5v-217q0 -108 -72 -191t-178 -100zM645 752h170q78 0 134.5 56t56.5 134v217q0 71 -50 120.5t-120 49.5h-191v-577zM207 1432v-1321h446v-105h-551v1426h105z" glyph-name="LR.liga" horiz-adv-x="1380" unicode="LR"/><glyph d="M207 1194v-1085h446v-103h-551v1188h105zM109 1434h892v-105h-344v-1067h-104v1067h-444v105z" glyph-name="LT.liga" horiz-adv-x="1103" unicode="LT"/><glyph d="M1516 1434v-105h-938v-1329h-105v1329h-371v105h1414zM1516 1116h-517v-373h517v-104h-517v-535h465v-104h-465h-102v1219h102h517v-103z" glyph-name="TE.liga" horiz-adv-x="1617" unicode="TE"/><glyph d="M975 1219h516v-103h-516v-373h516v-104h-516v-639h-105v1219h105zM102 1434h1414v-105h-938v-1329h-105v1329h-371v105z" glyph-name="TF.liga" horiz-adv-x="1617" unicode="TF"/><glyph d="M1356 739v480h102v-1219h-102v635h-465v-635h-105v1219h105v-480h465zM102 1434h1414v-105h-938v-1329h-105v1329h-371v105z" glyph-name="TH.liga" horiz-adv-x="1617" unicode="TH"/><glyph d="M1356 739v480h102v-1219h-102v635h-465v-635h-105v1219h105v-480h465zM102 1434h1414v-105h-938v-1329h-105v1329h-371v105zM2267 639h-516v-535h516v-102h-516v-2h-104v1436h620v-105h-516v-588h516v-104zM3975 1432l295 -1432h-106l-252 1231q-82 -306 -260 -955 l-107 5q265 968 311 1151h119zM3213 1432v-1321h447v-105h-551v1426h104zM4502 0h-105v1434h105v-1434zM5196 1434l-535 -729l490 -705h-127l-482 694l-12 8l4 5v2h2l531 725h129zM6412 651l416 -651h-123l-414 649h-96v-321h-102v321v785h293q20 0 30 -2 q103 -11 173.5 -89.5t70.5 -183.5v-217q0 -108 -71.5 -191t-176.5 -100zM6195 752h170q79 0 136 56t57 134v217q0 70 -50.5 120t-121.5 50h-191v-577zM5384 639v-528h819v-105h-923v1426h51v2h569v-103h-516v-588h516v-104h-516z" glyph-name="laker" horiz-adv-x="6873" unicode="THE LAKER"/><glyph d="M102 1434h875v-1434h-875v1434zM160 1393l379 -633l381 633h-760zM514 717l-369 614v-1231zM541 674l-379 -631h758zM565 717l371 -621v1239z" glyph-name=".notdef" horiz-adv-x="1079"/><glyph glyph-name=".null" horiz-adv-x="0"/><glyph glyph-name=".null" horiz-adv-x="0"/><glyph glyph-name="nonmarkingreturn" horiz-adv-x="0"/><glyph glyph-name="space" horiz-adv-x="442"/><glyph d="M219 406h-86v956h86v-956zM176 174q31 0 52.5 -25.5t21.5 -60.5q0 -37 -21.5 -62.5t-52.5 -25.5t-52.5 25.5t-21.5 62.5q0 35 21.5 60.5t52.5 25.5z" glyph-name="exclam" horiz-adv-x="352" unicode="!"/><glyph d="M176 1362q31 0 52.5 -25.5t21.5 -60.5q0 -52 -35 -76l-10 -6l-78 -104l-16 8l22 100l-16 25q-15 30 -15 53q0 35 21.5 60.5t52.5 25.5zM516 1362q31 0 53.5 -25.5t22.5 -60.5q0 -50 -37 -76l-10 -6l-78 -104l-16 8l22 100l-14 25q-17 27 -17 53q0 35 21.5 60.5t52.5 25.5 z" glyph-name="quotedbl" horiz-adv-x="694" unicode="&quot;"/><glyph d="M1382 705h-258l-84 -289h213v-86h-237l-103 -355h-90l103 355h-527l-104 -355h-90l104 355h-207v86h232l84 289h-187v86h211l160 548h90l-160 -548h529l160 548h90l-160 -548h231v-86zM952 416l82 289h-526l-84 -289h528z" glyph-name="numbersign" horiz-adv-x="1484" unicode="#"/><glyph d="M788 303v-6v-12q-6 -102 -74 -179t-169 -96l-53 -10h-91l-55 10q-89 17 -152 78t-83 148h90q25 -76 100 -119l102 -56v615l-38 20q-86 43 -140 86.5t-88.5 114t-34.5 164.5q0 107 69 191t175 104l41 6h119l39 -6q88 -17 152.5 -78.5t84.5 -147.5h-90q-29 79 -100 117 l-103 58v-574l37 -20q56 -30 96.5 -61t80 -78.5t61.5 -115.5t24 -153zM403 754v551l-102 -58q-52 -28 -82.5 -77.5t-30.5 -108.5q0 -138 103 -219zM702 297v2v2q-3 154 -94 248l-119 121v-609l103 56q51 28 79.5 75.5t30.5 104.5z" glyph-name="dollar" horiz-adv-x="890" unicode="$"/><glyph d="M944 1362h90l-397 -1362h-90zM1212 618q98 0 167 -73.5t69 -177.5q0 -105 -69 -179.5t-167 -74.5q-97 0 -166 75t-69 179t69 177.5t166 73.5zM1212 199q63 0 106.5 49.5t43.5 118.5t-43.5 117t-106.5 48q-62 0 -105.5 -48t-43.5 -117t44 -118.5t105 -49.5zM338 1241 q98 0 166.5 -73.5t68.5 -178.5q0 -106 -68.5 -180t-166.5 -74q-97 0 -166.5 74.5t-69.5 179.5q0 104 69.5 178t166.5 74zM338 821q61 0 105 49.5t44 118.5t-43.5 117.5t-105.5 48.5t-106 -48.5t-44 -117.5t44 -118.5t106 -49.5z" glyph-name="percent" horiz-adv-x="1550" unicode="%"/><glyph d="M1225 63q11 -14 55 -63h-113l-190 223l-53 -57l-6 -6v-2q-1 0 -5 -4q-152 -152 -411 -152q-97 0 -173.5 26.5t-122.5 70t-71 92.5t-31 102q-8 78 19 159.5t102 161.5t187 127l88 37l-62 72q-77 93 -92.5 192t35.5 179q34 55 100.5 91t134.5 36q69 0 124 -11t89.5 -27 t59.5 -41t36.5 -45t18 -48.5t7.5 -42t1 -33.5q0 -64 -66 -153.5t-173 -155.5l-70 -43l53 -62q79 -90 176 -205l95 -110l26 141q19 106 19 209h86q0 -216 -64 -375l-14 -39l27 -31q19 -22 51.5 -61t57.5 -69.5t46 -55.5zM453 1176q-29 -45 -24.5 -97.5t27 -98.5t58.5 -85 q20 -24 33 -37l35 -39l47 25q94 48 162.5 122t74.5 128v8q0 39 -12 67t-32.5 45.5t-53 27.5t-68.5 14t-84 4q-46 0 -93 -24.5t-70 -59.5zM883 250l35 43l-37 45q-220 259 -283 330l-27 32l-43 -10q-165 -41 -258 -157t-80 -232q10 -100 93.5 -156.5t218.5 -56.5 q223 0 350 127q11 11 31 35z" glyph-name="ampersand" horiz-adv-x="1382" unicode="&amp;"/><glyph d="M176 1362q31 0 52.5 -25.5t21.5 -60.5q0 -52 -35 -76l-10 -6l-78 -104l-16 10l22 98l-14 25q-17 27 -17 53q0 35 21.5 60.5t52.5 25.5z" glyph-name="quotesingle" horiz-adv-x="354" unicode="'"/><glyph d="M188 408q0 -140 93.5 -245t230.5 -122v-41h-156q-116 57 -185 168t-69 240v532q0 138 79 254.5t208 167.5h100v-59q-130 -25 -215.5 -127t-85.5 -236v-532z" glyph-name="parenleft" horiz-adv-x="614" unicode="("/><glyph d="M223 1362q129 -51 209 -167.5t80 -254.5v-532q0 -129 -69.5 -240t-186.5 -168h-131v45q130 25 214.5 127t84.5 236v532q0 140 -92.5 245t-229.5 122v55h121z" glyph-name="parenright" horiz-adv-x="614" unicode=")"/><glyph d="M459 1020l233 -174l-53 -70l-250 189l-229 -185l-54 68l211 170l-215 160l52 69l200 -149v254h86v-236l189 152l53 -68z" glyph-name="asterisk" horiz-adv-x="792" unicode="*"/><glyph d="M434 741h246v-86h-246v-247h-86v247h-246v86h246v246h86v-246z" glyph-name="plus" horiz-adv-x="782" unicode="+"/><glyph d="M176 197q31 0 52.5 -25.5t21.5 -62.5q0 -50 -37 -74l-8 -6l-21 -29h-57l6 33l-14 24q-17 24 -17 52q0 37 21.5 62.5t52.5 25.5z" glyph-name="comma" horiz-adv-x="354" unicode=","/><glyph d="M688 553h-586v88h586v-88z" glyph-name="hyphenminus" horiz-adv-x="790" unicode="-"/><glyph d="M176 29q-31 0 -52.5 25.5t-21.5 60.5q0 37 21.5 62.5t52.5 25.5t52.5 -25.5t21.5 -62.5q0 -35 -21.5 -60.5t-52.5 -25.5z" glyph-name="period" horiz-adv-x="354" unicode="."/><glyph d="M500 1362h90l-397 -1362h-91z" glyph-name="slash" horiz-adv-x="692" unicode="/"/><glyph d="M928 715q0 -190 -54.5 -347.5t-149 -248t-208.5 -90.5t-209 90.5t-150 248.5t-55 347t55 347t150 248.5t209 90.5t208.5 -90.5t149 -248t54.5 -347.5zM516 166q72 0 136 75.5t102.5 202.5t38.5 271t-38.5 271t-102.5 202.5t-136 75.5t-136.5 -75.5t-103 -202.5 t-38.5 -271t38.5 -271t103 -202.5t136.5 -75.5z" glyph-name="zero" horiz-adv-x="1030" unicode="0"/><glyph d="M104 1206l-2 199h140v-1380h-138v1181z" glyph-name="one" horiz-adv-x="344" unicode="1"/><glyph d="M455 705q63 60 99 98t70.5 85.5t49 93.5t14.5 99q0 75 -54 129t-130 54h-84q-64 0 -114.5 -40t-65.5 -102h-138q15 118 106 198.5t212 80.5h84q132 0 225.5 -94t93.5 -226q0 -62 -17 -121t-39 -101.5t-64.5 -93.5t-71.5 -80t-82 -79q-52 -49 -77.5 -74.5t-67 -73 t-64 -84.5t-45 -89t-33.5 -107l-10 -49h551v-104h-688v36q0 93 22.5 178.5t51.5 144.5t82.5 126.5t88 102t95.5 92.5z" glyph-name="two" horiz-adv-x="925" unicode="2"/><glyph d="M522 1401q136 0 234 -97.5t98 -234.5v-90q0 -138 -98 -236l-29 -28l29 -29q98 -98 98 -235v-91q0 -136 -97.5 -233.5t-234.5 -97.5h-90q-126 0 -220.5 83.5t-109.5 206.5h138q15 -67 68.5 -110t123.5 -43h90q80 0 137.5 57.5t57.5 136.5v91q0 70 -43.5 123.5t-110.5 68.5 v143q67 15 110.5 69t43.5 124v90q0 79 -57.5 137t-137.5 58h-90q-70 0 -123.5 -43.5t-68.5 -110.5h-138q15 122 110 206.5t220 84.5h90z" glyph-name="three" horiz-adv-x="956" unicode="3"/><glyph d="M102 469l478 936h225v-1380h-137v284l-564 -4zM668 446v832l-426 -836z" glyph-name="four" horiz-adv-x="907" unicode="4"/><glyph d="M528 879q138 0 237 -109.5t99 -263.5v-105q0 -154 -99 -263t-237 -109h-92q-127 0 -223.5 95.5t-110.5 235.5h138q12 -85 67 -139.5t129 -54.5h92q83 0 142 68.5t59 166.5v105q0 97 -59 166t-142 69h-194h-10l-168 2l8 662h553v-137h-418l-4 -389h233z" glyph-name="five" horiz-adv-x="966" unicode="5"/><glyph d="M866 401q0 -154 -99 -263t-237 -109h-92q-138 0 -237 109t-99 263v668q0 137 98 234.5t234 97.5h90q125 0 220 -84.5t110 -206.5h-139q-14 66 -68 110t-123 44h-90q-81 0 -138.5 -57.5t-57.5 -137.5v-190h292q138 0 237 -109.5t99 -263.5v-105zM731 401v105q0 97 -59 166 t-142 69h-292v-340q0 -98 58.5 -166.5t141.5 -68.5h92q83 0 142 68.5t59 166.5z" glyph-name="six" horiz-adv-x="968" unicode="6"/><glyph d="M102 1282v123h668l-401 -1380h-144l367 1257h-490z" glyph-name="seven" horiz-adv-x="872" unicode="7"/><glyph d="M930 422q0 -154 -108.5 -269t-266.5 -128h-76q-158 14 -267.5 128.5t-109.5 268.5q0 100 48.5 188.5t134.5 143.5l47 30l-43 37q-56 47 -86.5 112.5t-30.5 137.5q0 138 101 236t243 98t243 -98t101 -236q0 -72 -30.5 -137.5t-86.5 -112.5l-43 -37l48 -30 q86 -55 134 -143.5t48 -188.5zM307 1071q0 -82 61.5 -139.5t147.5 -57.5t147.5 57.5t61.5 139.5t-61.5 139.5t-147.5 57.5t-147.5 -57.5t-61.5 -139.5zM516 158q115 0 197 77.5t82 186.5t-82 186.5t-197 77.5t-196.5 -77.5t-81.5 -186.5t81.5 -186.5t196.5 -77.5z" glyph-name="eight" horiz-adv-x="1032" unicode="8"/><glyph d="M530 1401q138 0 237 -109.5t99 -263.5v-668q0 -136 -97 -233.5t-234 -97.5h-91q-124 0 -218 83t-111 207h139q14 -66 67.5 -109.5t122.5 -43.5h91q81 0 138.5 57t57.5 137v191h-293q-138 0 -237 109.5t-99 263.5v104q0 154 99 263.5t237 109.5h92zM438 688h293v340 q0 97 -59 166.5t-142 69.5h-92q-83 0 -141.5 -69.5t-58.5 -166.5v-104q0 -97 58.5 -166.5t141.5 -69.5z" glyph-name="nine" horiz-adv-x="968" unicode="9"/><glyph d="M176 805q-31 0 -52.5 25.5t-21.5 60.5q0 37 21.5 62.5t52.5 25.5t52.5 -25.5t21.5 -62.5q0 -35 -21.5 -60.5t-52.5 -25.5zM176 29q-31 0 -52.5 25.5t-21.5 60.5q0 37 21.5 62.5t52.5 25.5t52.5 -25.5t21.5 -62.5q0 -35 -21.5 -60.5t-52.5 -25.5z" glyph-name="colon" horiz-adv-x="354" unicode=":"/><glyph d="M176 805q-31 0 -52.5 25.5t-21.5 60.5q0 37 21.5 62.5t52.5 25.5t52.5 -25.5t21.5 -62.5q0 -35 -21.5 -60.5t-52.5 -25.5zM176 197q31 0 52.5 -25.5t23.5 -62.5q0 -49 -39 -74l-8 -6l-21 -29h-57l6 33l-14 24q-17 24 -17 52q0 37 21.5 62.5t52.5 25.5z" glyph-name="semicolon" horiz-adv-x="354" unicode=";"/><glyph d="M905 1260l-678 -652l596 -579l-51 -54h-18l-652 633l744 715z" glyph-name="less" horiz-adv-x="1007" unicode="&lt;"/><glyph d="M680 838h-578v86h578v-86zM680 475h-578v86h578v-86z" glyph-name="equal" horiz-adv-x="782" unicode="="/><glyph d="M244 1321l661 -641l-733 -705h-18l-52 54l678 651l-596 580z" glyph-name="greater" horiz-adv-x="1007" unicode="&gt;"/><glyph d="M369 150q31 0 53 -26t22 -61q0 -37 -22 -62.5t-53 -25.5t-52.5 25.5t-21.5 62.5q0 35 21.5 61t52.5 26zM481 1339q108 -32 176 -124.5t68 -208.5t-68 -208.5t-176 -123.5l-49 -15l2 -227h-86v174q0 53 31 95t80 55q80 25 130 94.5t50 155.5q0 107 -72.5 183.5 t-175.5 76.5q-53 0 -110 -28t-97 -85l-82 33q69 112 203 153h176z" glyph-name="question" horiz-adv-x="827" unicode="?"/><glyph d="M1452 748v-21q2 -84 -22.5 -157.5t-65.5 -124t-94 -87.5t-107 -55.5t-106 -21.5q-86 -6 -139 59q-1 1 -2.5 2t-2.5 2l-34 45l-52 -24q-105 -51 -213 -3q-83 38 -130.5 118.5t-39.5 168.5q11 122 63.5 214.5t135.5 135.5q92 47 197 19l67 -19l4 19l84 -25 q-19 -80 -32.5 -164.5t-21.5 -180t5.5 -169t50.5 -100.5l17 -10l18 -2h21q29 1 66 11.5t82.5 37.5t82 65.5t60.5 104t22 145.5v2q-13 159 -100 286.5t-224.5 196t-296.5 60.5q-160 -10 -291 -97t-202 -227t-62 -299q6 -119 57 -224t140 -183q183 -162 426 -150q72 6 139 27 l35 -80q-83 -27 -170 -33h-39q-176 0 -327.5 84.5t-244 231t-102.5 321.5q-8 137 38 265.5t131.5 224t207 156.5t258.5 69h39q170 0 319.5 -81t244.5 -222.5t110 -310.5zM879 854l10 57l-58 19q-77 27 -149 -8q-63 -32 -103 -106t-49 -173q-5 -62 29 -118.5t92 -82.5 q37 -16 70 -16q58 0 110 43l29 23l-4 36q-10 145 23 326z" glyph-name="at" horiz-adv-x="1554" unicode="@"/><glyph d="M608 1434l295 -1434h-106l-254 1233q-89 -339 -332 -1233h-109q358 1321 387 1434h119z" glyph-name="A" horiz-adv-x="1005" unicode="A"/><glyph d="M569 770q86 -50 136.5 -137.5t50.5 -190.5v-59q0 -157 -111 -268t-268 -111h-275v57v1323v48h332q98 0 168 -70t70 -168v-221q0 -61 -28 -114.5t-75 -88.5zM207 1327v-504h209q63 0 107 43.5t44 106.5v221q0 56 -38.5 94.5t-94.5 38.5h-227zM653 383v59q0 114 -81 195.5 t-195 81.5h-170v-613h170q114 0 195 81.5t81 195.5z" glyph-name="B" horiz-adv-x="858" unicode="B"/><glyph d="M520 104q61 0 104.5 47t43.5 113h104q0 -109 -74 -186.5t-178 -77.5h-166q-104 0 -178 77.5t-74 186.5v907q0 101 64 176t158 87q5 0 15 1t15 1h166q5 0 15.5 -1t15.5 -1q94 -12 157.5 -87t63.5 -176h-104q0 66 -43.5 113t-104.5 47h-166q-61 0 -104 -47t-43 -113v-907 q0 -66 43 -113t104 -47h166z" glyph-name="C" unicode="C"/><glyph d="M451 1434q130 -14 217.5 -111.5t87.5 -230.5v-746q0 -142 -100.5 -243t-241.5 -101h-312v1434h312q6 0 18.5 -1t18.5 -1zM653 346v746q0 99 -70 169t-169 70h-207v-1225h207q98 0 168.5 70t70.5 170z" glyph-name="D" horiz-adv-x="858" unicode="D"/><glyph d="M723 639h-516v-535h516v-102h-516v-2h-105v1436h621v-105h-516v-588h516v-104z" glyph-name="E" horiz-adv-x="825" unicode="E"/><glyph d="M207 743h516v-104h-516v-639h-105v1436h621v-105h-516v-588z" glyph-name="F" horiz-adv-x="825" unicode="F"/><glyph d="M772 975h-104v196q0 66 -43.5 113t-104.5 47h-166q-61 0 -104 -47t-43 -113v-905q0 -66 43 -113t104 -47h166q61 0 104.5 47t43.5 113v350h-197v103h301v-453q0 -109 -74 -185.5t-178 -76.5h-166q-104 0 -178 76.5t-74 185.5v905q0 101 64 176t158 87q5 0 15 1t15 1h166 q5 0 15.5 -1t15.5 -1q94 -12 157.5 -87t63.5 -176v-196z" glyph-name="G" unicode="G"/><glyph d="M670 1434h104v-1434h-104v637h-463v-637h-105v1434h105v-695h463v695z" glyph-name="H" horiz-adv-x="876" unicode="H"/><glyph d="M207 0h-105v1434h105v-1434z" glyph-name="I" horiz-adv-x="309" unicode="I"/><glyph d="M418 1434h102v-1176q0 -106 -74 -181t-178 -75h-166v102h166q61 0 105.5 45.5t44.5 108.5v1176z" glyph-name="J" horiz-adv-x="622" unicode="J"/><glyph d="M207 0h-105v1434h105v-1434zM901 1434l-534 -729l489 -705h-127l-481 694l-12 8l4 5v2h2l530 725h129z" glyph-name="K" horiz-adv-x="1003" unicode="K"/><glyph d="M207 111h342v-105h-447v1428h105v-1323z" glyph-name="L" horiz-adv-x="651" unicode="L"/><glyph d="M850 1434h90v-1434h-104v1063l-306 -922l-323 934v-1075h-105v1434h91l335 -969z" glyph-name="M" horiz-adv-x="1042" unicode="M"/><glyph d="M713 1434h104v-1434h-86l-524 1143v-1143h-105v1434h84l527 -1145v1145z" glyph-name="N" horiz-adv-x="919" unicode="N"/><glyph d="M547 1434q96 -11 160.5 -82.5t64.5 -169.5v-926q0 -104 -74 -178t-178 -74h-166q-104 0 -178 74t-74 178v926q0 97 66 169t162 83h24h166h27zM668 256v926q0 62 -43.5 105.5t-104.5 43.5h-166q-61 0 -104 -43.5t-43 -105.5v-926q0 -62 43 -106t104 -44h166q61 0 104.5 44 t43.5 106z" glyph-name="O" unicode="O"/><glyph d="M426 1434q103 -12 174.5 -91t71.5 -184v-217q0 -122 -87 -208.5t-208 -86.5h-170v-647h-105v1434h295h29zM567 942v217q0 71 -50 121.5t-120 50.5h-190v-579h170q78 0 134 56t56 134z" glyph-name="P" horiz-adv-x="774" unicode="P"/><glyph d="M752 0l41 -61l-84 -60l-84 121l-15 20q-36 -16 -90 -16h-166q-104 0 -178 74t-74 178v932q0 89 55 157.5t140 88.5q27 6 57 6h166q31 0 58 -6q85 -20 139.5 -88.5t54.5 -157.5v-932q0 -103 -74 -180zM668 256v932q0 61 -43 104t-105 43h-166q-62 0 -104.5 -42.5 t-42.5 -104.5v-932q0 -62 43 -106t104 -44h166q9 0 29 5l-31 43l86 59l33 -49q31 39 31 92z" glyph-name="Q" horiz-adv-x="894" unicode="Q"/><glyph d="M422 653l418 -653h-123l-416 649h-94v-647h-105v1432h295h29q103 -12 174.5 -91t71.5 -184v-215q0 -110 -72 -193t-178 -98zM207 754h170q78 0 134 55.5t56 134.5v215q0 71 -50 121.5t-120 50.5h-190v-577z" glyph-name="R" horiz-adv-x="942" unicode="R"/><glyph d="M772 1040h-104v164q0 52 -34 89.5t-81 37.5h-197q-61 0 -105 -47t-44 -110q0 -44 3.5 -81t14.5 -67.5t20.5 -53t30 -44t33.5 -34.5t41.5 -30t43 -25.5t48.5 -25.5q35 -18 53 -27.5t51 -30t51.5 -36t46 -42.5t43 -53t34 -64.5t28 -80t16.5 -96t7 -115.5q0 -114 -78 -192 q-74 -74 -174 -74h-213q-85 0 -145 63t-60 152v154h105v-154q0 -46 29.5 -78.5t70.5 -32.5h213q60 0 101 41q50 50 47 121q0 58 -5 106t-17.5 86.5t-24.5 68t-35 55.5t-39 42.5t-48 36t-49.5 29.5t-54.5 29q-39 20 -60 31.5t-57 35.5t-56.5 45.5t-46.5 57t-39.5 74 t-23.5 92.5t-10 117q0 100 65.5 174.5t160.5 85.5h28h197h25q83 -11 138.5 -76t55.5 -154v-164z" glyph-name="S" unicode="S"/><glyph d="M102 1434h820v-103h-344v-1331h-105v1331h-371v103z" glyph-name="T" horiz-adv-x="1024" unicode="T"/><glyph d="M668 1434h104v-1174q0 -107 -74 -182.5t-178 -75.5h-166q-104 0 -178 75.5t-74 182.5v1174h105v-1174q0 -64 42.5 -109t104.5 -45h166q62 0 105 45t43 109v1174z" glyph-name="U" unicode="U"/><glyph d="M811 1434h109l-359 -1434h-82l-377 1434h107l309 -1176z" glyph-name="V" horiz-adv-x="1021" unicode="V"/><glyph d="M1284 1434h109l-385 -1434h-84l-172 782l-160 -782h-84l-406 1434h109l330 -1168l209 1020l221 -1018z" glyph-name="W" horiz-adv-x="1495" unicode="W"/><glyph d="M668 762l426 -762h-119l-367 657l-385 -657h-121l447 762l-375 672h119l317 -568l332 568h121z" glyph-name="X" horiz-adv-x="1196" unicode="X"/><glyph d="M870 1434h121l-401 -682l-2 2v-754h-105v750l-381 684h119l318 -568z" glyph-name="Y" horiz-adv-x="1093" unicode="Y"/><glyph d="M262 102h608v-102h-768l584 1331h-573v105h731l-2 -2z" glyph-name="Z" horiz-adv-x="972" unicode="Z"/><glyph d="M539 1298h-351v-1267h351v-31h-437v1362h437v-64z" glyph-name="bracketleft" horiz-adv-x="641" unicode="["/><glyph d="M193 1362l397 -1362h-90l-398 1362h91z" glyph-name="backslash" horiz-adv-x="692" unicode="\"/><glyph d="M102 1362h437v-1362h-437v31h351v1267h-351v64z" glyph-name="bracketright" horiz-adv-x="641" unicode="]"/><glyph d="M510 1452l446 -465v-12l-34 -33l-412 430l-369 -377l-39 37z" glyph-name="asciicircum" horiz-adv-x="1058" unicode="^"/><glyph d="M680 -86h-578v86h578v-86z" glyph-name="underscore" horiz-adv-x="782" unicode="_"/><glyph d="M156 1649l57 -162l-53 -19l-58 160z" glyph-name="grave" horiz-adv-x="315" unicode="`"/><glyph d="M608 1434l295 -1434h-106l-254 1233q-89 -339 -332 -1233h-109q358 1321 387 1434h119z" glyph-name="a" horiz-adv-x="1005" unicode="a"/><glyph d="M569 770q86 -50 136.5 -137.5t50.5 -190.5v-59q0 -157 -111 -268t-268 -111h-275v57v1323v48h332q98 0 168 -70t70 -168v-221q0 -61 -28 -114.5t-75 -88.5zM207 1327v-504h209q63 0 107 43.5t44 106.5v221q0 56 -38.5 94.5t-94.5 38.5h-227zM653 383v59q0 114 -81 195.5 t-195 81.5h-170v-613h170q114 0 195 81.5t81 195.5z" glyph-name="b" horiz-adv-x="858" unicode="b"/><glyph d="M520 104q61 0 104.5 47t43.5 113h104q0 -109 -74 -186.5t-178 -77.5h-166q-104 0 -178 77.5t-74 186.5v907q0 101 64 176t158 87q5 0 15 1t15 1h166q5 0 15.5 -1t15.5 -1q94 -12 157.5 -87t63.5 -176h-104q0 66 -43.5 113t-104.5 47h-166q-61 0 -104 -47t-43 -113v-907 q0 -66 43 -113t104 -47h166z" glyph-name="c" unicode="c"/><glyph d="M451 1434q130 -14 217.5 -111.5t87.5 -230.5v-746q0 -142 -100.5 -243t-241.5 -101h-312v1434h312q6 0 18.5 -1t18.5 -1zM653 346v746q0 99 -70 169t-169 70h-207v-1225h207q98 0 168.5 70t70.5 170z" glyph-name="d" horiz-adv-x="858" unicode="d"/><glyph d="M723 639h-516v-535h516v-102h-516v-2h-105v1436h621v-105h-516v-588h516v-104z" glyph-name="e" horiz-adv-x="825" unicode="e"/><glyph d="M207 743h516v-104h-516v-639h-105v1436h621v-105h-516v-588z" glyph-name="f" horiz-adv-x="825" unicode="f"/><glyph d="M772 975h-104v196q0 66 -43.5 113t-104.5 47h-166q-61 0 -104 -47t-43 -113v-905q0 -66 43 -113t104 -47h166q61 0 104.5 47t43.5 113v350h-197v103h301v-453q0 -109 -74 -185.5t-178 -76.5h-166q-104 0 -178 76.5t-74 185.5v905q0 101 64 176t158 87q5 0 15 1t15 1h166 q5 0 15.5 -1t15.5 -1q94 -12 157.5 -87t63.5 -176v-196z" glyph-name="g" unicode="g"/><glyph d="M670 1434h104v-1434h-104v637h-463v-637h-105v1434h105v-695h463v695z" glyph-name="h" horiz-adv-x="876" unicode="h"/><glyph d="M207 0h-105v1434h105v-1434z" glyph-name="i" horiz-adv-x="309" unicode="i"/><glyph d="M418 1434h102v-1176q0 -106 -74 -181t-178 -75h-166v102h166q61 0 105.5 45.5t44.5 108.5v1176z" glyph-name="j" horiz-adv-x="622" unicode="j"/><glyph d="M207 0h-105v1434h105v-1434zM901 1434l-534 -729l489 -705h-127l-481 694l-12 8l4 5v2h2l530 725h129z" glyph-name="k" horiz-adv-x="1003" unicode="k"/><glyph d="M207 111h342v-105h-447v1428h105v-1323z" glyph-name="l" horiz-adv-x="651" unicode="l"/><glyph d="M850 1434h90v-1434h-104v1063l-306 -922l-323 934v-1075h-105v1434h91l335 -969z" glyph-name="m" horiz-adv-x="1042" unicode="m"/><glyph d="M713 1434h104v-1434h-86l-524 1143v-1143h-105v1434h84l527 -1145v1145z" glyph-name="n" horiz-adv-x="919" unicode="n"/><glyph d="M547 1434q96 -11 160.5 -82.5t64.5 -169.5v-926q0 -104 -74 -178t-178 -74h-166q-104 0 -178 74t-74 178v926q0 97 66 169t162 83h24h166h27zM668 256v926q0 62 -43.5 105.5t-104.5 43.5h-166q-61 0 -104 -43.5t-43 -105.5v-926q0 -62 43 -106t104 -44h166q61 0 104.5 44 t43.5 106z" glyph-name="o" unicode="o"/><glyph d="M426 1434q103 -12 174.5 -91t71.5 -184v-217q0 -122 -87 -208.5t-208 -86.5h-170v-647h-105v1434h295h29zM567 942v217q0 71 -50 121.5t-120 50.5h-190v-579h170q78 0 134 56t56 134z" glyph-name="p" horiz-adv-x="774" unicode="p"/><glyph d="M752 0l41 -61l-84 -60l-84 121l-15 20q-36 -16 -90 -16h-166q-104 0 -178 74t-74 178v932q0 89 55 157.5t140 88.5q27 6 57 6h166q31 0 58 -6q85 -20 139.5 -88.5t54.5 -157.5v-932q0 -103 -74 -180zM668 256v932q0 61 -43 104t-105 43h-166q-62 0 -104.5 -42.5 t-42.5 -104.5v-932q0 -62 43 -106t104 -44h166q9 0 29 5l-31 43l86 59l33 -49q31 39 31 92z" glyph-name="q" horiz-adv-x="894" unicode="q"/><glyph d="M422 653l418 -653h-123l-416 649h-94v-647h-105v1432h295h29q103 -12 174.5 -91t71.5 -184v-215q0 -110 -72 -193t-178 -98zM207 754h170q78 0 134 55.5t56 134.5v215q0 71 -50 121.5t-120 50.5h-190v-577z" glyph-name="r" horiz-adv-x="942" unicode="r"/><glyph d="M772 1040h-104v164q0 52 -34 89.5t-81 37.5h-197q-61 0 -105 -47t-44 -110q0 -44 3.5 -81t14.5 -67.5t20.5 -53t30 -44t33.5 -34.5t41.5 -30t43 -25.5t48.5 -25.5q35 -18 53 -27.5t51 -30t51.5 -36t46 -42.5t43 -53t34 -64.5t28 -80t16.5 -96t7 -115.5q0 -114 -78 -192 q-74 -74 -174 -74h-213q-85 0 -145 63t-60 152v154h105v-154q0 -46 29.5 -78.5t70.5 -32.5h213q60 0 101 41q50 50 47 121q0 58 -5 106t-17.5 86.5t-24.5 68t-35 55.5t-39 42.5t-48 36t-49.5 29.5t-54.5 29q-39 20 -60 31.5t-57 35.5t-56.5 45.5t-46.5 57t-39.5 74 t-23.5 92.5t-10 117q0 100 65.5 174.5t160.5 85.5h28h197h25q83 -11 138.5 -76t55.5 -154v-164z" glyph-name="s" unicode="s"/><glyph d="M102 1434h820v-103h-344v-1331h-105v1331h-371v103z" glyph-name="t" horiz-adv-x="1024" unicode="t"/><glyph d="M668 1434h104v-1174q0 -107 -74 -182.5t-178 -75.5h-166q-104 0 -178 75.5t-74 182.5v1174h105v-1174q0 -64 42.5 -109t104.5 -45h166q62 0 105 45t43 109v1174z" glyph-name="u" unicode="u"/><glyph d="M811 1434h109l-359 -1434h-82l-377 1434h107l309 -1176z" glyph-name="v" horiz-adv-x="1021" unicode="v"/><glyph d="M1284 1434h109l-385 -1434h-84l-172 782l-160 -782h-84l-406 1434h109l330 -1168l209 1020l221 -1018z" glyph-name="w" horiz-adv-x="1495" unicode="w"/><glyph d="M668 762l426 -762h-119l-367 657l-385 -657h-121l447 762l-375 672h119l317 -568l332 568h121z" glyph-name="x" horiz-adv-x="1196" unicode="x"/><glyph d="M870 1434h121l-401 -682l-2 2v-754h-105v750l-381 684h119l318 -568z" glyph-name="y" horiz-adv-x="1093" unicode="y"/><glyph d="M262 102h608v-102h-768l584 1331h-573v105h731l-2 -2z" glyph-name="z" horiz-adv-x="972" unicode="z"/><glyph d="M301 1006q0 -204 -61 -287l-33 -41l33 -43q61 -81 61 -287q0 -36 0.5 -51.5t2 -47t4.5 -45.5t8.5 -39.5t13 -37.5t19.5 -29.5t27.5 -27t36 -18.5t46.5 -13v-39h-131q-39 28 -64 69.5t-34.5 95.5t-12 90.5t-2.5 92.5q-1 53 -2.5 84.5t-8 68.5t-18.5 58.5t-33 39t-51 24.5 v108q31 8 51.5 25.5t32.5 39t18.5 58.5t8 68.5t2.5 85.5q0 58 2.5 95t13.5 93t38.5 97.5t70.5 68.5h119v-47q-26 -4 -46.5 -13t-36 -18t-27.5 -26.5t-19.5 -30t-13 -37.5t-8.5 -39t-4.5 -46t-2 -47.5t-0.5 -51.5z" glyph-name="braceleft" horiz-adv-x="561" unicode="{"/><glyph d="M188 -43h-86v1479h86v-1479z" glyph-name="bar" horiz-adv-x="290" unicode="|"/><glyph d="M346 1008q1 -54 2.5 -85.5t8 -68.5t18.5 -58.5t32.5 -39t51.5 -25.5v-108q-30 -7 -51 -24.5t-33 -39t-18.5 -58.5t-8 -68.5t-2.5 -84.5q0 -56 -2.5 -92.5t-12 -90.5t-34.5 -95.5t-64 -69.5h-131v39q26 4 46.5 13t36 18.5t27.5 27t19.5 29.5t13 37.5t8.5 39.5t4.5 45.5 t2 47t0.5 51.5q0 205 62 287l32 43l-32 41q-62 84 -62 287q0 36 -0.5 51.5t-2 47.5t-4.5 46t-8.5 39t-13 37.5t-19.5 30t-27.5 26.5t-36 18t-46.5 13v47h119q35 -22 60 -56.5t37.5 -67.5t19 -80.5t7.5 -76t1 -73.5z" glyph-name="braceright" horiz-adv-x="561" unicode="}"/><glyph d="M639 754l41 -41q-60 -55 -108 -82t-86.5 -25.5t-65.5 13.5t-62 40q-46 39 -79 39h-7q-55 -3 -129 -71l-41 39q53 48 96 71t78.5 20.5t60.5 -14.5t58 -38q20 -17 30 -24t27.5 -13t34.5 -4q62 6 152 90z" glyph-name="asciitilde" horiz-adv-x="782" unicode="~"/><glyph d="M219 -203h-86v959h86v-959zM176 1161q30 0 52 -26t22 -62t-22 -62t-52 -26t-52 26t-22 62t22 62t52 26z" glyph-name="exclamdown" horiz-adv-x="352" unicode="¡"/><glyph d="M905 270l66 -57q-116 -103 -273 -125l-59 -8v-105h-86v109l-53 14q-175 43 -286.5 184.5t-111.5 321.5q0 181 111.5 323t286.5 185l53 14v177h86v-173l59 -8q152 -22 265 -118l-64 -58q-78 63 -174 84q-137 33 -268 -22q-122 -51 -195.5 -161t-73.5 -243 q0 -132 73.5 -241t195.5 -160q78 -35 168 -35q53 0 100 12q94 20 180 90z" glyph-name="cent" horiz-adv-x="1073" unicode="¢"/><glyph d="M641 1208q-134 -56 -203 -169t-69 -277v-113h456v-88h-456v-487h721v-86h-988v86h181v487h-181v88h181v113q0 97 23 180t56 137.5t79.5 99t85.5 68t81 41.5q140 58 303 48t273 -81l-64 -61q-91 49 -219 56t-260 -42z" glyph-name="sterling" horiz-adv-x="1286" unicode="£"/><glyph d="M559 672v-137h318v-86h-318v-216h318v-88h-318v-170h-86v170h-319v88h319v216h-319v86h319v112l-371 692h99l309 -579l319 579h99z" glyph-name="yen" horiz-adv-x="1030" unicode="¥"/><glyph d="M188 770h-86v666h86v-666zM188 -43h-86v707h86v-707z" glyph-name="brokenbar" horiz-adv-x="290" unicode="¦"/><glyph d="M739 565v-4v-6q-3 -57 -34.5 -105.5t-83.5 -74.5l-52 -25l15 -55q12 -41 12 -92v-4v-6q-5 -86 -67 -145.5t-148 -59.5h-62q-71 0 -126.5 41t-77.5 106h67q21 -38 57.5 -61t79.5 -23h62q59 0 102.5 41.5t48.5 100.5v4v4q-1 49 -14.5 88t-29.5 63.5t-48.5 49t-54 36 t-63.5 31.5q-44 21 -66 33t-57 38t-52.5 51.5t-31 66t-13.5 90.5q0 62 32 113t87 79l53 27l-16 55q-12 40 -12 88q0 89 63 153t152 64h63q70 0 126.5 -41t78.5 -106h-70q-19 37 -55 59.5t-80 22.5h-63q-63 0 -107.5 -44.5t-44.5 -107.5q0 -47 13 -81.5t43.5 -60.5t54.5 -40 t72 -37q44 -21 68.5 -34.5t62.5 -43t59 -60t38 -79.5t19 -109zM676 557v4v2q-1 49 -14.5 89t-29.5 64t-49.5 49t-53.5 36t-64 33q-52 22 -100 53l-19 12h-27q-63 0 -108 -44t-45 -107q0 -38 11 -69t24.5 -51t42.5 -41t48 -31t58 -30q2 -1 26.5 -13.5t33.5 -17t28 -15.5 t33 -21.5t27 -22.5l26 -24l37 8q48 12 80 50t35 87z" glyph-name="section" horiz-adv-x="841" unicode="§"/><glyph d="M440 1477q-34 0 -58 24t-24 58q0 33 24 56t58 23t58 -23t24 -56q0 -34 -24 -58t-58 -24zM184 1638q33 0 56.5 -23t23.5 -56q0 -34 -24 -58t-56 -24q-34 0 -58 24t-24 58q0 33 24 56t58 23z" glyph-name="dieresis" horiz-adv-x="624" unicode="¨"/><glyph d="M524 496q57 0 107 32l24 -22q-56 -41 -131 -41q-92 0 -157.5 65.5t-65.5 157.5t65.5 157.5t157.5 65.5q69 0 127 -39l-22 -22q-48 31 -105 31q-78 0 -135 -57t-57 -136t57 -135.5t135 -56.5zM508 1094q168 0 287.5 -119t119.5 -287q0 -167 -119 -286t-288 -119 q-167 0 -286.5 119t-119.5 286t119.5 286.5t286.5 119.5zM508 313q155 0 266 110t111 265t-111 265t-266 110t-265 -110t-110 -265t110 -265t265 -110z" glyph-name="copyright" horiz-adv-x="1017" unicode="©"/><glyph d="M389 1434l168 -816h-59l-146 701q-40 -153 -188 -701h-62q194 713 220 816h67z" glyph-name="ordfeminine" horiz-adv-x="659" unicode="ª"/><glyph d="M1165 1260l-678 -652l596 -579l-51 -54h-18l-652 633l744 715zM905 1260l-678 -652l596 -579l-51 -54h-18l-652 633l744 715z" glyph-name="guillemotleft" horiz-adv-x="1267" unicode="«"/><glyph d="M508 1094q168 0 287.5 -119t119.5 -287q0 -167 -119 -286t-288 -119q-167 0 -286.5 119t-119.5 286t119.5 286.5t286.5 119.5zM508 313q155 0 266 110t111 265t-111 265t-266 110t-265 -110t-110 -265t110 -265t265 -110zM592 743q0 -32 -22 -56.5t-54 -29.5l127 -196 h-37l-125 194h-28v-194h-33v430h90h8q31 -3 52.5 -26.5t21.5 -55.5v-66zM453 860v-174h51q23 0 40 17t17 40v66q0 21 -15 36t-36 15h-57z" glyph-name="registered" horiz-adv-x="1017" unicode="®"/><glyph d="M680 1350h-578v86h578v-86z" glyph-name="macron" horiz-adv-x="782" unicode="¯"/><glyph d="M229 1466q53 0 90 -37t37 -90t-37 -90t-90 -37t-90 37t-37 90t37 90t90 37zM229 1276q26 0 45 18.5t19 44.5t-19 45t-45 19t-45.5 -19t-19.5 -45t19.5 -44.5t45.5 -18.5z" glyph-name="degree" horiz-adv-x="458" unicode="°"/><glyph d="M348 408v247h-246v86h246v246h86v-246h246v-86h-246v-247h-86zM680 240h-578v86h578v-86z" glyph-name="plusminus" horiz-adv-x="782" unicode="±"/><glyph d="M205 608l-6 -33h358v-67h-446v24q0 60 15 116t33 93.5t54.5 82.5t56.5 65.5t62 60.5q81 76 116 127.5t35 116.5q0 50 -34.5 84.5t-83.5 34.5h-58q-41 0 -73 -26t-41 -66h-91q10 76 69 128t136 52h58q85 0 145.5 -60.5t60.5 -146.5q0 -40 -11.5 -78.5t-25.5 -65t-43 -61.5 t-46 -52t-54 -52q-40 -38 -61.5 -60.5t-51 -59t-47 -75t-26.5 -82.5z" glyph-name="twosuperior" horiz-adv-x="673" unicode="²"/><glyph d="M590 1128q0 -89 -64 -153l-18 -19l18 -18q64 -64 64 -154v-57q0 -89 -63 -153t-152 -64h-60q-81 0 -141.5 55t-71.5 135h91q9 -44 43.5 -72t78.5 -28h60q53 0 90 36.5t37 90.5v57q0 45 -29 80.5t-72 44.5v95q43 9 72 44t29 80v58q0 52 -37 89.5t-90 37.5h-60 q-44 0 -78.5 -29t-43.5 -72h-91q11 80 71.5 134.5t141.5 54.5h60q89 0 152 -63t63 -152v-58z" glyph-name="threesuperior" horiz-adv-x="692" unicode="³"/><glyph d="M160 1649l53 -21l-57 -160l-54 19z" glyph-name="acute" horiz-adv-x="315" unicode="´"/><glyph d="M180 469q-32 0 -55 27t-23 65q0 37 23 63.5t55 26.5t55 -26.5t23 -63.5q0 -38 -23 -65t-55 -27z" glyph-name="periodcentered" horiz-adv-x="362" unicode="·"/><glyph d="M365 -25q25 -54 4 -109.5t-76 -80.5q-54 -25 -110 -4t-81 76l76 34q10 -23 34.5 -32t47.5 2q23 10 31.5 33.5t-2.5 46.5q-10 23 -33.5 32t-46.5 -2l-35 76q54 25 110 4t81 -76z" glyph-name="cedilla" horiz-adv-x="481" unicode="¸"/><glyph d="M102 1405h91v-897h-89v768z" glyph-name="onesuperior" horiz-adv-x="294" unicode="¹"/><glyph d="M371 1401q113 0 190.5 -129t77.5 -316t-77.5 -315.5t-190.5 -128.5t-191 128.5t-78 315.5t78 316t191 129zM371 600q72 0 126 107t54 249q0 143 -54 250t-126 107t-126.5 -107.5t-54.5 -249.5t54.5 -249t126.5 -107z" glyph-name="ordmasculine" horiz-adv-x="741" unicode="º"/><glyph d="M254 1323l651 -635l-743 -713l-60 62l678 653l-596 580l52 53h18zM514 1323l651 -635l-743 -713l-60 62l678 653l-596 580l52 53h18z" glyph-name="guillemotright" horiz-adv-x="1267" unicode="»"/><glyph d="M129 508v768l-2 129h90v-897h-88zM997 872h146v-897h-88v187l-367 -4l-2 106zM1055 250v538l-279 -542zM961 1362h90l-858 -1362h-91z" glyph-name="onequarter" horiz-adv-x="1245" unicode="¼"/><glyph d="M1016 100l-6 -32h356v-68h-446v25q0 60 15 116t33 93t54.5 82t56.5 65t62 61q81 76 116 127.5t35 116.5q0 50 -34.5 84.5t-83.5 34.5h-56q-41 0 -74.5 -26t-42.5 -66h-88q9 77 68 129.5t137 52.5h56q86 0 146 -61t60 -148q0 -40 -11 -78.5t-25 -65.5t-42.5 -61t-46.5 -52 t-53 -52q-52 -49 -82 -81t-61 -85t-43 -111zM129 508v768l-2 129h90v-897h-88zM961 1362h90l-858 -1362h-91z" glyph-name="onehalf" horiz-adv-x="1482" unicode="½"/><glyph d="M590 727q0 -89 -63 -153t-152 -64h-60q-81 0 -141.5 55t-71.5 135h91q9 -44 43.5 -72t78.5 -28h60q53 0 90 36.5t37 90.5v57q0 45 -29 80.5t-72 44.5v95q43 9 72 44t29 80v58q0 52 -37 89.5t-90 37.5h-60q-44 0 -78.5 -29t-43.5 -72h-91q11 80 71.5 134.5t141.5 54.5h60 q89 0 152 -63t63 -152v-58q0 -89 -64 -153l-18 -19l18 -18q64 -64 64 -154v-57zM1280 872h145v-897h-88v187l-366 -4l-2 106zM1337 250v538l-278 -542zM1243 1362h90l-858 -1362h-90z" glyph-name="threequarters" horiz-adv-x="1527" unicode="¾"/><glyph d="M459 729q-31 0 -52.5 25.5t-21.5 60.5q0 37 21.5 62.5t52.5 25.5t52 -25.5t21 -62.5q0 -35 -21 -60.5t-52 -25.5zM645 -274l80 -33q-74 -116 -201 -152h-178q-108 31 -176 123t-68 209q0 115 68.5 208t175.5 124l51 14l-4 227h86v-174q0 -52 -30.5 -93.5t-77.5 -55.5 q-80 -23 -131.5 -93.5t-51.5 -156.5q0 -107 72.5 -183.5t175.5 -76.5q53 0 110.5 28t98.5 85z" glyph-name="questiondown" horiz-adv-x="827" unicode="¿"/><glyph d="M608 1434l295 -1434h-106l-254 1233q-89 -339 -332 -1233h-109q358 1321 387 1434h119zM518 1665l57 -162l-55 -18l-55 160z" glyph-name="Agrave" horiz-adv-x="1005" unicode="À"/><glyph d="M608 1434l295 -1434h-106l-254 1233q-89 -339 -332 -1233h-109q358 1321 387 1434h119zM559 1665l55 -20l-57 -160l-53 18z" glyph-name="Aacute" horiz-adv-x="1005" unicode="Á"/><glyph d="M608 1434l295 -1434h-106l-254 1233q-89 -339 -332 -1233h-109q358 1321 387 1434h119zM733 1460q4 -6 4 -20q-3 -12 -14 -19q-9 -6 -21 -2.5t-18 13.5l-135 223l-137 -223q-6 -10 -18 -13.5t-21 2.5q-10 6 -13.5 18t2.5 21l156 256q10 17 27 13h2h4q19 0 27 -13z" glyph-name="Acircumflex" horiz-adv-x="1005" unicode="Â"/><glyph d="M608 1434l295 -1434h-106l-254 1233q-89 -339 -332 -1233h-109q358 1321 387 1434h119zM805 1649l41 -41q-60 -55 -108 -81.5t-86.5 -25t-65.5 13.5t-62 39q-19 15 -28 21.5t-24 13t-30 6.5h-4q-52 -3 -131 -73l-41 41q53 47 96 69.5t78.5 19.5t60 -15t58.5 -38 q52 -42 94 -40q63 6 152 90z" glyph-name="Atilde" horiz-adv-x="1005" unicode="Ã"/><glyph d="M608 1434l295 -1434h-106l-254 1233q-89 -339 -332 -1233h-109q358 1321 387 1434h119zM688 1505q-34 0 -57 24t-23 58t23 57t57 23t58 -23t24 -57t-24 -58t-58 -24zM432 1667q34 0 57 -23t23 -57t-23 -58t-57 -24t-58 24t-24 58t24 57t58 23z" glyph-name="Adieresis" horiz-adv-x="1005" unicode="Ä"/><glyph d="M608 1434l295 -1434h-106l-254 1233q-89 -339 -332 -1233h-109q358 1321 387 1434h119zM557 1755q59 0 101 -41.5t42 -101.5t-42 -103t-101 -43q-60 0 -102.5 43t-42.5 103t42.5 101.5t102.5 41.5zM557 1550q25 0 43 18t18 44q0 25 -18 43t-43 18q-26 0 -43.5 -18 t-17.5 -43q0 -26 17.5 -44t43.5 -18z" glyph-name="Aring" horiz-adv-x="1005" unicode="Å"/><glyph d="M901 1331v-588h516v-104h-516v-535h516v-102h-514v-2h-106l-254 1233q-89 -339 -332 -1233h-109q358 1321 387 1434h119l189 -920v922h620v-105h-516z" glyph-name="AE" horiz-adv-x="1519" unicode="Æ"/><glyph d="M520 104q61 0 104.5 47t43.5 113h104q0 -109 -74 -186.5t-178 -77.5h-166q-104 0 -178 77.5t-74 186.5v907q0 101 64 176t158 87q5 0 15 1t15 1h166q5 0 15.5 -1t15.5 -1q94 -12 157.5 -87t63.5 -176h-104q0 66 -43.5 113t-104.5 47h-166q-61 0 -104 -47t-43 -113v-907 q0 -66 43 -113t104 -47h166zM563 -25q25 -54 4 -109.5t-75 -80.5q-55 -25 -111.5 -4t-81.5 76l76 34q10 -23 34.5 -32t47.5 2q23 10 31 33.5t-1 46.5q-10 23 -34 32t-47 -2l-35 76q55 25 110.5 4t81.5 -76z" glyph-name="Ccedilla" unicode="Ç"/><glyph d="M723 639h-516v-535h516v-102h-516v-2h-105v1436h621v-105h-516v-588h516v-104zM397 1696l58 -162l-54 -18l-57 159z" glyph-name="Egrave" horiz-adv-x="825" unicode="È"/><glyph d="M723 639h-516v-535h516v-102h-516v-2h-105v1436h621v-105h-516v-588h516v-104zM436 1679l53 -20l-57 -160l-53 19z" glyph-name="Eacute" horiz-adv-x="825" unicode="É"/><glyph d="M723 639h-516v-535h516v-102h-516v-2h-105v1436h621v-105h-516v-588h516v-104zM614 1520q4 -6 4 -21q-3 -10 -14 -18q-9 -6 -21 -3t-18 13l-135 223l-137 -223q-6 -10 -18 -13t-21 3q-10 6 -13 18t3 21l155 256q10 16 27 12h2h4q20 0 27 -12z" glyph-name="Ecircumflex" horiz-adv-x="825" unicode="Ê"/><glyph d="M723 639h-516v-535h516v-102h-516v-2h-105v1436h621v-105h-516v-588h516v-104zM557 1542q-34 0 -58 24t-24 58t24 57t58 23t58 -23t24 -57t-24 -58t-58 -24zM301 1704q33 0 56.5 -23.5t23.5 -56.5q0 -34 -24 -58t-56 -24q-34 0 -58 24t-24 58t24 57t58 23z" glyph-name="Edieresis" horiz-adv-x="825" unicode="Ë"/><glyph d="M207 0h-105v1434h105v-1434zM129 1696l57 -162l-53 -18l-57 159z" glyph-name="Igrave" horiz-adv-x="309" unicode="Ì"/><glyph d="M207 0h-105v1434h105v-1434zM176 1679l53 -20l-57 -160l-53 19z" glyph-name="Iacute" horiz-adv-x="309" unicode="Í"/><glyph d="M207 0h-105v1434h105v-1434zM326 1520q4 -6 4 -21q-2 -10 -15 -18q-9 -6 -21 -3t-18 13l-135 223l-137 -223q-6 -10 -18 -13t-21 3q-10 6 -13 18t3 21l156 256q10 16 26 12h2h4q20 0 27 -12z" glyph-name="Icircumflex" horiz-adv-x="309" unicode="Î"/><glyph d="M207 0h-105v1434h105v-1434zM293 1542q-34 0 -58 24t-24 58t24 57t58 23t58 -23t24 -57t-24 -58t-58 -24zM37 1704q33 0 56.5 -23.5t23.5 -56.5q0 -34 -24 -58t-56 -24q-34 0 -58 24t-24 58t24 57t58 23z" glyph-name="Idieresis" horiz-adv-x="309" unicode="Ï"/><glyph d="M532 1434q130 -14 218 -111.5t88 -230.5v-746q0 -142 -100.5 -243t-241.5 -101h-312v551h-82v88h82v795h312q6 0 18 -1t18 -1zM735 346v746q0 99 -70 169t-169 70h-207v-690h121v-88h-121v-447h207q98 0 168.5 70t70.5 170z" glyph-name="Eth" horiz-adv-x="940" unicode="Ð"/><glyph d="M713 1434h104v-1434h-86l-524 1143v-1143h-105v1434h84l527 -1145v1145zM705 1683l40 -41q-48 -44 -89.5 -69t-71.5 -33t-60.5 -1.5t-51 18t-48.5 32.5q-19 15 -28 21.5t-24 13t-30 6.5h-6q-49 -3 -129 -74l-41 41q53 47 96 69.5t78.5 20t60.5 -14.5t58 -38 q27 -22 48 -32t46 -9q59 6 152 90z" glyph-name="Ntilde" horiz-adv-x="919" unicode="Ñ"/><glyph d="M547 1434q96 -11 160.5 -82.5t64.5 -169.5v-926q0 -104 -74 -178t-178 -74h-166q-104 0 -178 74t-74 178v926q0 97 66 169t162 83h24h166h27zM668 256v926q0 62 -43.5 105.5t-104.5 43.5h-166q-61 0 -104 -43.5t-43 -105.5v-926q0 -62 43 -106t104 -44h166q61 0 104.5 44 t43.5 106zM412 1696l57 -162l-55 -18l-56 159z" glyph-name="Ograve" unicode="Ò"/><glyph d="M547 1434q96 -11 160.5 -82.5t64.5 -169.5v-926q0 -104 -74 -178t-178 -74h-166q-104 0 -178 74t-74 178v926q0 97 66 169t162 83h24h166h27zM668 256v926q0 62 -43.5 105.5t-104.5 43.5h-166q-61 0 -104 -43.5t-43 -105.5v-926q0 -62 43 -106t104 -44h166q61 0 104.5 44 t43.5 106zM457 1692l55 -21l-57 -160l-54 19z" glyph-name="Oacute" unicode="Ó"/><glyph d="M547 1434q96 -11 160.5 -82.5t64.5 -169.5v-926q0 -104 -74 -178t-178 -74h-166q-104 0 -178 74t-74 178v926q0 97 66 169t162 83h24h166h27zM668 256v926q0 62 -43.5 105.5t-104.5 43.5h-166q-61 0 -104 -43.5t-43 -105.5v-926q0 -62 43 -106t104 -44h166q61 0 104.5 44 t43.5 106zM618 1524q5 -8 5 -21q-2 -10 -15 -18q-9 -6 -21 -3t-18 13l-135 223l-137 -223q-6 -10 -18 -13t-21 3q-10 6 -13 18t3 21l155 256q10 16 27 12h2h4q20 0 27 -12z" glyph-name="Ocircumflex" unicode="Ô"/><glyph d="M547 1434q96 -11 160.5 -82.5t64.5 -169.5v-926q0 -104 -74 -178t-178 -74h-166q-104 0 -178 74t-74 178v926q0 97 66 169t162 83h24h166h27zM668 256v926q0 62 -43.5 105.5t-104.5 43.5h-166q-61 0 -104 -43.5t-43 -105.5v-926q0 -62 43 -106t104 -44h166q61 0 104.5 44 t43.5 106zM680 1696l41 -41q-60 -55 -108 -81.5t-86.5 -24.5t-65 14t-62.5 39q-50 40 -82 40h-4q-52 -3 -131 -73l-41 41q53 47 96 69.5t78.5 20t60.5 -14.5t58 -38q27 -22 48 -32t46 -9q63 6 152 90z" glyph-name="Otilde" unicode="Õ"/><glyph d="M547 1434q96 -11 160.5 -82.5t64.5 -169.5v-926q0 -104 -74 -178t-178 -74h-166q-104 0 -178 74t-74 178v926q0 97 66 169t162 83h24h166h27zM668 256v926q0 62 -43.5 105.5t-104.5 43.5h-166q-61 0 -104 -43.5t-43 -105.5v-926q0 -62 43 -106t104 -44h166q61 0 104.5 44 t43.5 106zM569 1546q-34 0 -57 24t-23 58t23 57t57 23t58 -23t24 -57t-24 -58t-58 -24zM313 1708q34 0 57 -23t23 -57t-23 -58t-57 -24t-58 24t-24 58t24 57t58 23z" glyph-name="Odieresis" unicode="Ö"/><glyph d="M571 870l-174 -172l174 -174l-59 -61l-174 174l-174 -174l-62 61l174 174l-174 172l62 62l174 -174l174 174z" glyph-name="multiply" horiz-adv-x="673" unicode="×"/><glyph d="M684 1374q88 -78 88 -192v-926q0 -104 -74 -178t-178 -74h-166q-38 0 -65 8l-29 -94h-88l37 131q-49 35 -78 89.5t-29 117.5v926q0 97 66 169t162 83h24h166h27q16 -2 61 -15l29 99h88zM207 256q0 -55 35 -96l336 1159q-32 12 -58 12h-166q-61 0 -104 -43.5t-43 -105.5 v-926zM668 256v926q0 37 -19 73l-332 -1142q21 -7 37 -7h166q61 0 104.5 44t43.5 106z" glyph-name="Oslash" unicode="Ø"/><glyph d="M668 1434h104v-1174q0 -107 -74 -182.5t-178 -75.5h-166q-104 0 -178 75.5t-74 182.5v1174h105v-1174q0 -64 42.5 -109t104.5 -45h166q62 0 105 45t43 109v1174zM412 1706l57 -162l-55 -18l-56 160z" glyph-name="Ugrave" unicode="Ù"/><glyph d="M668 1434h104v-1174q0 -107 -74 -182.5t-178 -75.5h-166q-104 0 -178 75.5t-74 182.5v1174h105v-1174q0 -64 42.5 -109t104.5 -45h166q62 0 105 45t43 109v1174zM446 1706l56 -20l-58 -160l-53 18z" glyph-name="Uacute" unicode="Ú"/><glyph d="M668 1434h104v-1174q0 -107 -74 -182.5t-178 -75.5h-166q-104 0 -178 75.5t-74 182.5v1174h105v-1174q0 -64 42.5 -109t104.5 -45h166q62 0 105 45t43 109v1174zM623 1542q4 -6 4 -20q-3 -11 -15 -19q-9 -6 -21 -3t-18 13l-135 224l-137 -224q-6 -10 -18 -13t-21 3 q-10 6 -13 18t3 21l156 256q10 16 26 12h2h4q20 0 27 -12z" glyph-name="Ucircumflex" unicode="Û"/><glyph d="M668 1434h104v-1174q0 -107 -74 -182.5t-178 -75.5h-166q-104 0 -178 75.5t-74 182.5v1174h105v-1174q0 -64 42.5 -109t104.5 -45h166q62 0 105 45t43 109v1174zM561 1536q-34 0 -57 24t-23 58t23 57t57 23t58 -23t24 -57t-24 -58t-58 -24zM305 1698q34 0 57 -23t23 -57 t-23 -58t-57 -24t-58 24t-24 58t24 57t58 23z" glyph-name="Udieresis" unicode="Ü"/><glyph d="M870 1434h121l-401 -682l-2 2v-754h-105v750l-381 684h119l318 -568zM557 1720l53 -20l-57 -160l-53 19z" glyph-name="Yacute" horiz-adv-x="1093" unicode="Ý"/><glyph glyph-name="germandbls" horiz-adv-x="1705" unicode="ß"/><glyph d="M608 1434l295 -1434h-106l-254 1233q-89 -339 -332 -1233h-109q358 1321 387 1434h119zM518 1665l57 -162l-55 -18l-55 160z" glyph-name="agrave" horiz-adv-x="1005" unicode="à"/><glyph d="M608 1434l295 -1434h-106l-254 1233q-89 -339 -332 -1233h-109q358 1321 387 1434h119zM559 1665l55 -20l-57 -160l-53 18z" glyph-name="aacute" horiz-adv-x="1005" unicode="á"/><glyph d="M608 1434l295 -1434h-106l-254 1233q-89 -339 -332 -1233h-109q358 1321 387 1434h119zM733 1460q4 -6 4 -20q-3 -12 -14 -19q-9 -6 -21 -2.5t-18 13.5l-135 223l-137 -223q-6 -10 -18 -13.5t-21 2.5q-10 6 -13.5 18t2.5 21l156 256q10 17 27 13h2h4q19 0 27 -13z" glyph-name="acircumflex" horiz-adv-x="1005" unicode="â"/><glyph d="M608 1434l295 -1434h-106l-254 1233q-89 -339 -332 -1233h-109q358 1321 387 1434h119zM805 1649l41 -41q-60 -55 -108 -81.5t-86.5 -25t-65.5 13.5t-62 39q-19 15 -28 21.5t-24 13t-30 6.5h-4q-52 -3 -131 -73l-41 41q53 47 96 69.5t78.5 19.5t60 -15t58.5 -38 q52 -42 94 -40q63 6 152 90z" glyph-name="atilde" horiz-adv-x="1005" unicode="ã"/><glyph d="M608 1434l295 -1434h-106l-254 1233q-89 -339 -332 -1233h-109q358 1321 387 1434h119zM688 1505q-34 0 -57 24t-23 58t23 57t57 23t58 -23t24 -57t-24 -58t-58 -24zM432 1667q34 0 57 -23t23 -57t-23 -58t-57 -24t-58 24t-24 58t24 57t58 23z" glyph-name="adieresis" horiz-adv-x="1005" unicode="ä"/><glyph d="M608 1434l295 -1434h-106l-254 1233q-89 -339 -332 -1233h-109q358 1321 387 1434h119zM557 1755q59 0 101 -41.5t42 -101.5t-42 -103t-101 -43q-60 0 -102.5 43t-42.5 103t42.5 101.5t102.5 41.5zM557 1550q25 0 43 18t18 44q0 25 -18 43t-43 18q-26 0 -43.5 -18 t-17.5 -43q0 -26 17.5 -44t43.5 -18z" glyph-name="aring" horiz-adv-x="1005" unicode="å"/><glyph d="M901 1331v-588h516v-104h-516v-535h516v-102h-514v-2h-106l-254 1233q-89 -339 -332 -1233h-109q358 1321 387 1434h119l189 -920v922h620v-105h-516z" glyph-name="ae" horiz-adv-x="1519" unicode="æ"/><glyph d="M520 104q61 0 104.5 47t43.5 113h104q0 -109 -74 -186.5t-178 -77.5h-166q-104 0 -178 77.5t-74 186.5v907q0 101 64 176t158 87q5 0 15 1t15 1h166q5 0 15.5 -1t15.5 -1q94 -12 157.5 -87t63.5 -176h-104q0 66 -43.5 113t-104.5 47h-166q-61 0 -104 -47t-43 -113v-907 q0 -66 43 -113t104 -47h166zM563 -25q25 -54 4 -109.5t-75 -80.5q-55 -25 -111.5 -4t-81.5 76l76 34q10 -23 34.5 -32t47.5 2q23 10 31 33.5t-1 46.5q-10 23 -34 32t-47 -2l-35 76q55 25 110.5 4t81.5 -76z" glyph-name="ccedilla" unicode="ç"/><glyph d="M723 639h-516v-535h516v-102h-516v-2h-105v1436h621v-105h-516v-588h516v-104zM397 1696l58 -162l-54 -18l-57 159z" glyph-name="egrave" horiz-adv-x="825" unicode="è"/><glyph d="M723 639h-516v-535h516v-102h-516v-2h-105v1436h621v-105h-516v-588h516v-104zM436 1679l53 -20l-57 -160l-53 19z" glyph-name="eacute" horiz-adv-x="825" unicode="é"/><glyph d="M723 639h-516v-535h516v-102h-516v-2h-105v1436h621v-105h-516v-588h516v-104zM614 1520q4 -6 4 -21q-3 -10 -14 -18q-9 -6 -21 -3t-18 13l-135 223l-137 -223q-6 -10 -18 -13t-21 3q-10 6 -13 18t3 21l155 256q10 16 27 12h2h4q20 0 27 -12z" glyph-name="ecircumflex" horiz-adv-x="825" unicode="ê"/><glyph d="M723 639h-516v-535h516v-102h-516v-2h-105v1436h621v-105h-516v-588h516v-104zM557 1542q-34 0 -58 24t-24 58t24 57t58 23t58 -23t24 -57t-24 -58t-58 -24zM301 1704q33 0 56.5 -23.5t23.5 -56.5q0 -34 -24 -58t-56 -24q-34 0 -58 24t-24 58t24 57t58 23z" glyph-name="edieresis" horiz-adv-x="825" unicode="ë"/><glyph d="M207 0h-105v1434h105v-1434zM129 1696l57 -162l-53 -18l-57 159z" glyph-name="igrave" horiz-adv-x="309" unicode="ì"/><glyph d="M207 0h-105v1434h105v-1434zM176 1679l53 -20l-57 -160l-53 19z" glyph-name="iacute" horiz-adv-x="309" unicode="í"/><glyph d="M207 0h-105v1434h105v-1434zM326 1520q4 -6 4 -21q-2 -10 -15 -18q-9 -6 -21 -3t-18 13l-135 223l-137 -223q-6 -10 -18 -13t-21 3q-10 6 -13 18t3 21l156 256q10 16 26 12h2h4q20 0 27 -12z" glyph-name="icircumflex" horiz-adv-x="309" unicode="î"/><glyph d="M207 0h-105v1434h105v-1434zM293 1542q-34 0 -58 24t-24 58t24 57t58 23t58 -23t24 -57t-24 -58t-58 -24zM37 1704q33 0 56.5 -23.5t23.5 -56.5q0 -34 -24 -58t-56 -24q-34 0 -58 24t-24 58t24 57t58 23z" glyph-name="idieresis" horiz-adv-x="309" unicode="ï"/><glyph d="M713 1434h104v-1434h-86l-524 1143v-1143h-105v1434h84l527 -1145v1145zM705 1683l40 -41q-48 -44 -89.5 -69t-71.5 -33t-60.5 -1.5t-51 18t-48.5 32.5q-19 15 -28 21.5t-24 13t-30 6.5h-6q-49 -3 -129 -74l-41 41q53 47 96 69.5t78.5 20t60.5 -14.5t58 -38 q27 -22 48 -32t46 -9q59 6 152 90z" glyph-name="ntilde" horiz-adv-x="919" unicode="ñ"/><glyph d="M547 1434q96 -11 160.5 -82.5t64.5 -169.5v-926q0 -104 -74 -178t-178 -74h-166q-104 0 -178 74t-74 178v926q0 97 66 169t162 83h24h166h27zM668 256v926q0 62 -43.5 105.5t-104.5 43.5h-166q-61 0 -104 -43.5t-43 -105.5v-926q0 -62 43 -106t104 -44h166q61 0 104.5 44 t43.5 106zM412 1696l57 -162l-55 -18l-56 159z" glyph-name="ograve" unicode="ò"/><glyph d="M547 1434q96 -11 160.5 -82.5t64.5 -169.5v-926q0 -104 -74 -178t-178 -74h-166q-104 0 -178 74t-74 178v926q0 97 66 169t162 83h24h166h27zM668 256v926q0 62 -43.5 105.5t-104.5 43.5h-166q-61 0 -104 -43.5t-43 -105.5v-926q0 -62 43 -106t104 -44h166q61 0 104.5 44 t43.5 106zM457 1692l55 -21l-57 -160l-54 19z" glyph-name="oacute" unicode="ó"/><glyph d="M547 1434q96 -11 160.5 -82.5t64.5 -169.5v-926q0 -104 -74 -178t-178 -74h-166q-104 0 -178 74t-74 178v926q0 97 66 169t162 83h24h166h27zM668 256v926q0 62 -43.5 105.5t-104.5 43.5h-166q-61 0 -104 -43.5t-43 -105.5v-926q0 -62 43 -106t104 -44h166q61 0 104.5 44 t43.5 106zM618 1524q5 -8 5 -21q-2 -10 -15 -18q-9 -6 -21 -3t-18 13l-135 223l-137 -223q-6 -10 -18 -13t-21 3q-10 6 -13 18t3 21l155 256q10 16 27 12h2h4q20 0 27 -12z" glyph-name="ocircumflex" unicode="ô"/><glyph d="M547 1434q96 -11 160.5 -82.5t64.5 -169.5v-926q0 -104 -74 -178t-178 -74h-166q-104 0 -178 74t-74 178v926q0 97 66 169t162 83h24h166h27zM668 256v926q0 62 -43.5 105.5t-104.5 43.5h-166q-61 0 -104 -43.5t-43 -105.5v-926q0 -62 43 -106t104 -44h166q61 0 104.5 44 t43.5 106zM680 1696l41 -41q-60 -55 -108 -81.5t-86.5 -24.5t-65 14t-62.5 39q-50 40 -82 40h-4q-52 -3 -131 -73l-41 41q53 47 96 69.5t78.5 20t60.5 -14.5t58 -38q27 -22 48 -32t46 -9q63 6 152 90z" glyph-name="otilde" unicode="õ"/><glyph d="M547 1434q96 -11 160.5 -82.5t64.5 -169.5v-926q0 -104 -74 -178t-178 -74h-166q-104 0 -178 74t-74 178v926q0 97 66 169t162 83h24h166h27zM668 256v926q0 62 -43.5 105.5t-104.5 43.5h-166q-61 0 -104 -43.5t-43 -105.5v-926q0 -62 43 -106t104 -44h166q61 0 104.5 44 t43.5 106zM569 1546q-34 0 -57 24t-23 58t23 57t57 23t58 -23t24 -57t-24 -58t-58 -24zM313 1708q34 0 57 -23t23 -57t-23 -58t-57 -24t-58 24t-24 58t24 57t58 23z" glyph-name="odieresis" unicode="ö"/><glyph d="M524 553h-422v88h422v-88zM313 885q-31 0 -52 25.5t-21 62.5q0 35 21 60.5t52 25.5t52.5 -25.5t21.5 -60.5q0 -37 -21.5 -62.5t-52.5 -25.5zM313 309q31 0 52.5 -25.5t21.5 -62.5q0 -35 -21.5 -60.5t-52.5 -25.5t-52 25.5t-21 60.5q0 37 21 62.5t52 25.5z" glyph-name="divide" horiz-adv-x="626" unicode="÷"/><glyph d="M684 1374q88 -78 88 -192v-926q0 -104 -74 -178t-178 -74h-166q-38 0 -65 8l-29 -94h-88l37 131q-49 35 -78 89.5t-29 117.5v926q0 97 66 169t162 83h24h166h27q16 -2 61 -15l29 99h88zM207 256q0 -55 35 -96l336 1159q-32 12 -58 12h-166q-61 0 -104 -43.5t-43 -105.5 v-926zM668 256v926q0 37 -19 73l-332 -1142q21 -7 37 -7h166q61 0 104.5 44t43.5 106z" glyph-name="oslash" unicode="ø"/><glyph d="M668 1434h104v-1174q0 -107 -74 -182.5t-178 -75.5h-166q-104 0 -178 75.5t-74 182.5v1174h105v-1174q0 -64 42.5 -109t104.5 -45h166q62 0 105 45t43 109v1174zM412 1706l57 -162l-55 -18l-56 160z" glyph-name="ugrave" unicode="ù"/><glyph d="M668 1434h104v-1174q0 -107 -74 -182.5t-178 -75.5h-166q-104 0 -178 75.5t-74 182.5v1174h105v-1174q0 -64 42.5 -109t104.5 -45h166q62 0 105 45t43 109v1174zM446 1706l56 -20l-58 -160l-53 18z" glyph-name="uacute" unicode="ú"/><glyph d="M668 1434h104v-1174q0 -107 -74 -182.5t-178 -75.5h-166q-104 0 -178 75.5t-74 182.5v1174h105v-1174q0 -64 42.5 -109t104.5 -45h166q62 0 105 45t43 109v1174zM623 1542q4 -6 4 -20q-3 -11 -15 -19q-9 -6 -21 -3t-18 13l-135 224l-137 -224q-6 -10 -18 -13t-21 3 q-10 6 -13 18t3 21l156 256q10 16 26 12h2h4q20 0 27 -12z" glyph-name="ucircumflex" unicode="û"/><glyph d="M668 1434h104v-1174q0 -107 -74 -182.5t-178 -75.5h-166q-104 0 -178 75.5t-74 182.5v1174h105v-1174q0 -64 42.5 -109t104.5 -45h166q62 0 105 45t43 109v1174zM561 1536q-34 0 -57 24t-23 58t23 57t57 23t58 -23t24 -57t-24 -58t-58 -24zM305 1698q34 0 57 -23t23 -57 t-23 -58t-57 -24t-58 24t-24 58t24 57t58 23z" glyph-name="udieresis" unicode="ü"/><glyph d="M870 1434h121l-401 -682l-2 2v-754h-105v750l-381 684h119l318 -568zM557 1720l53 -20l-57 -160l-53 19z" glyph-name="yacute" horiz-adv-x="1093" unicode="ý"/><glyph d="M870 1434h121l-401 -682l-2 2v-754h-105v750l-381 684h119l318 -568zM676 1536q-34 0 -58 24t-24 58t24 57t58 23q33 0 56.5 -23.5t23.5 -56.5q0 -34 -24 -58t-56 -24zM418 1698q34 0 58 -23t24 -57t-24 -58t-58 -24t-58 24t-24 58t24 57t58 23z" glyph-name="ydieresis" horiz-adv-x="1093" unicode="ÿ"/><glyph d="M608 1434l295 -1434h-106l-254 1233q-89 -339 -332 -1233h-109q358 1321 387 1434h119z" glyph-name="Abreve" horiz-adv-x="1005" unicode="Ă"/><glyph d="M608 1434l295 -1434h-106l-254 1233q-89 -339 -332 -1233h-109q358 1321 387 1434h119z" glyph-name="abreve" horiz-adv-x="1005" unicode="ă"/><glyph d="M520 104q61 0 104.5 47t43.5 113h104q0 -109 -74 -186.5t-178 -77.5h-166q-104 0 -178 77.5t-74 186.5v907q0 101 64 176t158 87q5 0 15 1t15 1h166q5 0 15.5 -1t15.5 -1q94 -12 157.5 -87t63.5 -176h-104q0 66 -43.5 113t-104.5 47h-166q-61 0 -104 -47t-43 -113v-907 q0 -66 43 -113t104 -47h166zM438 1853l54 -20l-58 -160l-53 19z" glyph-name="Cacute" unicode="Ć"/><glyph d="M520 104q61 0 104.5 47t43.5 113h104q0 -109 -74 -186.5t-178 -77.5h-166q-104 0 -178 77.5t-74 186.5v907q0 101 64 176t158 87q5 0 15 1t15 1h166q5 0 15.5 -1t15.5 -1q94 -12 157.5 -87t63.5 -176h-104q0 66 -43.5 113t-104.5 47h-166q-61 0 -104 -47t-43 -113v-907 q0 -66 43 -113t104 -47h166zM438 1649l54 -21l-58 -160l-53 19z" glyph-name="cacute" unicode="ć"/><glyph d="M520 104q61 0 104.5 47t43.5 113h104q0 -109 -74 -186.5t-178 -77.5h-166q-104 0 -178 77.5t-74 186.5v907q0 101 64 176t158 87q5 0 15 1t15 1h166q5 0 15.5 -1t15.5 -1q94 -12 157.5 -87t63.5 -176h-104q0 66 -43.5 113t-104.5 47h-166q-61 0 -104 -47t-43 -113v-907 q0 -66 43 -113t104 -47h166z" glyph-name="Ccaron" unicode="Č"/><glyph d="M520 104q61 0 104.5 47t43.5 113h104q0 -109 -74 -186.5t-178 -77.5h-166q-104 0 -178 77.5t-74 186.5v907q0 101 64 176t158 87q5 0 15 1t15 1h166q5 0 15.5 -1t15.5 -1q94 -12 157.5 -87t63.5 -176h-104q0 66 -43.5 113t-104.5 47h-166q-61 0 -104 -47t-43 -113v-907 q0 -66 43 -113t104 -47h166z" glyph-name="ccaron" unicode="č"/><glyph d="M451 1434q130 -14 217.5 -111.5t87.5 -230.5v-746q0 -142 -100.5 -243t-241.5 -101h-312v1434h312q6 0 18.5 -1t18.5 -1zM653 346v746q0 99 -70 169t-169 70h-207v-1225h207q98 0 168.5 70t70.5 170z" glyph-name="Dcaron" horiz-adv-x="858" unicode="Ď"/><glyph d="M451 1434q130 -14 217.5 -111.5t87.5 -230.5v-746q0 -142 -100.5 -243t-241.5 -101h-312v1434h312q6 0 18.5 -1t18.5 -1zM653 346v746q0 99 -70 169t-169 70h-207v-1225h207q98 0 168.5 70t70.5 170zM1034 1362q31 0 52.5 -25.5t21.5 -60.5q0 -52 -35 -76l-10 -6 l-78 -104l-16 8l22 100l-14 25q-16 26 -16 53q0 35 21 60.5t52 25.5z" glyph-name="dcaron" horiz-adv-x="1210" unicode="ď"/><glyph d="M451 1434q130 -14 217.5 -111.5t87.5 -230.5v-746q0 -142 -100.5 -243t-241.5 -101h-312v1434h312q6 0 18.5 -1t18.5 -1zM653 346v746q0 99 -70 169t-169 70h-207v-1225h207q98 0 168.5 70t70.5 170zM717 1554h-578v86h578v-86z" glyph-name="Dcroat" horiz-adv-x="858" unicode="Đ"/><glyph d="M451 1434q130 -14 217.5 -111.5t87.5 -230.5v-746q0 -142 -100.5 -243t-241.5 -101h-312v1434h312q6 0 18.5 -1t18.5 -1zM653 346v746q0 99 -70 169t-169 70h-207v-1225h207q98 0 168.5 70t70.5 170z" glyph-name="dcroat" horiz-adv-x="858" unicode="đ"/><glyph d="M723 639h-516v-535h516v-102h-516v-2h-105v1436h621v-105h-516v-588h516v-104z" glyph-name="Eogonek" horiz-adv-x="825" unicode="Ę"/><glyph d="M723 639h-516v-535h516v-102h-516v-2h-105v1436h621v-105h-516v-588h516v-104z" glyph-name="eogonek" horiz-adv-x="825" unicode="ę"/><glyph d="M723 639h-516v-535h516v-102h-516v-2h-105v1436h621v-105h-516v-588h516v-104z" glyph-name="Ecaron" horiz-adv-x="825" unicode="Ě"/><glyph d="M723 639h-516v-535h516v-102h-516v-2h-105v1436h621v-105h-516v-588h516v-104z" glyph-name="ecaron" horiz-adv-x="825" unicode="ě"/><glyph d="M207 111h342v-105h-447v1428h105v-1323zM328 1853l53 -20l-57 -160l-54 19z" glyph-name="Lacute" horiz-adv-x="651" unicode="Ĺ"/><glyph d="M207 111h342v-105h-447v1428h105v-1323zM328 1649l53 -21l-57 -160l-54 19z" glyph-name="lacute" horiz-adv-x="651" unicode="ĺ"/><glyph d="M713 1434h104v-1434h-86l-524 1143v-1143h-105v1434h84l527 -1145v1145zM461 1853l53 -20l-57 -160l-54 19z" glyph-name="Nacute" horiz-adv-x="919" unicode="Ń"/><glyph d="M713 1434h104v-1434h-86l-524 1143v-1143h-105v1434h84l527 -1145v1145zM461 1649l53 -21l-57 -160l-54 19z" glyph-name="nacute" horiz-adv-x="919" unicode="ń"/><glyph d="M713 1434h104v-1434h-86l-524 1143v-1143h-105v1434h84l527 -1145v1145z" glyph-name="Ncaron" horiz-adv-x="919" unicode="Ň"/><glyph d="M713 1434h104v-1434h-86l-524 1143v-1143h-105v1434h84l527 -1145v1145z" glyph-name="ncaron" horiz-adv-x="919" unicode="ň"/><glyph d="M547 1434q96 -11 160.5 -82.5t64.5 -169.5v-926q0 -104 -74 -178t-178 -74h-166q-104 0 -178 74t-74 178v926q0 97 66 169t162 83h24h166h27zM668 256v926q0 62 -43.5 105.5t-104.5 43.5h-166q-61 0 -104 -43.5t-43 -105.5v-926q0 -62 43 -106t104 -44h166q61 0 104.5 44 t43.5 106z" glyph-name="Ohungarumlaut" unicode="Ő"/><glyph d="M547 1434q96 -11 160.5 -82.5t64.5 -169.5v-926q0 -104 -74 -178t-178 -74h-166q-104 0 -178 74t-74 178v926q0 97 66 169t162 83h24h166h27zM668 256v926q0 62 -43.5 105.5t-104.5 43.5h-166q-61 0 -104 -43.5t-43 -105.5v-926q0 -62 43 -106t104 -44h166q61 0 104.5 44 t43.5 106z" glyph-name="ohungarumlaut" unicode="ő"/><glyph d="M772 1331v-588h516v-104h-516v-535h516v-102h-516v-2h-104v51q-62 -47 -148 -47h-166q-104 0 -178 74t-74 178v926q0 97 66 169t162 83h24h166h27q66 -9 121 -48v50h620v-105h-516zM520 106q61 0 104.5 44t43.5 106v926q0 62 -43.5 105.5t-104.5 43.5h-166 q-61 0 -104 -43.5t-43 -105.5v-926q0 -62 43 -106t104 -44h166z" glyph-name="OE" horiz-adv-x="1390" unicode="Œ"/><glyph d="M772 1331v-588h516v-104h-516v-535h516v-102h-516v-2h-104v51q-62 -47 -148 -47h-166q-104 0 -178 74t-74 178v926q0 97 66 169t162 83h24h166h27q66 -9 121 -48v50h620v-105h-516zM520 106q61 0 104.5 44t43.5 106v926q0 62 -43.5 105.5t-104.5 43.5h-166 q-61 0 -104 -43.5t-43 -105.5v-926q0 -62 43 -106t104 -44h166z" glyph-name="oe" horiz-adv-x="1390" unicode="œ"/><glyph d="M422 653l418 -653h-123l-416 649h-94v-647h-105v1432h295h29q103 -12 174.5 -91t71.5 -184v-215q0 -110 -72 -193t-178 -98zM207 754h170q78 0 134 55.5t56 134.5v215q0 71 -50 121.5t-120 50.5h-190v-577zM473 1853l53 -20l-57 -160l-53 19z" glyph-name="Racute" horiz-adv-x="942" unicode="Ŕ"/><glyph d="M422 653l418 -653h-123l-416 649h-94v-647h-105v1432h295h29q103 -12 174.5 -91t71.5 -184v-215q0 -110 -72 -193t-178 -98zM207 754h170q78 0 134 55.5t56 134.5v215q0 71 -50 121.5t-120 50.5h-190v-577zM473 1649l53 -21l-57 -160l-53 19z" glyph-name="racute" horiz-adv-x="942" unicode="ŕ"/><glyph d="M422 653l418 -653h-123l-416 649h-94v-647h-105v1432h295h29q103 -12 174.5 -91t71.5 -184v-215q0 -110 -72 -193t-178 -98zM207 754h170q78 0 134 55.5t56 134.5v215q0 71 -50 121.5t-120 50.5h-190v-577z" glyph-name="Rcaron" horiz-adv-x="942" unicode="Ř"/><glyph d="M422 653l418 -653h-123l-416 649h-94v-647h-105v1432h295h29q103 -12 174.5 -91t71.5 -184v-215q0 -110 -72 -193t-178 -98zM207 754h170q78 0 134 55.5t56 134.5v215q0 71 -50 121.5t-120 50.5h-190v-577z" glyph-name="rcaron" horiz-adv-x="942" unicode="ř"/><glyph d="M772 1040h-104v164q0 52 -34 89.5t-81 37.5h-197q-61 0 -105 -47t-44 -110q0 -44 3.5 -81t14.5 -67.5t20.5 -53t30 -44t33.5 -34.5t41.5 -30t43 -25.5t48.5 -25.5q35 -18 53 -27.5t51 -30t51.5 -36t46 -42.5t43 -53t34 -64.5t28 -80t16.5 -96t7 -115.5q0 -114 -78 -192 q-74 -74 -174 -74h-213q-85 0 -145 63t-60 152v154h105v-154q0 -46 29.5 -78.5t70.5 -32.5h213q60 0 101 41q50 50 47 121q0 58 -5 106t-17.5 86.5t-24.5 68t-35 55.5t-39 42.5t-48 36t-49.5 29.5t-54.5 29q-39 20 -60 31.5t-57 35.5t-56.5 45.5t-46.5 57t-39.5 74 t-23.5 92.5t-10 117q0 100 65.5 174.5t160.5 85.5h28h197h25q83 -11 138.5 -76t55.5 -154v-164zM438 1853l54 -20l-58 -160l-53 19z" glyph-name="Sacute" unicode="Ś"/><glyph d="M772 1040h-104v164q0 52 -34 89.5t-81 37.5h-197q-61 0 -105 -47t-44 -110q0 -44 3.5 -81t14.5 -67.5t20.5 -53t30 -44t33.5 -34.5t41.5 -30t43 -25.5t48.5 -25.5q35 -18 53 -27.5t51 -30t51.5 -36t46 -42.5t43 -53t34 -64.5t28 -80t16.5 -96t7 -115.5q0 -114 -78 -192 q-74 -74 -174 -74h-213q-85 0 -145 63t-60 152v154h105v-154q0 -46 29.5 -78.5t70.5 -32.5h213q60 0 101 41q50 50 47 121q0 58 -5 106t-17.5 86.5t-24.5 68t-35 55.5t-39 42.5t-48 36t-49.5 29.5t-54.5 29q-39 20 -60 31.5t-57 35.5t-56.5 45.5t-46.5 57t-39.5 74 t-23.5 92.5t-10 117q0 100 65.5 174.5t160.5 85.5h28h197h25q83 -11 138.5 -76t55.5 -154v-164zM438 1649l54 -21l-58 -160l-53 19z" glyph-name="sacute" unicode="ś"/><glyph d="M772 1040h-104v164q0 52 -34 89.5t-81 37.5h-197q-61 0 -105 -47t-44 -110q0 -44 3.5 -81t14.5 -67.5t20.5 -53t30 -44t33.5 -34.5t41.5 -30t43 -25.5t48.5 -25.5q35 -18 53 -27.5t51 -30t51.5 -36t46 -42.5t43 -53t34 -64.5t28 -80t16.5 -96t7 -115.5q0 -114 -78 -192 q-74 -74 -174 -74h-213q-85 0 -145 63t-60 152v154h105v-154q0 -46 29.5 -78.5t70.5 -32.5h213q60 0 101 41q50 50 47 121q0 58 -5 106t-17.5 86.5t-24.5 68t-35 55.5t-39 42.5t-48 36t-49.5 29.5t-54.5 29q-39 20 -60 31.5t-57 35.5t-56.5 45.5t-46.5 57t-39.5 74 t-23.5 92.5t-10 117q0 100 65.5 174.5t160.5 85.5h28h197h25q83 -11 138.5 -76t55.5 -154v-164zM551 -25q25 -54 4 -109.5t-76 -80.5q-54 -25 -109.5 -4t-80.5 76l76 34q10 -23 34 -32t47 2q23 10 31.5 33.5t-2.5 46.5q-10 23 -33.5 32t-46.5 -2l-35 76q54 25 110 4t81 -76z" glyph-name="scedilla" unicode="ş"/><glyph d="M772 1040h-104v164q0 52 -34 89.5t-81 37.5h-197q-61 0 -105 -47t-44 -110q0 -44 3.5 -81t14.5 -67.5t20.5 -53t30 -44t33.5 -34.5t41.5 -30t43 -25.5t48.5 -25.5q35 -18 53 -27.5t51 -30t51.5 -36t46 -42.5t43 -53t34 -64.5t28 -80t16.5 -96t7 -115.5q0 -114 -78 -192 q-74 -74 -174 -74h-213q-85 0 -145 63t-60 152v154h105v-154q0 -46 29.5 -78.5t70.5 -32.5h213q60 0 101 41q50 50 47 121q0 58 -5 106t-17.5 86.5t-24.5 68t-35 55.5t-39 42.5t-48 36t-49.5 29.5t-54.5 29q-39 20 -60 31.5t-57 35.5t-56.5 45.5t-46.5 57t-39.5 74 t-23.5 92.5t-10 117q0 100 65.5 174.5t160.5 85.5h28h197h25q83 -11 138.5 -76t55.5 -154v-164zM627 1790q3 -12 -4 -23l-156 -254q-7 -14 -23 -14h-6h-6q-17 0 -24 14l-156 254q-4 6 -4 23q4 13 14 16q4 4 14 4q16 0 25 -12l137 -225l135 225q6 9 19 12q9 3 20 -4 q12 -6 15 -16z" glyph-name="Scaron" unicode="Š"/><glyph d="M772 1040h-104v164q0 52 -34 89.5t-81 37.5h-197q-61 0 -105 -47t-44 -110q0 -44 3.5 -81t14.5 -67.5t20.5 -53t30 -44t33.5 -34.5t41.5 -30t43 -25.5t48.5 -25.5q35 -18 53 -27.5t51 -30t51.5 -36t46 -42.5t43 -53t34 -64.5t28 -80t16.5 -96t7 -115.5q0 -114 -78 -192 q-74 -74 -174 -74h-213q-85 0 -145 63t-60 152v154h105v-154q0 -46 29.5 -78.5t70.5 -32.5h213q60 0 101 41q50 50 47 121q0 58 -5 106t-17.5 86.5t-24.5 68t-35 55.5t-39 42.5t-48 36t-49.5 29.5t-54.5 29q-39 20 -60 31.5t-57 35.5t-56.5 45.5t-46.5 57t-39.5 74 t-23.5 92.5t-10 117q0 100 65.5 174.5t160.5 85.5h28h197h25q83 -11 138.5 -76t55.5 -154v-164zM623 1780q3 -11 -5 -23l-155 -254q-7 -14 -23 -14h-6h-6q-18 0 -25 14l-155 254q-4 6 -4 23q4 13 14 16q4 4 14 4q16 0 25 -12l137 -225l135 225q6 9 19 12q9 3 20 -4 q12 -6 15 -16z" glyph-name="scaron" unicode="š"/><glyph d="M102 1434h820v-103h-344v-1331h-105v1331h-371v103z" glyph-name="Tcaron" horiz-adv-x="1024" unicode="Ť"/><glyph d="M668 1434h104v-1174q0 -107 -74 -182.5t-178 -75.5h-166q-104 0 -178 75.5t-74 182.5v1174h105v-1174q0 -64 42.5 -109t104.5 -45h166q62 0 105 45t43 109v1174z" glyph-name="Uring" unicode="Ů"/><glyph d="M668 1434h104v-1174q0 -107 -74 -182.5t-178 -75.5h-166q-104 0 -178 75.5t-74 182.5v1174h105v-1174q0 -64 42.5 -109t104.5 -45h166q62 0 105 45t43 109v1174z" glyph-name="uring" unicode="ů"/><glyph d="M668 1434h104v-1174q0 -107 -74 -182.5t-178 -75.5h-166q-104 0 -178 75.5t-74 182.5v1174h105v-1174q0 -64 42.5 -109t104.5 -45h166q62 0 105 45t43 109v1174z" glyph-name="Uhungarumlaut" unicode="Ű"/><glyph d="M668 1434h104v-1174q0 -107 -74 -182.5t-178 -75.5h-166q-104 0 -178 75.5t-74 182.5v1174h105v-1174q0 -64 42.5 -109t104.5 -45h166q62 0 105 45t43 109v1174z" glyph-name="uhungarumlaut" unicode="ű"/><glyph d="M870 1434h121l-401 -682l-2 2v-754h-105v750l-381 684h119l318 -568zM680 1534q-34 0 -58 24t-24 58t24 57t58 23q33 0 56.5 -23.5t23.5 -56.5q0 -34 -24 -58t-56 -24zM422 1696q34 0 58 -23t24 -57t-24 -58t-58 -24t-58 24t-24 58t24 57t58 23z" glyph-name="Ydieresis" horiz-adv-x="1093" unicode="Ÿ"/><glyph d="M262 102h608v-102h-768l584 1331h-573v105h731l-2 -2zM487 1853l54 -20l-58 -160l-53 19z" glyph-name="Zacute" horiz-adv-x="972" unicode="Ź"/><glyph d="M262 102h608v-102h-768l584 1331h-573v105h731l-2 -2zM487 1649l54 -21l-58 -160l-53 19z" glyph-name="zacute" horiz-adv-x="972" unicode="ź"/><glyph d="M262 102h608v-102h-768l584 1331h-573v105h731l-2 -2z" glyph-name="zdotaccent" horiz-adv-x="972" unicode="ż"/><glyph d="M262 102h608v-102h-768l584 1331h-573v105h731l-2 -2z" glyph-name="Zcaron" horiz-adv-x="972" unicode="Ž"/><glyph d="M262 102h608v-102h-768l584 1331h-573v105h731l-2 -2zM680 1790q0 -17 -4 -23l-156 -254q-7 -14 -22 -14h-9h-4q-17 0 -24 14l-156 254q-7 11 -4 23q5 14 14 16q4 4 15 4q15 0 24 -12l135 -225l138 225q6 9 18 12q10 3 21 -4t14 -16z" glyph-name="zcaron" horiz-adv-x="972" unicode="ž"/><glyph d="M481 1708q0 -16 -4 -22l-155 -254q-8 -15 -23 -15h-6h-6q-17 0 -25 15l-156 254q-4 6 -4 22q4 12 15 16q5 5 14 5q15 0 25 -13l137 -225l135 225q7 10 18 13q9 3 21 -5q11 -7 14 -16z" glyph-name="caronmod" horiz-adv-x="585" unicode="ˇ"/><glyph d="M184 1638q33 0 56.5 -23t23.5 -56q0 -34 -24 -58t-56 -24q-34 0 -58 24t-24 58q0 33 24 56t58 23z" glyph-name="dotaccentmod" horiz-adv-x="366" unicode="˙"/><glyph d="M246 1702q60 0 102.5 -41.5t42.5 -101.5t-42.5 -103t-102.5 -43q-59 0 -101.5 43t-42.5 103t42.5 101.5t101.5 41.5zM246 1497q26 0 43.5 18t17.5 44q0 25 -17.5 43t-43.5 18q-25 0 -42.5 -18t-17.5 -43q0 -26 17.5 -44t42.5 -18z" glyph-name="ringmod" horiz-adv-x="493" unicode="˚"/><glyph d="M639 1630l41 -41q-60 -55 -108 -81.5t-86.5 -24.5t-65 14t-62.5 39q-17 15 -26 21.5t-23.5 13t-29.5 6.5h-7q-52 -3 -129 -74l-41 41q53 47 96 69.5t78.5 20t60.5 -14.5t58 -38q28 -23 47.5 -32.5t44.5 -8.5q62 6 152 90z" glyph-name="tildemod" horiz-adv-x="782" unicode="˜"/><glyph d="M160 1649l53 -21l-57 -160l-54 19zM270 1649l54 -21l-58 -160l-53 19z" glyph-name="doubleacutemod" horiz-adv-x="425" unicode="˝"/><glyph d="M477 1460q4 -6 4 -20q-3 -12 -14 -19q-9 -6 -21 -2.5t-18 13.5l-135 223l-137 -223q-6 -10 -18 -13.5t-21 2.5q-10 6 -13.5 18t2.5 21l156 256q10 17 27 13h2h4q19 0 27 -13z" glyph-name="circumflexcomb" horiz-adv-x="585" unicode="̂"/><glyph d="M688 553h-586v88h586v-88z" glyph-name="endash" horiz-adv-x="790" unicode="–"/><glyph d="M852 553h-750v88h750v-88z" glyph-name="emdash" horiz-adv-x="954" unicode="—"/><glyph d="M236 1229q14 -22 14 -53q0 -35 -21.5 -60.5t-52.5 -25.5t-52.5 25.5t-21.5 60.5q0 49 37 75l8 6l80 105l15 -10l-23 -99z" glyph-name="quoteleft" horiz-adv-x="352" unicode="‘"/><glyph d="M176 1362q31 0 52.5 -25.5t21.5 -60.5q0 -52 -35 -76l-10 -6l-78 -104l-16 8l22 100l-14 25q-17 27 -17 53q0 35 21.5 60.5t52.5 25.5z" glyph-name="quoteright" horiz-adv-x="352" unicode="’"/><glyph d="M176 197q31 0 52.5 -25.5t21.5 -62.5q0 -50 -37 -74l-8 -6l-21 -29h-57l6 33l-14 24q-17 24 -17 52q0 37 21.5 62.5t52.5 25.5z" glyph-name="quotesinglbase" horiz-adv-x="354" unicode="‚"/><glyph d="M575 1229q17 -27 17 -53q0 -35 -22.5 -60.5t-53.5 -25.5t-52.5 25.5t-21.5 60.5q0 49 37 75l10 6l78 105l15 -10l-23 -99zM219 1253l17 -24q14 -22 14 -53q0 -35 -21.5 -60.5t-52.5 -25.5t-52.5 25.5t-21.5 60.5q0 49 37 75l8 6l80 105l15 -10z" glyph-name="quotedblleft" horiz-adv-x="694" unicode="“"/><glyph d="M176 1362q31 0 52.5 -25.5t21.5 -60.5q0 -52 -35 -76l-10 -6l-78 -104l-16 8l22 100l-16 25q-15 30 -15 53q0 35 21.5 60.5t52.5 25.5zM516 1362q31 0 53.5 -25.5t22.5 -60.5q0 -50 -37 -76l-10 -6l-78 -104l-16 8l22 100l-14 25q-17 27 -17 53q0 35 21.5 60.5t52.5 25.5 z" glyph-name="quotedblright" horiz-adv-x="694" unicode="”"/><glyph d="M176 197q31 0 52.5 -25.5t21.5 -62.5q0 -50 -37 -74l-8 -6l-21 -29h-57l6 33l-14 24q-17 24 -17 52q0 37 21.5 62.5t52.5 25.5zM403 197q31 0 53.5 -26t22.5 -62q0 -48 -37 -74l-10 -6l-20 -29h-58l6 33l-14 24q-16 22 -16 52q0 37 21 62.5t52 25.5z" glyph-name="quotedblbase" horiz-adv-x="581" unicode="„"/><glyph d="M508 1051h317v-86h-317v-990h-86v990h-320v86h320v288h86v-288z" glyph-name="dagger" horiz-adv-x="927" unicode="†"/><glyph d="M825 956l-317 9l-12 -525h262v-86h-264l-9 -379l-86 2l9 377h-236v86h238l12 525l-320 8l2 86l318 -6l6 286l88 -2l-6 -286l317 -9z" glyph-name="daggerdbl" horiz-adv-x="929" unicode="‡"/><glyph d="M260 737q64 0 110 -52t46 -124q0 -74 -46 -126t-110 -52q-66 0 -112 52t-46 126q0 72 46 124t112 52z" glyph-name="bullet" horiz-adv-x="518" unicode="•"/><glyph d="M176 174q31 0 52.5 -25.5t21.5 -60.5q0 -37 -21.5 -62.5t-52.5 -25.5t-52.5 25.5t-21.5 62.5q0 35 21.5 60.5t52.5 25.5zM367 174q31 0 53 -25.5t22 -60.5q0 -37 -22 -62.5t-53 -25.5t-52.5 25.5t-21.5 62.5q0 35 21.5 60.5t52.5 25.5zM557 174q31 0 53.5 -25.5 t22.5 -60.5q0 -36 -22.5 -62t-53.5 -26q-30 0 -52 26t-22 62q0 35 22.5 60.5t51.5 25.5z" glyph-name="ellipsis" horiz-adv-x="735" unicode="…"/><glyph d="M905 1260l-678 -652l596 -579l-51 -54h-18l-652 633l744 715z" glyph-name="guilsinglleft" horiz-adv-x="1007" unicode="‹"/><glyph d="M254 1323l651 -635l-743 -713l-60 62l678 653l-596 580l52 53h18z" glyph-name="guilsinglright" horiz-adv-x="1007" unicode="›"/><glyph d="M961 1362h90l-858 -1362h-91z" glyph-name="fraction" horiz-adv-x="1153" unicode="⁄"/><glyph d="M965 639h-516v-317h239v-86h-239v-236h-103v236h-244v86h244v1114h619v-105h-516v-588h516v-104z" glyph-name="frenchfrancsign" horiz-adv-x="1069" unicode="₣"/><glyph d="M641 1208q-134 -56 -203 -169t-69 -277v-113h456v-88h-456v-221h456v-86h-456v-180h721v-86h-988v86h181v180h-181v86h181v221h-181v88h181v113q0 97 23 180t56 137.5t79.5 99t85.5 68t81 41.5q140 58 303 48t273 -81l-64 -61q-91 49 -219 56t-260 -42z" glyph-name="lirasign" horiz-adv-x="1286" unicode="₤"/><glyph d="M1442 244l65 -58q-93 -88 -214.5 -135t-250.5 -47q-200 0 -368 110t-250 294l-18 41h-304v88h275l-8 75q-4 46 -4 70q0 1 1 3t1 3v12l2 72h-267v86h285l16 47q72 203 248 328t391 125q126 0 244 -45t211 -129l-65 -58q-80 69 -181.5 107.5t-208.5 38.5 q-163 0 -302.5 -83.5t-217.5 -227.5l-55 -103h373v-86h-385l-2 -72v-18q0 -38 6 -88l8 -57h373v-88h-357l78 -109q83 -118 210.5 -184t270.5 -66q110 0 214 40t186 114z" glyph-name="euro" horiz-adv-x="1609" unicode="€"/><glyph d="M524 553h-422v88h422v-88z" glyph-name="minus" horiz-adv-x="626" unicode="−"/><glyph d="M758 27h-656v55h656v-55zM612 190h-12l-442 431l504 485l40 -41l-460 -444l405 -394z" glyph-name="lessthanorequalto" horiz-adv-x="860" unicode="≤"/><glyph d="M758 27h-656v55h656v-55zM199 190l-41 43l460 443l-405 395l35 35h12l442 -430z" glyph-name="greaterthanorequalto" horiz-adv-x="860" unicode="≥"/><glyph glyph-name="nonmarkingreturn.1" horiz-adv-x="0"/></font>
</defs>
</svg>
